<?xml version="1.0" encoding="UTF-8" standalone="no"?>
<!-- Generator: Adobe Illustrator 14.0.0, SVG Export Plug-In . SVG Version: 6.00 Build 43363)  -->

<svg
   xmlns:dc="http://purl.org/dc/elements/1.1/"
   xmlns:cc="http://creativecommons.org/ns#"
   xmlns:rdf="http://www.w3.org/1999/02/22-rdf-syntax-ns#"
   xmlns:svg="http://www.w3.org/2000/svg"
   xmlns="http://www.w3.org/2000/svg"
   xmlns:sodipodi="http://sodipodi.sourceforge.net/DTD/sodipodi-0.dtd"
   xmlns:inkscape="http://www.inkscape.org/namespaces/inkscape"
   version="1.1"
   id="Layer_1"
   x="0px"
   y="0px"
   width="1000"
   height="200"
   viewBox="0 0 999.99996 200"
   enable-background="new 0 0 1190.55 841.89"
   xml:space="preserve"
   inkscape:version="0.47 r22583"
   sodipodi:docname="edubuntu _v1.svg"
   inkscape:export-filename="/home/stgraber/Desktop/edubuntu _v1_complete.png"
   inkscape:export-xdpi="90"
   inkscape:export-ydpi="90"><metadata
   id="metadata25"><rdf:RDF><cc:Work
       rdf:about=""><dc:format>image/svg+xml</dc:format><dc:type
         rdf:resource="http://purl.org/dc/dcmitype/StillImage" /><dc:title /></cc:Work></rdf:RDF></metadata><defs
   id="defs23"><inkscape:perspective
     sodipodi:type="inkscape:persp3d"
     inkscape:vp_x="0 : 420.94501 : 1"
     inkscape:vp_y="0 : 1000 : 0"
     inkscape:vp_z="1190.55 : 420.94501 : 1"
     inkscape:persp3d-origin="595.27502 : 280.63 : 1"
     id="perspective27" /><inkscape:perspective
     id="perspective3705"
     inkscape:persp3d-origin="0.5 : 0.33333333 : 1"
     inkscape:vp_z="1 : 0.5 : 1"
     inkscape:vp_y="0 : 1000 : 0"
     inkscape:vp_x="0 : 0.5 : 1"
     sodipodi:type="inkscape:persp3d" /></defs><sodipodi:namedview
   pagecolor="#ffffff"
   bordercolor="#666666"
   borderopacity="1"
   objecttolerance="10"
   gridtolerance="10"
   guidetolerance="10"
   inkscape:pageopacity="1"
   inkscape:pageshadow="2"
   inkscape:window-width="1440"
   inkscape:window-height="849"
   id="namedview21"
   showgrid="true"
   inkscape:zoom="1.1212866"
   inkscape:cx="597.09152"
   inkscape:cy="194.23077"
   inkscape:window-x="0"
   inkscape:window-y="24"
   inkscape:window-maximized="1"
   inkscape:current-layer="g3"><inkscape:grid
     type="xygrid"
     id="grid2835"
     empspacing="5"
     visible="true"
     enabled="true"
     snapvisiblegridlinesonly="true" /></sodipodi:namedview>
<g
   id="g3"
   transform="translate(-200.66301,-292.73999)">
	<path
   d="m 220.663,430.707 c 0,-8.832 1.278,-16.543 3.84,-23.136 2.559,-6.591 5.952,-12.063 10.176,-16.416 4.224,-4.35 9.087,-7.614 14.592,-9.792 5.502,-2.175 11.136,-3.264 16.896,-3.264 13.311,0 23.583,4.224 30.816,12.672 7.23,8.448 10.848,21.187 10.848,38.208 0,1.025 -0.033,1.891 -0.096,2.592 -0.066,0.705 -0.096,1.377 -0.096,2.016 v 1.729 h -68.352 c 0.768,10.242 3.807,18.081 9.12,23.52 5.31,5.442 13.47,8.16 24.48,8.16 6.27,0 11.55,-0.543 15.84,-1.631 4.287,-1.087 7.518,-2.143 9.696,-3.169 l 2.496,14.976 c -2.178,1.152 -5.985,2.371 -11.424,3.648 -5.442,1.278 -11.616,1.92 -18.528,1.92 -8.706,0 -16.224,-1.313 -22.56,-3.936 -6.336,-2.623 -11.553,-6.24 -15.648,-10.848 -4.098,-4.608 -7.137,-10.08 -9.12,-16.416 -1.986,-6.337 -2.976,-13.28 -2.976,-20.833 z m 68.544,-9.793 c 0.126,-8.063 -1.89,-14.688 -6.048,-19.872 -4.161,-5.184 -9.888,-7.776 -17.184,-7.776 -4.098,0 -7.713,0.801 -10.848,2.4 -3.138,1.602 -5.76,3.681 -7.872,6.24 -2.112,2.562 -3.81,5.505 -5.088,8.832 -1.281,3.33 -2.112,6.72 -2.496,10.175 h 49.536 z"
   id="path5" />
	<path
   d="m 393.077,334.514 17.856,-3.072 v 146.112 c -4.098,1.152 -9.345,2.304 -15.744,3.456 -6.402,1.151 -13.761,1.728 -22.08,1.728 -7.68,0 -14.592,-1.218 -20.736,-3.648 -6.144,-2.43 -11.394,-5.885 -15.744,-10.367 -4.353,-4.479 -7.713,-9.951 -10.08,-16.416 -2.37,-6.462 -3.552,-13.729 -3.552,-21.792 0,-7.681 0.99,-14.718 2.976,-21.12 1.983,-6.399 4.896,-11.904 8.736,-16.512 3.84,-4.608 8.544,-8.19 14.112,-10.752 5.568,-2.559 11.934,-3.84 19.104,-3.84 5.76,0 10.848,0.768 15.264,2.304 4.416,1.536 7.71,3.009 9.888,4.416 v -50.497 z m 0,67.2 c -2.178,-1.791 -5.313,-3.519 -9.408,-5.184 -4.098,-1.662 -8.577,-2.496 -13.44,-2.496 -5.121,0 -9.504,0.93 -13.152,2.784 -3.648,1.857 -6.624,4.416 -8.928,7.68 -2.304,3.264 -3.969,7.137 -4.992,11.617 -1.026,4.481 -1.536,9.281 -1.536,14.399 0,11.649 2.88,20.64 8.64,26.976 5.76,6.336 13.44,9.504 23.04,9.504 4.863,0 8.928,-0.222 12.192,-0.672 3.264,-0.447 5.79,-0.927 7.584,-1.439 v -63.169 z"
   id="path7" />
	<path
   d="m 516.146,477.554 c -4.098,1.025 -9.504,2.111 -16.224,3.264 -6.72,1.152 -14.496,1.729 -23.328,1.729 -7.68,0 -14.145,-1.122 -19.392,-3.36 -5.25,-2.237 -9.474,-5.405 -12.672,-9.504 -3.201,-4.095 -5.505,-8.929 -6.912,-14.496 -1.41,-5.567 -2.112,-11.742 -2.112,-18.528 v -56.063 h 17.856 v 52.224 c 0,12.162 1.92,20.865 5.76,26.112 3.84,5.25 10.302,7.872 19.392,7.872 1.92,0 3.903,-0.062 5.952,-0.192 2.046,-0.126 3.966,-0.288 5.76,-0.479 1.791,-0.192 3.423,-0.385 4.896,-0.576 1.47,-0.191 2.526,-0.414 3.168,-0.672 v -84.288 h 17.856 v 96.957 z"
   id="path9" />
	<path
   d="m 559.728,385.01 c 2.175,-1.407 5.472,-2.88 9.888,-4.416 4.416,-1.536 9.504,-2.304 15.264,-2.304 7.167,0 13.536,1.281 19.105,3.84 5.566,2.562 10.271,6.144 14.112,10.752 3.84,4.608 6.75,10.113 8.736,16.512 1.982,6.402 2.975,13.439 2.975,21.12 0,8.063 -1.184,15.33 -3.551,21.792 -2.371,6.465 -5.73,11.938 -10.08,16.416 -4.354,4.482 -9.6,7.938 -15.745,10.367 -6.144,2.431 -13.056,3.648 -20.736,3.648 -8.322,0 -15.681,-0.576 -22.08,-1.728 -6.402,-1.152 -11.649,-2.304 -15.744,-3.456 v -143.04 l 17.856,-3.072 v 53.569 z m 0,79.872 c 1.791,0.513 4.32,0.992 7.584,1.439 3.264,0.45 7.326,0.672 12.192,0.672 9.6,0 17.28,-3.168 23.04,-9.504 5.76,-6.336 8.641,-15.326 8.641,-26.976 0,-5.118 -0.514,-9.918 -1.537,-14.399 -1.025,-4.479 -2.688,-8.353 -4.99,-11.617 -2.305,-3.264 -5.281,-5.823 -8.929,-7.68 -3.648,-1.854 -8.034,-2.784 -13.152,-2.784 -4.866,0 -9.345,0.834 -13.44,2.496 -4.098,1.665 -7.233,3.393 -9.408,5.184 v 63.169 z"
   id="path11" />
	<path
   d="m 729.454,477.554 c -4.1,1.025 -9.506,2.111 -16.225,3.264 -6.721,1.152 -14.496,1.729 -23.328,1.729 -7.68,0 -14.145,-1.122 -19.393,-3.36 -5.25,-2.237 -9.473,-5.405 -12.672,-9.504 -3.201,-4.095 -5.504,-8.929 -6.912,-14.496 -1.41,-5.567 -2.111,-11.742 -2.111,-18.528 v -56.063 h 17.855 v 52.224 c 0,12.162 1.92,20.865 5.76,26.112 3.84,5.25 10.303,7.872 19.393,7.872 1.92,0 3.902,-0.062 5.951,-0.192 2.047,-0.126 3.967,-0.288 5.76,-0.479 1.791,-0.192 3.424,-0.385 4.896,-0.576 1.471,-0.191 2.527,-0.414 3.168,-0.672 v -84.288 h 17.857 v 96.957 z"
   id="path13" />
	<path
   d="m 755.179,383.474 c 4.096,-1.023 9.535,-2.112 16.32,-3.264 6.783,-1.152 14.592,-1.728 23.424,-1.728 7.936,0 14.525,1.122 19.775,3.36 5.248,2.241 9.439,5.376 12.576,9.408 3.135,4.032 5.344,8.865 6.625,14.496 1.277,5.634 1.92,11.841 1.92,18.625 v 56.063 H 817.964 V 428.21 c 0,-6.145 -0.418,-11.392 -1.248,-15.744 -0.834,-4.35 -2.209,-7.872 -4.129,-10.56 -1.92,-2.688 -4.482,-4.638 -7.68,-5.856 -3.201,-1.215 -7.17,-1.824 -11.904,-1.824 -1.92,0 -3.906,0.066 -5.951,0.192 -2.049,0.129 -4.002,0.288 -5.857,0.48 -1.855,0.192 -3.521,0.417 -4.992,0.672 -1.473,0.258 -2.527,0.45 -3.168,0.576 v 84.288 H 755.18 v -96.96 z"
   id="path15" />
	<path
   d="m 877.097,380.594 h 37.824 v 14.976 h -37.824 v 46.08 c 0,4.992 0.385,9.12 1.152,12.385 0.768,3.264 1.92,5.825 3.455,7.68 1.537,1.857 3.457,3.168 5.762,3.936 2.303,0.768 4.99,1.152 8.062,1.152 5.502,0 9.855,-0.605 13.057,-1.824 3.197,-1.215 5.375,-2.079 6.527,-2.592 l 3.84,14.592 c -1.793,0.896 -4.961,2.049 -9.504,3.456 -4.545,1.407 -9.695,2.112 -15.455,2.112 -6.787,0 -12.385,-0.864 -16.801,-2.592 -4.416,-1.729 -7.967,-4.32 -10.656,-7.776 -2.688,-3.456 -4.578,-7.71 -5.664,-12.769 -1.088,-5.055 -1.631,-10.91 -1.631,-17.567 v -89.088 l 17.855,-3.072 v 30.911 z"
   id="path17" />
	<path
   d="m 1012.072,477.554 c -4.1,1.025 -9.506,2.111 -16.225,3.264 -6.721,1.152 -14.496,1.729 -23.328,1.729 -7.68,0 -14.145,-1.122 -19.393,-3.36 -5.25,-2.237 -9.473,-5.405 -12.672,-9.504 -3.201,-4.095 -5.504,-8.929 -6.912,-14.496 -1.41,-5.567 -2.111,-11.742 -2.111,-18.528 v -56.063 h 17.855 v 52.224 c 0,12.162 1.92,20.865 5.76,26.112 3.84,5.25 10.303,7.872 19.393,7.872 1.92,0 3.902,-0.062 5.951,-0.192 2.047,-0.126 3.967,-0.288 5.76,-0.479 1.791,-0.192 3.424,-0.385 4.896,-0.576 1.471,-0.191 2.527,-0.414 3.168,-0.672 v -84.288 h 17.857 v 96.957 z"
   id="path19" />
<path
   sodipodi:type="arc"
   style="fill:#a30b00;fill-opacity:1;fill-rule:evenodd;stroke:none"
   id="path2837"
   sodipodi:cx="990"
   sodipodi:cy="231.89001"
   sodipodi:rx="60"
   sodipodi:ry="60"
   d="m 1050,231.89001 a 60,60 0 1 1 -120,0 60,60 0 1 1 120,0 z"
   transform="translate(119.99997,141.99999)" /><circle
   sodipodi:ry="9.1420002"
   sodipodi:rx="9.1420002"
   sodipodi:cy="66.044998"
   sodipodi:cx="9.1420002"
   cx="9.1420002"
   cy="66.044998"
   r="9.1420002"
   id="circle13"
   style="fill:#ffffff;fill-opacity:1"
   transform="matrix(0.8306138,0,0,0.8306138,1066.4349,321.60418)"
   d="m 18.284,66.044998 c 0,5.048987 -4.093013,9.142 -9.1419998,9.142 C 4.0930129,75.186998 0,71.093985 0,66.044998 c 0,-5.048987 4.0930129,-9.142 9.1420002,-9.142 5.0489868,0 9.1419998,4.093013 9.1419998,9.142 z" /><circle
   sodipodi:ry="9.1429996"
   sodipodi:rx="9.1429996"
   sodipodi:cy="103.882"
   sodipodi:cx="74.693001"
   cx="74.693001"
   cy="103.882"
   r="9.1429996"
   id="circle15"
   style="fill:#ffffff;fill-opacity:1"
   transform="matrix(0.8306138,0,0,0.8306138,1066.4349,321.60418)"
   d="m 83.836,103.882 c 0,5.04954 -4.09346,9.143 -9.142999,9.143 -5.049539,0 -9.143,-4.09346 -9.143,-9.143 0,-5.049535 4.093461,-9.142996 9.143,-9.142996 5.049539,0 9.142999,4.093461 9.142999,9.142996 z" /><path
   d="m 1128.9254,379.12086 c -1.2958,9.1052 -9.1418,16.12969 -18.6,16.12969 -2.471,0 -4.8325,-0.48092 -6.9963,-1.35141 l -6.5128,11.28057 c 4.1714,1.96524 8.7605,3.00267 13.5091,3.00267 2.4811,0 4.9181,-0.2849 7.2753,-0.83726 0.182,-3.56417 2.1081,-6.96885 5.4298,-8.88508 3.3175,-1.91622 7.2222,-1.88632 10.3984,-0.26662 4.953,-5.25862 7.9158,-11.9218 8.5055,-19.07256 l -13.009,0 z"
   id="path17-9"
   style="fill:#ffffff;fill-opacity:1" /><path
   d="m 1091.5378,376.46207 c 0,-5.98624 2.8132,-11.32708 7.1881,-14.76998 l -6.5121,-11.2789 c -1.5274,1.06651 -2.9727,2.27422 -4.3167,3.61981 -3.7684,3.7685 -6.4712,8.31861 -7.9581,13.28402 2.9961,1.94031 4.9804,5.31011 4.9804,9.14505 0,3.83495 -1.9843,7.20475 -4.9804,9.14506 1.4869,4.96541 4.1897,9.51634 7.9581,13.284 1.3432,1.34394 2.7876,2.55248 4.3134,3.61899 l 6.512,-11.28139 c -4.3731,-3.44207 -7.1847,-8.78209 -7.1847,-14.76666 z"
   id="path19-9"
   style="fill:#ffffff;fill-opacity:1" /><circle
   sodipodi:ry="9.1420002"
   sodipodi:rx="9.1420002"
   sodipodi:cy="28.195"
   sodipodi:cx="74.684998"
   cx="74.684998"
   cy="28.195"
   r="9.1420002"
   id="circle21"
   style="fill:#ffffff;fill-opacity:1"
   transform="matrix(0.8306138,0,0,0.8306138,1066.4349,321.60418)"
   d="m 83.826998,28.195 c 0,5.048987 -4.093013,9.142 -9.142,9.142 -5.048988,0 -9.142001,-4.093013 -9.142001,-9.142 0,-5.048988 4.093013,-9.142001 9.142001,-9.142001 5.048987,0 9.142,4.093013 9.142,9.142001 z" /><path
   d="m 1133.4356,354.76893 c -0.011,0.006 -0.024,0.0113 -0.035,0.0166 -1.2168,0.79489 -2.8606,1.04823 -4.2361,1.16534 -7.2223,0.61964 -14.059,-6.44058 -14.059,-17.37395 0,-6.90738 1.0474,-12.83547 3.8524,-16.93206 0.011,-0.0141 0.012,-0.0266 0.019,-0.0407 -5.4646,4.56256 -10.0479,11.38688 -12.6079,19.62989 -0.4094,1.31819 -0.7442,2.63388 -1.0282,3.94459 -1.0084,4.64811 -1.256,9.21815 -0.8082,13.46591 0.3098,-0.10134 0.6229,-0.19353 0.9402,-0.27908 1.5491,-0.41365 3.1746,-0.64041 4.8532,-0.64041 9.4608,0 17.31,7.02533 18.6108,16.13218 l 13.0174,0 c -0.5914,-7.1574 -3.5584,-13.82639 -8.5187,-19.08833 z"
   id="path39"
   style="fill:#ffffff;fill-opacity:1" /></g>
</svg>