<?xml version="1.0" encoding="UTF-8" standalone="no"?>
<svg
   xmlns:svg="http://www.w3.org/2000/svg"
   xmlns="http://www.w3.org/2000/svg"
   xmlns:xlink="http://www.w3.org/1999/xlink"
   version="1.0"
   width="768"
   height="234"
   id="svg2">
  <defs
     id="defs5" />
  <path
     d="M 768.00593,65.309915 C 768.00593,29.410928 738.90314,0.30804 703.00478,0.30804 C 667.12199,0.30804 638.03179,29.386603 638.00563,65.264065 L 638.00372,65.262077 L 638.00372,115.56313 L 638.00563,115.56527 C 638.02545,123.71135 644.63168,130.3061 652.78308,130.3061 L 652.85388,130.30404 L 652.85799,130.3061 L 703.0308,130.3061 C 738.91771,130.29255 768.00593,101.19964 768.00593,65.309915"
     id="voice"
     style="fill:#294172" />
  <path
     d="M 691.58223,92.858115 C 691.56865,101.73855 684.36375,108.93617 675.48054,108.93617 C 666.58795,108.93617 659.31233,101.72532 659.31233,92.832728 C 659.31233,83.939065 666.58795,76.594965 675.48054,76.594965 L 675.50244,76.596952 L 691.58223,76.594965 L 691.58223,92.858115 z M 705.98775,62.391828 L 675.4858,62.391828 L 675.48054,62.391828 C 658.63133,62.391828 644.97442,75.98289 644.97442,92.830653 C 644.97442,109.67949 658.63133,123.33967 675.48054,123.33967 C 692.32884,123.33967 705.98775,109.67949 705.98775,92.830653 L 705.98775,92.81139"
     id="in"
     style="fill:#3c6eb4" />
  <use
     transform="matrix(-1,0,0,-1,1397.5699,139.05584)"
     id="finity"
     xlink:href="#in" />
  <path
     d="M 691.58213,46.244553 L 691.58213,46.223178 C 691.58213,29.374303 705.24012,15.716178 722.08933,15.716178 C 724.64648,15.716178 726.46226,16.002877 728.82998,16.623152 C 732.27923,17.526978 735.09661,20.353627 735.09874,23.644878 C 735.09967,27.622452 732.2127,30.513165 727.89805,30.513165 C 725.84169,30.513165 725.09943,30.119715 722.08826,30.119715 C 713.20604,30.119715 706.00329,37.31324 705.98765,46.196753 L 705.98765,60.116202 L 705.98765,60.11834 C 705.98765,61.373978 707.00388,62.391828 708.26159,62.391828 L 708.26792,62.391828 L 718.84089,62.391828 C 722.7817,62.391828 725.96239,65.54474 725.96575,69.494865 C 725.96575,73.44804 722.7807,76.594965 718.84089,76.594965 L 691.58213,76.594965"
     id="free"
     style="fill:#ffffff" />
  <use
     transform="matrix(-1,0,0,-1,1397.5699,139.05584)"
     id="dom"
     style="fill:#3c6eb4"
     xlink:href="#free" />
  <path
     d="M 756.7892,119.05732 C 756.7892,119.05732 756.7892,116.35677 756.7892,116.35677 L 755.55538,119.18748 C 755.55538,119.18748 754.35284,116.35677 754.35284,116.35677 L 754.35284,119.05732 L 753.66039,119.05732 L 753.66039,114.7927 L 754.3861,114.7927 C 754.7834,115.70047 755.17891,116.60913 755.57503,117.51734 L 756.74549,114.7927 L 757.4805,114.7927 L 757.4805,119.05732 L 756.7892,119.05732 z M 751.74367,115.50693 L 751.74367,119.05732 L 751.02002,119.05732 L 751.02002,115.50693 L 749.80709,115.50693 L 749.80709,114.7927 L 752.95552,114.7927 L 752.95552,115.50693 L 751.74367,115.50693"
     id="TM"
     style="fill:#294172" />
  <path
     d="M 73.62364,71.62354 C 71.506202,71.310352 69.347152,71.151665 67.204328,71.151665 C 43.211253,71.151665 23.69084,90.673528 23.69084,114.66775 L 23.69084,128.26019 L 9.4723438,128.26019 C 4.2604313,128.26019 -0.00593125,132.52484 -0.00593125,137.73484 C -0.00593125,142.95003 4.2604313,148.2058 9.4723438,148.2058 L 23.688315,148.2058 L 23.688315,221.13442 C 23.688315,227.53033 28.90124,232.74445 35.296727,232.74445 C 41.695202,232.74445 46.908115,227.53033 46.908115,221.13442 L 46.908115,148.2058 L 62.626303,148.2058 C 67.837777,148.2058 72.101577,142.95003 72.101577,137.73484 C 72.101577,132.52484 67.837777,128.26019 62.626303,128.26019 L 46.91584,128.26019 L 46.91584,114.66775 C 46.91584,103.4797 56.016353,92.871865 67.204328,92.871865 C 68.212377,92.871865 69.227627,92.947015 70.222565,93.093528 C 76.568165,94.032978 82.470527,91.158603 83.412078,84.811865 C 84.348515,78.468327 79.967765,72.56509 73.62364,71.62354"
     id="f"
     style="fill:#3c6eb4" />
  <path
     d="M 135.38848,144.60965 C 119.51487,144.60965 108.61592,155.03278 106.24833,170.19219 C 142.0228,170.19219 164.52973,170.19219 164.52973,170.19219 C 162.39739,155.74386 151.02578,144.60965 135.38848,144.60965 z M 178.98424,186.54576 C 178.98424,186.54576 178.98424,186.54576 105.77353,186.54576 C 106.95838,202.41628 119.75222,214.26477 136.80969,214.26477 C 148.89244,214.26477 159.31763,209.28903 167.61053,201.23561 C 169.27015,199.57184 171.16404,199.09915 173.29635,199.09915 C 176.13978,199.09915 178.98424,200.52347 180.87813,202.89211 C 182.06505,204.55072 182.77616,206.44669 182.77616,208.34058 C 182.77616,210.94761 181.59029,213.7889 179.45693,215.92335 C 169.50649,226.58284 152.68435,233.69195 136.09858,233.69195 C 106.00985,233.69195 81.843665,209.52645 81.843665,179.43565 C 81.843665,149.34693 105.29981,125.18148 135.38848,125.18148 C 165.24084,125.18148 187.51245,148.39844 187.51245,178.96088 C 187.51245,183.46393 183.48624,186.54576 178.98424,186.54576"
     id="e"
     style="fill:#3c6eb4" />
  <path
     d="M 261.03758,213.07785 C 242.08522,213.07785 230.00246,197.91325 230.00246,179.43565 C 230.00246,160.9581 242.08522,145.7914 261.03758,145.7914 C 279.99308,145.7914 292.07477,160.24384 292.07477,179.43565 C 292.07477,198.62335 279.99308,213.07785 261.03758,213.07785 z M 315.2949,82.29339 C 315.2949,75.898978 310.08387,70.921865 303.68693,70.921865 C 297.28994,70.921865 292.07477,75.898978 292.07477,82.29339 L 292.07477,143.42274 C 286.15366,132.52484 273.36084,125.18148 258.19624,125.18148 C 227.39641,125.18148 206.78342,148.39844 206.78342,179.43565 C 206.78342,210.47387 228.10755,233.69195 258.19624,233.69195 C 271.61792,233.69195 283.25507,228.15288 290.2236,218.5242 L 292.80154,225.06168 C 294.39868,229.5512 298.67998,232.76215 303.71088,232.76215 C 310.07762,232.76215 315.2949,227.57713 315.2949,221.18435 L 315.2949,221.13442 L 315.2949,82.29339"
     id="d"
     style="fill:#3c6eb4" />
  <path
     d="M 388.18183,145.7914 C 369.22945,145.7914 356.90721,160.9581 356.90721,179.43565 C 356.90721,197.91325 369.22945,213.07785 388.18183,213.07785 C 407.13629,213.07785 419.45952,197.91325 419.45952,179.43565 C 419.45952,160.9581 407.13629,145.7914 388.18183,145.7914 z M 388.18183,233.69195 C 358.09313,233.69195 333.92763,209.52645 333.92763,179.43565 C 333.92763,149.34693 358.09313,125.18148 388.18183,125.18148 C 418.27364,125.18148 442.43811,149.34693 442.43811,179.43565 C 442.43811,209.52645 418.27364,233.69195 388.18183,233.69195"
     id="o"
     style="fill:#3c6eb4" />
  <path
     d="M 520.77551,125.18148 C 504.88002,125.18148 494.36423,129.88237 485.0812,141.68395 L 484.2243,136.19493 C 483.50378,130.46433 478.61552,126.0394 472.6975,126.0394 C 466.27665,126.0394 461.06974,131.239 461.06974,137.66297 L 461.06974,137.68907 L 461.06974,137.69944 L 461.06974,221.13442 C 461.06974,227.53033 466.2808,232.74445 472.67878,232.74445 C 479.07572,232.74445 484.28885,227.53033 484.28885,221.13442 L 484.28885,176.35697 C 484.28885,155.98233 502.05847,145.7914 520.77551,145.7914 C 526.46239,145.7914 530.96224,141.05403 530.96224,135.3672 C 530.96224,129.6814 526.46239,125.18148 520.77551,125.18148"
     id="r"
     style="fill:#3c6eb4" />
  <path
     d="M 589.00835,213.07785 C 570.05289,213.07785 557.73379,197.91325 557.73379,179.43565 C 557.73379,160.9581 570.05289,145.7914 589.00835,145.7914 C 607.96175,145.7914 620.28299,160.9581 620.28299,179.43565 C 620.28299,197.91325 607.96175,213.07785 589.00835,213.07785 z M 643.26563,179.43565 C 643.50314,150.29545 622.65169,125.18148 589.00835,125.18148 C 558.91756,125.18148 534.51479,149.34693 534.51479,179.43565 C 534.51479,209.52645 558.20758,233.69195 586.87715,233.69195 C 601.18487,233.69195 614.06206,226.32668 619.80715,218.63248 L 622.63492,225.81342 C 624.153,229.84689 628.04491,232.71844 632.60835,232.71844 C 638.48987,232.71844 643.25739,227.95407 643.26563,222.07665 L 643.26563,179.43565"
     id="a"
     style="fill:#3c6eb4" />
  <path
     d="M 653.33227,222.18803 C 653.33227,222.18803 653.33227,219.48748 653.33227,219.48748 L 652.09845,222.31819 C 652.09845,222.31819 650.89591,219.48748 650.89591,219.48748 L 650.89591,222.18803 L 650.20346,222.18803 L 650.20346,217.92341 L 650.92917,217.92341 C 651.32647,218.83118 651.72198,219.73984 652.1181,220.64805 L 653.28856,217.92341 L 654.02357,217.92341 L 654.02357,222.18803 L 653.33227,222.18803 z M 648.28674,218.63764 L 648.28674,222.18803 L 647.56309,222.18803 L 647.56309,218.63764 L 646.35016,218.63764 L 646.35016,217.92341 L 649.49859,217.92341 L 649.49859,218.63764 L 648.28674,218.63764"
     id="TM2"
     style="fill:#3c6eb4" />
</svg>