<?xml version="1.0" encoding="UTF-8" standalone="no"?>
<!-- Created with Inkscape (http://www.inkscape.org/) -->
<svg xmlns:rdf="http://www.w3.org/1999/02/22-rdf-syntax-ns#" xmlns="http://www.w3.org/2000/svg" version="1.1" xmlns:cc="http://creativecommons.org/ns#" xmlns:xlink="http://www.w3.org/1999/xlink" viewBox="0 0 360 71.61" xmlns:dc="http://purl.org/dc/elements/1.1/">
 <defs>
  <clipPath id="clipPath22172" clipPathUnits="userSpaceOnUse">
   <path d="m0,0,2880,0,0,572.9-2880,0v-572.9z"/>
  </clipPath>
 </defs>
 <metadata>
  <rdf:RDF>
   <cc:Work rdf:about="">
    <dc:format>image/svg+xml</dc:format>
    <dc:type rdf:resource="http://purl.org/dc/dcmitype/StillImage"/>
    <dc:title/>
   </cc:Work>
  </rdf:RDF>
 </metadata>
 <g transform="translate(78.627461,-432.6729)">
  <g transform="matrix(1.2150891,0,0,-1.2150891,-73.600292,503.28377)">
   <g transform="scale(0.1,0.1)">
    <g fill-rule="nonzero" clip-path="url(#clipPath22172)">
     <path fill="#000" d="m169.2,17.27,59.08,0,0,530.3-59.08,0,0-530.3z"/>
     <path fill="#000" d="m499.8,17.27,59.08,0,0,530.3-59.08,0,0-530.3z"/>
     <path fill="#000" d="m1443,17.27,59.09,0,0,530.3-59.09,0,0-530.3z"/>
     <path fill="#000" d="m2035,547.6,79.49,0-249-246.9,257.4-283.4-81.59,0-217.4,243.3-14.76-14.78,0-228.6-59.08,0,0,530.3,59.08,0,0-227.2,225.8,227.2"/>
     <path fill="#000" d="m2378,231.8c0-39.38-1.42-84.38,23.23-118.1,23.19-32.36,68.21-50.64,106.9-50.64,37.98,0,79.47,17.58,104.1,47.12,28.14,33.74,26.02,80.17,26.02,121.7v315.8h59.08v-332c0-57.66-4.21-103.4-46.42-147-36-39.47-89-60.58-142-60.58-49.95,0-101.3,18.98-137.2,54.16-46.42,44.32-52.06,92.84-52.06,153.3v332h59.08v-315.8"/>
     <path fill="#000" d="m760,17.27,64.71,0,178.6,417.8,174.4-417.8,65.42,0l-237,555.6-245-555.6"/>
     <path fill="#33a02c" d="m596.2,325.2c25.52-5.625,26.62-0.937,39.09-0.828,9.223,16.51,19.01,35.92,39.5,40.86-54.91,19.55-118.7,7.473-176.2-5.578-11.17-21.78-2.402-37.3-4.504-60.86-12.11,14.62-11.88,40.05-6.402,58.35-7.793-1.796-15.46-3.578-22.94-5.265-51.5-11.61-93.84-48.23-141.6-65.72-14.5-12.59-17.04-29-5.843-51.9-12.61,12.71-17.49,29.11-12.19,46.37-1.918-0.469-3.816-0.899-5.738-1.289-54.62-11.02-178.5-28.48-91.47-99.32,44.53-36.23,188.4-45.74,188.4-45.74s-32.41,39.62-45.21,57.61c20.49-25.37,45.25-44.26,77.66-50.72,6.051,1.816,11.89,3.898,17.41,6.277,21.65,9.414,43.98,28.42,63.44,45.43-17.48,4.929-29.28,17.98-39.51,35.47,14.46-12.53,33.53-21.03,52.56-23.31l0.078-0.703c1.469,1.25,2.903,2.461,4.285,3.644,44.5,37.59,72.77,54.92,100.9,102.4-23.36,13.11-21.97,12.63-31.72,14.79"/>
     <path fill="#236c1e" d="M541.7,294.2c-55.4-55.1-177.2-74.8-251.6-79.6-91.8-6.1-206.6,11.2-290,51.4-5.008-48.1,230.9-66.2,256-67.5,64.11-3.282,130.3,14.36,190.2,35.76,72.06,25.76,116.3,72.39,173.5,120.4"/>
     <path fill="#bfe5ac" d="m276.3,263.9c-25.45-3.742-63.48-0.258-72.16-30.91-0.609-2.168,1.899-11.9,2.153-11.58,3.48,4.562,8.867,6.355,13.44,9.492,5.723,3.937,12.14,7.082,18.35,10.22,12.69,6.379,26.71,11.93,38.68,19.61,0.391,0.254-0.156,3.211-0.461,3.176"/>
     <path fill="#bfe5ac" d="m461.5,338.1c-13.18-0.07-27.64-5.461-39.99-9.66-18.05-6.156-35.88-13.16-52.38-22.77-13.72-7.988-27.54-17.95-34.35-32.76-5.07-11.04-5.109-28.6,1.387-39.11-0.41,0.644-0.039,10.25-1.035,13.04,2.066-5.774-0.36-5.911,1.308-1.567,0.848,2.192,2.059,4.172,3.391,6.086,3.679,5.324,8.398,10.04,13.05,14.52,11.76,11.34,25.15,20.23,38.25,29.91,21.92,16.21,46.41,28.03,70.68,40.1,0.274,0.137-0.058,2.231-0.312,2.223"/>
     <path fill="#bfe5ac" d="m606.6,367c-23.94,2.563-51.6,5.496-75.05-0.726-26.5-7.028-33.2-30.36-33.07-55.19,0-1.34,1.609-7.68,1.68-6.422,1.058,18.86,25.46,34.08,40.24,42.07,21.28,11.52,42.38,17.23,66.51,18.04,0.161,0.008,0.039,2.191-0.308,2.23"/>
     <path fill="#ff7200" d="m784.6,190.1c-21.55,13.84-24.17,9.922-35.66,14.05-14.09-12.04-29.67-26.56-50.23-24.14,43.87-36.62,106.6-47.23,163.9-54.77,17.68,16.23,14.88,33.48,24.82,54.42,6.149-17.56-2.687-40.85-13.96-55.84,7.785-0.977,15.44-1.961,22.87-2.957,51.3-6.828,102.7,12.45,152.6,12.27,17.61,6.633,25.5,20.85,23.02,45.7,7.26-15.94,6.17-32.68-4.56-46.76,1.91-0.234,3.81-0.449,5.69-0.761,53.97-8.438,173.8-34.51,117.9,60.18-29,48.5-158,106.2-158,106.2s16.3-47.44,21.97-68.38c-10.21,30.3-26.53,56.11-54.15,73.06-6.186,0.39-12.24,0.488-18.12,0.156-23.12-1.289-50.12-11.18-73.8-20.2,14.4-10.45,20.8-26.48,24.26-46.02-9.051,16.42-23.68,30.71-40.38,39.28l0.145,0.684c-1.782-0.664-3.485-1.316-5.184-1.902-53.67-19.41-85.56-25.75-127.6-59.86,17-19.98,15.89-19.08,24.13-24.36"/>
     <path fill="#ff3e00" d="m845.1,200.1c69.68,31.73,188.4,8.418,258.4-12.41,86.47-25.68,186.1-80.55,249.1-145.9,20.96,42.51-189.8,139.4-212.4,149.2-57.82,24.85-124.7,31.14-187.1,31.84-75.01,0.801-131.5-27.01-200.5-51.66"/>
     <path fill="#ffb700" d="m1100,137.7c24.64-5.227,58.44-21.36,76.84,3.875,1.28,1.796,2.29,11.58,1.95,11.39-4.75-3.008-10.31-2.812-15.57-4.168-6.62-1.664-13.6-2.383-20.34-3.144-13.86-1.574-28.64-1.887-42.24-4.875-0.47-0.098-0.94-3.02-0.64-3.074"/>
     <path fill="#ffb700" d="m904,132.4c12.15-4.421,27.28-4.382,40.07-4.738,18.67-0.465,37.46-0.094,55.89,3.125,15.34,2.688,31.41,7.152,42.72,18.47,8.42,8.406,14.43,24.56,12.05,36.41,0.15-0.73-3.47-9.414-3.5-12.31,0.05,5.984,2.34,5.281-0.68,1.875-1.52-1.739-3.3-3.149-5.16-4.465-5.21-3.645-11.13-6.356-16.97-8.906-14.66-6.415-30-10.04-45.32-14.46-25.66-7.461-52.19-10.02-78.64-12.84-0.286-0.039-0.684-2.07-0.457-2.149"/>
     <path fill="#ffb700" d="m760.7,155.2c21.1-10.5,45.55-22.6,69.23-24.88,26.74-2.539,40.84,16.64,49.17,39.5,0.449,1.231,1.133,7.617,0.625,6.465-7.359-16.97-34.97-22.66-51.3-24.98-23.47-3.368-44.81-1.426-67.27,6.023-0.156,0.063-0.789-1.988-0.457-2.129"/>
     <path fill="#ffd000" d="m2816,37.43c7.58-20.62,11.41-19.27,17.13-28.02,15.88,0.9687,34.01,2.844,46.82-9.414-11.1,47.7-48.55,87.34-83.83,122-20.45-1.973-27.44-15.19-45.05-24.41,4.84,15.18,22.92,26.56,38.36,30.99-4.81,4.695-9.55,9.297-14.12,13.82-31.56,31.14-76.63,44.47-110.7,70.33-15.48,4.543-28.21-1.101-39.34-19.38,3.26,14.64,12.66,25.55,27.25,29.62-1.19,1.152-2.35,2.304-3.5,3.484-32.54,33.62-101,113.2-111.7,19.63-5.43-47.9,53.02-153.9,53.02-153.9s13.32,40.87,20.24,58.09c-8.65-25.98-10.8-52.05-0.65-77.87,4.03-3.477,8.12-6.668,12.3-9.473,16.48-11.05,40.08-18.22,60.89-24.27-4.43,14.6-0.55,28.87,7.18,44.02-2.3-15.92,0.32-33.24,7.34-47.72l-0.47-0.3907c1.57-0.4687,3.05-0.8984,4.53-1.367,46.73-14.42,71.81-26.52,118.2-24.92-1.34,22.43-1.03,21.26-3.94,29.13"/>
     <path fill="#ff9c00" d="m2770,61.84c-64.03,14.27-133.2,91.41-170.3,141.8-45.89,62.16-85.73,151.1-95.07,228.3-36.27-18.25,57.84-193.2,68.3-211.6,26.72-46.8,69.24-85.64,111.5-118.3,50.88-39.27,103.9-49.41,163.8-68.1"/>
     <path fill="#fff41d" d="m2628,235.8c-14.17,16.26-28.96,44.72-54.55,36.98-1.8-0.567-7.57-6.758-7.22-6.778,4.81-0.39,8.51-3.379,12.8-5.187,5.38-2.285,10.54-5.379,15.54-8.36,10.29-6.082,20.56-13.46,31.4-18.44,0.38-0.156,2.18,1.57,2.03,1.785"/>
     <path fill="#fff41d" d="m2764,138.5c-6.05,9.278-16.4,17.07-24.96,23.9-12.52,9.972-25.58,19.39-39.83,26.7-11.86,6.074-25.17,11.32-38.75,9.414-10.11-1.406-22.52-9.355-27.03-18.69,0.29,0.566,7.24,4.66,8.74,6.621-3.1-4.071-4.32-2.41-0.48-1.629,1.92,0.391,3.87,0.437,5.82,0.391,5.45-0.215,10.9-1.407,16.22-2.657,13.34-3.176,25.69-8.633,38.46-13.49,21.37-8.125,40.85-20.09,60.4-31.78,0.22-0.117,1.53,1.055,1.41,1.23"/>
     <path fill="#fff41d" d="m2850,48.99c-9.02,18.07-19.48,38.96-34.52,52.72-16.97,15.54-36.51,9.687-54.02-1.621-0.92-0.6369-4.69-4.66-3.75-4.133,13.8,7.824,35.6-2.527,47.95-9.375,17.8-9.812,31.4-22.12,42.9-38.82,0.09-0.1172,1.58,0.9571,1.44,1.227"/>
    </g>
   </g>
  </g>
 </g>
</svg>
