<?xml version="1.0" encoding="utf-8"?>
<!DOCTYPE svg PUBLIC "-//W3C//DTD SVG 1.1//EN" "http://www.w3.org/Graphics/SVG/1.1/DTD/svg11.dtd">
<svg version="1.1" id="Слой_1" xmlns="http://www.w3.org/2000/svg" xmlns:xlink="http://www.w3.org/1999/xlink" x="0px" y="0px"
	 width="805.911px" height="361.578px" viewBox="0 0 805.911 361.578" enable-background="new 0 0 805.911 361.578"
	 xml:space="preserve">
<linearGradient id="SVGID_1_" gradientUnits="userSpaceOnUse" x1="277.8608" y1="84.7334" x2="277.8608" y2="162.6368" gradientTransform="matrix(1 0 0 -1 214.5 339.5771)">
	<stop  offset="0" style="stop-color:#252D42"/>
	<stop  offset="1" style="stop-color:#485E82"/>
</linearGradient>
<path fill="url(#SVGID_1_)" d="M520.067,178.43c-4.732,0-8.572,3.87-8.572,8.639v3.136c-5.84-7.238-14.164-11.773-23.416-11.773
	c-17.664,0-31.988,16.515-31.988,36.886c0,20.366,14.324,36.878,31.988,36.878c9.252,0,17.576-4.531,23.416-11.77v11.324
	c0,10.369-8.742,18.824-17.385,18.824c-8.262,0-9.275-0.83-12.738,2.135c-3.756,3.219-3.152,15.135,12.738,15.135
	c19.688,0,34.521-17.241,34.521-36.094v-64.681C528.633,182.3,524.795,178.43,520.067,178.43z M492.504,237.458
	c-10.607,0-19.205-9.914-19.205-22.144s8.598-22.146,19.205-22.146c9.637,0,17.607,8.174,18.99,18.834v6.619
	C510.112,229.281,502.141,237.458,492.504,237.458z"/>
<linearGradient id="SVGID_2_" gradientUnits="userSpaceOnUse" x1="191.8579" y1="87.4141" x2="191.8579" y2="161.147" gradientTransform="matrix(1 0 0 -1 214.5 339.5771)">
	<stop  offset="0" style="stop-color:#252D42"/>
	<stop  offset="1" style="stop-color:#485E82"/>
</linearGradient>
<path fill="url(#SVGID_2_)" d="M434.063,178.43c-4.732,0-8.566,3.866-8.566,8.637v3.132c-5.838-7.234-14.172-11.769-23.422-11.769
	c-17.669,0-31.987,16.506-31.987,36.868c0,20.361,14.318,36.865,31.987,36.865c9.25,0,17.583-4.529,23.422-11.767v3.13
	c0,4.77,3.834,8.637,8.566,8.637c4.73,0,8.566-3.867,8.566-8.637v-56.461C442.629,182.296,438.793,178.43,434.063,178.43z
	 M406.5,237.435c-10.61,0-19.207-9.91-19.207-22.137c0-12.225,8.597-22.137,19.207-22.137c9.633,0,17.605,8.174,18.996,18.83v6.615
	C424.106,229.259,416.133,237.435,406.5,237.435z"/>
<linearGradient id="SVGID_3_" gradientUnits="userSpaceOnUse" x1="481.4087" y1="87.4141" x2="481.4087" y2="161.147" gradientTransform="matrix(1 0 0 -1 214.5 339.5771)">
	<stop  offset="0" style="stop-color:#252D42"/>
	<stop  offset="1" style="stop-color:#485E82"/>
</linearGradient>
<path fill="url(#SVGID_3_)" d="M723.61,178.43c-4.73,0-8.566,3.866-8.566,8.637v3.132c-5.842-7.234-14.174-11.769-23.42-11.769
	c-17.664,0-31.986,16.506-31.986,36.868c0,20.361,14.322,36.865,31.986,36.865c9.246,0,17.578-4.529,23.42-11.767v3.13
	c0,4.77,3.836,8.637,8.566,8.637c4.734,0,8.568-3.867,8.568-8.637v-56.461C732.18,182.296,728.344,178.43,723.61,178.43z
	 M696.053,237.435c-10.609,0-19.209-9.91-19.209-22.137c0-12.225,8.6-22.137,19.209-22.137c9.627,0,17.602,8.174,18.99,18.83v6.615
	C713.655,229.259,705.68,237.435,696.053,237.435z"/>
<linearGradient id="SVGID_4_" gradientUnits="userSpaceOnUse" x1="363.0806" y1="87.4141" x2="363.0806" y2="161.1484" gradientTransform="matrix(1 0 0 -1 214.5 339.5771)">
	<stop  offset="0" style="stop-color:#252D42"/>
	<stop  offset="1" style="stop-color:#485E82"/>
</linearGradient>
<path fill="url(#SVGID_4_)" d="M578.459,252.164c-15.717,0-29.164-10.062-34.314-24.133c-0.031-0.09-0.066-0.18-0.096-0.267
	c-0.041-0.11-0.076-0.22-0.109-0.332c-1.32-3.802-2.035-7.882-2.035-12.134c0-20.328,16.398-36.87,36.555-36.87
	c15.221,0,29.004,9.667,34.287,24.061c0.756,2.04,0.668,4.297-0.242,6.274c-0.902,1.979-2.555,3.509-4.586,4.254l-44.312,16.274
	c3.715,4.004,8.998,6.515,14.854,6.515c7.783,0,14.984-4.578,18.35-11.656c1.938-4.073,6.783-5.796,10.818-3.837
	c4.049,1.955,5.744,6.841,3.811,10.915C605.385,243.949,592.442,252.164,578.459,252.164z M578.459,194.792
	c-10.734,0-19.553,8.432-20.283,19.082l34.904-12.819C589.315,197.145,584.065,194.792,578.459,194.792z"/>
<linearGradient id="SVGID_5_" gradientUnits="userSpaceOnUse" x1="89.8018" y1="87.4141" x2="89.8018" y2="161.1479" gradientTransform="matrix(1 0 0 -1 214.5 339.5771)">
	<stop  offset="0" style="stop-color:#252D42"/>
	<stop  offset="1" style="stop-color:#485E82"/>
</linearGradient>
<path fill="url(#SVGID_5_)" d="M347.92,252.164c-4.799,0-8.702-3.901-8.702-8.701v-33.021c0-8.055-5.046-14.609-13.104-14.609
	s-13.104,6.556-13.104,14.609v33.021c0,4.8-3.909,8.701-8.707,8.701c-4.802,0-8.71-3.901-8.71-8.701v-33.021
	c0-8.055-5.045-14.609-13.101-14.609c-8.063,0-13.101,6.556-13.101,14.609v33.021c0,4.8-3.907,8.701-8.708,8.701
	c-4.799,0-8.707-3.901-8.707-8.701v-33.021c0-17.652,12.856-32.012,30.516-32.012c8.801,0,15.776,3.677,21.811,10.097
	c6.03-6.42,13.003-10.097,21.811-10.097c17.656,0,30.515,14.357,30.515,32.012v33.021
	C356.628,248.261,352.723,252.164,347.92,252.164z"/>
<linearGradient id="SVGID_6_" gradientUnits="userSpaceOnUse" x1="421.9478" y1="87.4121" x2="421.9478" y2="161.147" gradientTransform="matrix(1 0 0 -1 214.5 339.5771)">
	<stop  offset="0" style="stop-color:#252D42"/>
	<stop  offset="1" style="stop-color:#485E82"/>
</linearGradient>
<path fill="url(#SVGID_6_)" d="M636.44,178.43c-4.922,0-8.912,3.866-8.912,8.637v56.461c0,4.769,3.99,8.638,8.912,8.638
	c4.93,0,8.926-3.869,8.926-8.638v-56.461C645.366,182.296,641.37,178.43,636.44,178.43z"/>
<g>
	
		<linearGradient id="SVGID_7_" gradientUnits="userSpaceOnUse" x1="-68.769" y1="67.834" x2="-68.7691" y2="193.8379" gradientTransform="matrix(1 0 0 -1 214.5 339.5771)">
		<stop  offset="0" style="stop-color:#252D42"/>
		<stop  offset="1" style="stop-color:#485E82"/>
	</linearGradient>
	<path fill="url(#SVGID_7_)" d="M145.733,271.744c-36.944,0-67.002-31.225-67.002-69.607c0-21.093,9.077-40.82,24.902-54.123
		c3.606-3.032,8.876-3.032,12.484,0.001c8.506,7.154,18.747,10.937,29.616,10.937c10.882,0,21.13-3.782,29.636-10.937
		c3.607-3.033,8.876-3.033,12.483-0.001c15.812,13.29,24.88,33.019,24.88,54.123C212.732,240.52,182.677,271.744,145.733,271.744z
		 M110.857,168.218c-8.094,9.196-12.625,21.217-12.625,33.952c0,27.601,21.309,50.053,47.501,50.053
		c26.191,0,47.499-22.452,47.499-50.053c0-12.744-4.522-24.761-12.604-33.952c-10.448,6.629-22.563,10.211-34.895,10.211
		C133.413,178.429,121.304,174.848,110.857,168.218z"/>
</g>
<linearGradient id="SVGID_8_" gradientUnits="userSpaceOnUse" x1="-84.7676" y1="190.8384" x2="-84.7676" y2="214.8394" gradientTransform="matrix(1 0 0 -1 214.5 339.5771)">
	<stop  offset="0" style="stop-color:#2397D4"/>
	<stop  offset="1" style="stop-color:#65E7FF"/>
</linearGradient>
<path fill="url(#SVGID_8_)" d="M129.741,148.738h-0.008c-6.61,0-11.993-5.376-12-11.982c-0.005-6.628,5.374-12.012,11.99-12.019
	c6.62,0,12.002,5.376,12.01,11.982c0.005,6.628-5.374,12.013-11.99,12.02H129.741z"/>
<linearGradient id="SVGID_9_" gradientUnits="userSpaceOnUse" x1="-70.7676" y1="217.8394" x2="-70.7676" y2="237.8413" gradientTransform="matrix(1 0 0 -1 214.5 339.5771)">
	<stop  offset="0" style="stop-color:#2397D4"/>
	<stop  offset="1" style="stop-color:#65E7FF"/>
</linearGradient>
<path fill="url(#SVGID_9_)" d="M143.739,121.737h-0.006c-5.51,0-9.995-4.48-10-9.986c-0.002-2.681,1.036-5.192,2.923-7.081
	c1.888-1.891,4.398-2.932,7.069-2.934c5.519,0,10.005,4.48,10.008,9.987c0.002,2.68-1.036,5.19-2.923,7.08
	c-1.887,1.889-4.397,2.932-7.069,2.934H143.739z"/>
<linearGradient id="SVGID_10_" gradientUnits="userSpaceOnUse" x1="-48.7676" y1="198.8384" x2="-48.7676" y2="220.8394" gradientTransform="matrix(1 0 0 -1 214.5 339.5771)">
	<stop  offset="0" style="stop-color:#2397D4"/>
	<stop  offset="1" style="stop-color:#65E7FF"/>
</linearGradient>
<path fill="url(#SVGID_10_)" d="M165.733,140.738c-6.062,0-10.996-4.929-11-10.986c-0.006-6.073,4.924-11.01,10.99-11.015
	c6.07,0,11.004,4.928,11.01,10.985c0.005,6.073-4.925,11.01-10.99,11.016H165.733z"/>
<linearGradient id="SVGID_11_" gradientUnits="userSpaceOnUse" x1="-75.769" y1="249.8413" x2="-75.769" y2="265.8433" gradientTransform="matrix(1 0 0 -1 214.5 339.5771)">
	<stop  offset="0" style="stop-color:#2397D4"/>
	<stop  offset="1" style="stop-color:#65E7FF"/>
</linearGradient>
<path fill="url(#SVGID_11_)" d="M138.737,89.735h-0.006c-4.407,0-7.996-3.584-7.999-7.991c-0.003-2.141,0.828-4.149,2.337-5.662
	c1.51-1.512,3.519-2.346,5.656-2.348c4.414,0,8.002,3.585,8.006,7.99C146.735,86.142,143.149,89.731,138.737,89.735L138.737,89.735z
	"/>
<linearGradient id="SVGID_12_" gradientUnits="userSpaceOnUse" x1="-51.7676" y1="235.8413" x2="-51.7676" y2="253.8413" gradientTransform="matrix(1 0 0 -1 214.5 339.5771)">
	<stop  offset="0" style="stop-color:#2397D4"/>
	<stop  offset="1" style="stop-color:#65E7FF"/>
</linearGradient>
<path fill="url(#SVGID_12_)" d="M162.74,103.736h-0.005c-4.958,0-8.997-4.032-9.002-8.987c-0.002-4.973,4.032-9.011,8.994-9.014
	c4.964,0,9.001,4.032,9.006,8.988c0.002,2.411-0.932,4.672-2.63,6.372C167.403,102.797,165.144,103.733,162.74,103.736
	L162.74,103.736z"/>
<linearGradient id="SVGID_13_" gradientUnits="userSpaceOnUse" x1="421.9478" y1="169.6572" x2="421.9478" y2="191.8867" gradientTransform="matrix(1 0 0 -1 214.5 339.5771)">
	<stop  offset="0" style="stop-color:#2397D4"/>
	<stop  offset="1" style="stop-color:#65E7FF"/>
</linearGradient>
<path fill="url(#SVGID_13_)" d="M636.456,169.92h-0.01c-6.119,0-11.105-4.979-11.113-11.098
	c-0.004-6.139,4.979-11.125,11.107-11.131c6.129,0,11.113,4.979,11.121,11.098C647.565,164.927,642.584,169.913,636.456,169.92z"/>
</svg>
