<?xml version="1.0" encoding="UTF-8" standalone="no"?>
<!-- Created with Inkscape (http://www.inkscape.org/) -->

<svg
   xmlns:dc="http://purl.org/dc/elements/1.1/"
   xmlns:cc="http://creativecommons.org/ns#"
   xmlns:rdf="http://www.w3.org/1999/02/22-rdf-syntax-ns#"
   xmlns:svg="http://www.w3.org/2000/svg"
   xmlns="http://www.w3.org/2000/svg"
   xmlns:xlink="http://www.w3.org/1999/xlink"
   version="1.1"
   width="420"
   height="177.16473"
   id="svg2">
  <title
     id="title14594">Ubuntu Studio v3</title>
  <defs
     id="defs4">
    <linearGradient
       id="linearGradient3927">
      <stop
         id="stop3929"
         style="stop-color:#000000;stop-opacity:1"
         offset="0" />
      <stop
         id="stop3931"
         style="stop-color:#525252;stop-opacity:1"
         offset="1" />
    </linearGradient>
    <linearGradient
       x1="-654.12848"
       y1="579.76819"
       x2="-654.12848"
       y2="402.60345"
       id="linearGradient3933"
       xlink:href="#linearGradient3927"
       gradientUnits="userSpaceOnUse"
       gradientTransform="matrix(0.94157008,0,0,1,-52.592035,0)" />
  </defs>
  <metadata
     id="metadata7">
    <rdf:RDF>
      <cc:Work
         rdf:about="">
        <dc:format>image/svg+xml</dc:format>
        <dc:type
           rdf:resource="http://purl.org/dc/dcmitype/StillImage" />
        <dc:title>Ubuntu Studio v3</dc:title>
        <dc:creator>
          <cc:Agent>
            <dc:title>Cory Kontros</dc:title>
          </cc:Agent>
        </dc:creator>
        <dc:description>New Ubuntu Studio logo based on the Ubuntu logo 1st used in Ubuntu 10.04.</dc:description>
        <dc:date>August 8th 2010</dc:date>
      </cc:Work>
    </rdf:RDF>
  </metadata>
  <g
     transform="translate(900.08801,-402.60345)"
     id="layer1">
    <path
       d="m -538.96721,421.33441 c -18.25617,0 -33.0108,14.75463 -33.0108,33.0108 0,18.25617 14.75463,33.14892 33.0108,33.14892 18.25617,0 33.01079,-14.89275 33.01079,-33.14892 0,-18.25617 -14.75462,-33.0108 -33.01079,-33.0108 z m 6.90602,5.11045 c 0.35846,-0.045 0.73561,-0.10347 1.10497,0 4.92601,1.38107 9.13155,3.79945 12.70708,7.45851 0.31073,0.30984 0.55497,0.82572 0.69061,1.24309 0.25811,0.77276 0.10828,1.54063 -0.27624,2.20993 -0.23071,0.40176 -0.54691,0.71655 -0.96684,0.96684 -1.11987,0.66753 -2.56198,0.53732 -3.45302,-0.41414 -2.98601,-3.0558 -6.10704,-4.92394 -10.22091,-6.07731 -1.47752,-0.41325 -2.209,-1.97554 -1.79557,-3.453 0.31028,-1.10816 1.13453,-1.79915 2.20992,-1.9337 z m -7.04413,8.56347 c 5.024,0 9.99576,1.84666 13.81204,5.66296 7.63256,7.63255 7.63256,20.12961 0,27.76221 -7.6326,7.6326 -19.99153,7.63256 -27.62411,0 -0.6852,-0.66612 -1.07166,-1.70005 -0.82872,-2.6243 0.24311,-0.92422 1.00947,-1.5526 1.93369,-1.79555 0.92424,-0.2431 1.95818,0.004 2.62429,0.6906 5.60518,5.60517 14.56043,5.60517 20.1656,0 5.60517,-5.60519 5.60517,-14.69854 0,-20.30371 -5.60517,-5.60519 -14.56042,-5.60519 -20.1656,0 -0.98492,1.08454 -2.6447,1.26115 -3.72926,0.27623 -1.08454,-0.98492 -1.26115,-2.78283 -0.27623,-3.86738 0.057,-0.0633 0.21305,-0.0808 0.27623,-0.13788 3.8163,-3.8163 8.78806,-5.66296 13.81207,-5.66296 z m 0,9.11596 c 2.6699,0 5.29688,1.01516 7.32038,3.03864 4.04703,4.04705 4.04703,10.73186 0,14.77891 -4.04705,4.04703 -10.59373,4.04703 -14.64078,0 -4.04703,-4.04705 -4.04703,-10.73186 0,-14.77891 2.0235,-2.02348 4.65049,-3.03864 7.3204,-3.03864 z m -25.13794,0.96684 c 0.46316,-0.004 0.95174,0.0442 1.3812,0.27624 1.14528,0.62285 1.60733,1.92498 1.24309,3.17677 -1.10581,4.1269 -1.10581,7.75146 0,11.87838 0.3978,1.48179 -0.45193,2.91704 -1.93369,3.31487 -1.4818,0.39779 -3.05518,-0.45191 -3.45301,-1.93367 -1.3241,-4.94167 -1.3241,-9.69916 0,-14.64079 0.1083,-0.42518 0.40087,-0.77545 0.69061,-1.10496 0.53302,-0.61626 1.29992,-0.9564 2.0718,-0.96684 z m 8.42535,2.34805 c 0.56234,-0.0575 1.14925,0.10348 1.65745,0.41414 1.01639,0.62148 1.57104,1.89333 1.24307,3.03865 -0.70327,2.62465 -0.70327,4.69574 0,7.3204 0.37923,1.41413 -0.51955,2.93547 -1.93368,3.31487 -1.41413,0.37923 -2.79737,-0.51955 -3.17677,-1.93368 -0.91186,-3.40306 -0.91186,-6.67973 0,-10.08279 0.12469,-0.49476 0.31735,-1.03346 0.69061,-1.3812 0.43491,-0.40707 0.95699,-0.63323 1.51932,-0.69061 z m 16.71259,1.79558 c -1.35205,0 -2.68755,0.61572 -3.72926,1.65743 -2.08344,2.08344 -2.08344,5.37508 0,7.4585 2.08343,2.08344 5.37507,2.08344 7.45851,0 2.08343,-2.08342 2.08338,-5.37506 0,-7.4585 -1.04172,-1.04171 -2.37723,-1.65743 -3.72925,-1.65743 z m 18.09378,21.27055 c 0.60759,-0.0827 1.23698,0.0782 1.79556,0.41414 0.419,0.25193 0.73763,0.56432 0.96684,0.96684 0.38188,0.67085 0.53759,1.57629 0.27625,2.34805 -0.13746,0.41679 -0.37879,0.79628 -0.69061,1.10497 -3.58998,3.64483 -7.77562,5.95885 -12.70708,7.32038 -1.47911,0.40751 -3.04542,-0.45454 -3.45301,-1.93369 -0.40751,-1.47911 0.45454,-2.9073 1.93369,-3.31489 4.11842,-1.13706 7.22278,-3.0334 10.22091,-6.0773 0.44742,-0.47408 1.04985,-0.7462 1.65745,-0.82872 z"
       id="path10060-3"
       style="fill:#009bf9;fill-opacity:1;stroke:none" />
    <path
       d="m -499.19281,556.29397 0.62701,0 c 0.52891,0 1.01337,-0.0269 1.01337,-0.63395 0,-0.51178 -0.44098,-0.59045 -0.8468,-0.59045 l -0.79358,0 0,1.2244 z m -0.59832,-1.70933 1.4886,0 c 0.91715,0 1.34934,0.36091 1.34934,1.10223 0,0.69502 -0.44096,0.98608 -1.0143,1.04808 l 1.10176,1.70148 -0.64317,0 -1.04858,-1.65751 -0.63533,0 0,1.65751 -0.59832,0 0,-3.85179 z m 1.28733,4.74071 c 1.52379,0 2.70468,-1.21561 2.70468,-2.8287 0,-1.57747 -1.18089,-2.79398 -2.70468,-2.79398 -1.54323,0 -2.72413,1.21651 -2.72413,2.79398 0,1.61309 1.1809,2.8287 2.72413,2.8287 m 0,-6.10671 c 1.79725,0 3.30393,1.41829 3.30393,3.27801 0,1.8949 -1.50668,3.31365 -3.30393,3.31365 -1.80793,0 -3.32242,-1.41875 -3.32242,-3.31365 0,-1.85972 1.51449,-3.27801 3.32242,-3.27801"
       id="path3005-5"
       style="fill:#000000;fill-opacity:1;fill-rule:nonzero;stroke:none" />
    <path
       d="m -836.97425,497.6935 c -2.00841,0.51728 -4.67577,1.06688 -8.00209,1.64881 -3.26364,0.58194 -7.06071,0.87291 -11.39122,0.87291 -3.76571,0 -6.93517,-0.54961 -9.50837,-1.64882 -2.57323,-1.16387 -4.64437,-2.78035 -6.21338,-4.84946 -1.56904,-2.06909 -2.69877,-4.49381 -3.38913,-7.27418 -0.69039,-2.845 -1.03557,-5.98098 -1.03557,-9.40794 l 0,-28.32082 8.75524,0 0,26.38104 c 0,6.14266 0.9414,10.53949 2.82427,13.19051 1.88282,2.65105 5.05228,3.97657 9.50838,3.97656 0.94138,10e-6 1.91419,-0.0323 2.91841,-0.097 1.00414,-0.0646 1.94557,-0.12931 2.82425,-0.19398 0.87863,-0.1293 1.66315,-0.22629 2.35356,-0.29096 0.75312,-0.12931 1.28659,-0.25862 1.60042,-0.38796 l 0,-42.57822 8.75523,0 0,48.9795"
       id="path14505-3"
       style="font-size:258.12625122px;font-style:normal;font-variant:normal;font-weight:normal;font-stretch:normal;line-height:125%;letter-spacing:0px;word-spacing:0px;fill:#000000;fill-opacity:1;stroke:none;font-family:UbuntuBeta;-inkscape-font-specification:UbuntuBeta" />
    <path
       d="m -819.76792,450.94475 c 1.06691,-0.7112 2.66733,-1.45479 4.80125,-2.23075 2.19662,-0.77586 4.70709,-1.16382 7.53137,-1.16387 3.51461,5e-5 6.62132,0.64664 9.32008,1.93978 2.76147,1.29324 5.08366,3.1037 6.96655,5.43139 1.88279,2.32778 3.29492,5.10814 4.23638,8.34107 1.00414,3.233 1.50623,6.78926 1.50629,10.6688 -6e-5,4.07356 -0.59629,7.75914 -1.78871,11.05675 -1.12976,3.23299 -2.76156,5.98101 -4.89539,8.24408 -2.13395,2.26309 -4.70715,4.00888 -7.71967,5.23741 -3.01259,1.22853 -6.4017,1.84279 -10.16735,1.84279 -4.07952,0 -7.68832,-0.29096 -10.82637,-0.8729 -3.13808,-0.58193 -5.71131,-1.16387 -7.71967,-1.7458 l 0,-72.25688 8.75524,-1.55183 0,27.05996 m 0,40.34747 c 0.87862,0.25864 2.10248,0.51728 3.67155,0.77591 1.63177,0.19397 3.64012,0.29097 6.02509,0.29097 4.70709,0 8.47278,-1.58415 11.29708,-4.75247 2.82422,-3.23295 4.23635,-7.79144 4.23641,-13.67546 -6e-5,-2.58635 -0.25114,-5.01108 -0.75315,-7.27418 -0.50212,-2.26305 -1.31805,-4.20283 -2.44769,-5.81936 -1.12976,-1.6811 -2.60464,-2.97428 -4.4247,-3.87956 -1.75736,-0.96984 -3.89125,-1.45479 -6.40167,-1.45483 -2.38496,4e-5 -4.58161,0.42033 -6.58996,1.26086 -2.00838,0.84061 -3.54605,1.71351 -4.61296,2.6187 l 0,31.90942"
       id="path14507-8"
       style="font-size:258.12625122px;font-style:normal;font-variant:normal;font-weight:normal;font-stretch:normal;line-height:125%;letter-spacing:0px;word-spacing:0px;fill:#000000;fill-opacity:1;stroke:none;font-family:UbuntuBeta;-inkscape-font-specification:UbuntuBeta" />
    <path
       d="m -738.65128,497.6935 c -2.00841,0.51728 -4.67578,1.06688 -8.00209,1.64881 -3.26365,0.58194 -7.06071,0.87291 -11.39122,0.87291 -3.76572,0 -6.93517,-0.54961 -9.50838,-1.64882 -2.57323,-1.16387 -4.64436,-2.78035 -6.21338,-4.84946 -1.56904,-2.06909 -2.69877,-4.49381 -3.38913,-7.27418 -0.69038,-2.845 -1.03556,-5.98098 -1.03556,-9.40794 l 0,-28.32082 8.75523,0 0,26.38104 c 0,6.14266 0.94141,10.53949 2.82428,13.19051 1.88281,2.65105 5.05227,3.97657 9.50837,3.97656 0.94138,10e-6 1.9142,-0.0323 2.91841,-0.097 1.00414,-0.0646 1.94557,-0.12931 2.82425,-0.19398 0.87863,-0.1293 1.66315,-0.22629 2.35356,-0.29096 0.75312,-0.12931 1.28659,-0.25862 1.60042,-0.38796 l 0,-42.57822 8.75524,0 0,48.9795"
       id="path14509-6"
       style="font-size:258.12625122px;font-style:normal;font-variant:normal;font-weight:normal;font-stretch:normal;line-height:125%;letter-spacing:0px;word-spacing:0px;fill:#000000;fill-opacity:1;stroke:none;font-family:UbuntuBeta;-inkscape-font-specification:UbuntuBeta" />
    <path
       d="m -709.71301,447.6347 c -4.33057,5e-5 -8.17366,0.29312 -11.5,0.875 -3.32638,0.58198 -5.99165,1.13902 -8,1.65625 l 0,48.96875 8.78125,0 0,-42.5625 c 0.31377,-0.0646 0.80959,-0.15189 1.5,-0.28125 0.75312,-0.12929 1.55882,-0.2478 2.4375,-0.3125 0.94138,-0.12928 1.90203,-0.21655 2.90625,-0.28125 1.00416,-0.0647 1.99604,-0.0937 2.9375,-0.0937 2.32213,4e-5 4.27468,0.3222 5.84375,0.96875 1.56901,0.58197 2.80853,1.54845 3.75,2.90625 0.94138,1.35789 1.59217,3.14537 1.96875,5.34375 0.4392,2.19846 0.68745,4.83388 0.6875,7.9375 l 0,26.125 0,0.25 0,44.75 c 0,3.3623 0.24791,6.35114 0.75,8.9375 0.56485,2.52173 1.52576,4.62921 2.84375,6.375 1.31799,1.74581 3.02236,3.09477 5.15625,4 2.19665,0.84057 4.9861,1.25 8.3125,1.25 2.82423,0 5.33457,-0.35124 7.53125,-1.0625 2.19661,-0.64659 3.71507,-1.20363 4.59375,-1.65625 l -1.6875,-7.46875 c -0.62766,0.25864 -1.77448,0.72841 -3.40625,1.375 -1.56907,0.58194 -3.64529,0.84376 -6.28125,0.84375 -1.50629,10e-6 -2.83905,-0.17453 -3.96875,-0.5625 -1.1297,-0.38795 -2.05939,-1.03226 -2.8125,-1.9375 -0.75317,-0.96988 -1.34219,-2.25851 -1.71875,-3.875 -0.37664,-1.68113 -0.5625,-3.79077 -0.5625,-6.3125 l 0,-23.28125 18.5625,0 0,-7.5625 -18.5625,0 0,-13.8125 c 0,-9.4375 0,-18.875 0,-28.3125 -5e-5,-3.42692 -0.30992,-6.5612 -0.9375,-9.40625 -0.62766,-2.84497 -1.74351,-5.27676 -3.3125,-7.28125 -1.50631,-2.06906 -3.55182,-3.65075 -6.125,-4.75 -2.57325,-1.16382 -5.79631,-1.74995 -9.6875,-1.75 z"
       id="path14511-0"
       style="font-size:258.12625122px;font-style:normal;font-variant:normal;font-weight:normal;font-stretch:normal;line-height:125%;letter-spacing:0px;word-spacing:0px;fill:#000000;fill-opacity:1;stroke:none;font-family:UbuntuBeta;-inkscape-font-specification:UbuntuBeta" />
    <path
       d="m -672.5838,448.714 18.54603,0 0,7.56515 -18.54603,0 0,23.27739 c 0,2.52173 0.18821,4.62316 0.56485,6.30429 0.37656,1.61649 0.94141,2.90968 1.69458,3.87956 0.75311,0.90524 1.69452,1.55183 2.82425,1.93978 1.1297,0.38797 2.44769,0.58195 3.95398,0.58194 2.63596,10e-6 4.73847,-0.29096 6.30754,-0.8729 1.63176,-0.64659 2.76146,-1.09921 3.38913,-1.35785 l 1.69455,7.46816 c -0.87868,0.45262 -2.41635,1.00222 -4.61297,1.64881 -2.19667,0.71126 -4.70714,1.06689 -7.53137,1.06689 -3.3264,0 -6.08789,-0.42029 -8.28454,-1.26086 -2.13389,-0.90523 -3.85985,-2.23075 -5.17781,-3.97656 -1.31799,-1.74579 -2.25943,-3.87955 -2.82428,-6.40128 -0.5021,-2.58636 -0.75314,-5.56069 -0.75314,-8.92299 l 0,-45.00295 8.75523,-1.55183 0,15.61525"
       id="path14513-3"
       style="font-size:258.12625122px;font-style:normal;font-variant:normal;font-weight:normal;font-stretch:normal;line-height:125%;letter-spacing:0px;word-spacing:0px;fill:#000000;fill-opacity:1;stroke:none;font-family:UbuntuBeta;-inkscape-font-specification:UbuntuBeta" />
    <path
       d="m -609.55397,497.6935 c -2.00841,0.51728 -4.67578,1.06688 -8.00209,1.64881 -3.26365,0.58194 -7.06071,0.87291 -11.39122,0.87291 -3.76572,0 -6.93517,-0.54961 -9.50838,-1.64882 -2.57323,-1.16387 -4.64436,-2.78035 -6.21338,-4.84946 -1.56907,-2.06909 -2.69877,-4.49381 -3.38913,-7.27418 -0.69038,-2.845 -1.03556,-5.98098 -1.03556,-9.40794 l 0,-28.32082 8.75523,0 0,26.38104 c 0,6.14266 0.94141,10.53949 2.82428,13.19051 1.88281,2.65105 5.05227,3.97657 9.50837,3.97656 0.94138,10e-6 1.9142,-0.0323 2.91841,-0.097 1.00414,-0.0646 1.94557,-0.12931 2.82425,-0.19398 0.87863,-0.1293 1.66315,-0.22629 2.35357,-0.29096 0.75308,-0.12931 1.28655,-0.25862 1.60041,-0.38796 l 0,-42.57822 8.75524,0 0,48.9795"
       id="path14515-3"
       style="font-size:258.12625122px;font-style:normal;font-variant:normal;font-weight:normal;font-stretch:normal;line-height:125%;letter-spacing:0px;word-spacing:0px;fill:#000000;fill-opacity:1;stroke:none;font-family:UbuntuBeta;-inkscape-font-specification:UbuntuBeta" />
    <path
       d="m -722.72747,556.88089 c 3.57737,0 6.21336,-0.48494 7.90793,-1.45484 1.75731,-0.96988 2.63596,-2.52171 2.63599,-4.65548 -3e-5,-2.1984 -0.8473,-3.94421 -2.54183,-5.23741 -1.69457,-1.29317 -4.48748,-2.748 -8.37867,-4.36451 -1.88284,-0.77589 -3.70293,-1.5518 -5.46024,-2.32774 -1.69458,-0.84054 -3.16948,-1.81043 -4.42469,-2.90968 -1.25524,-1.09917 -2.25943,-2.42469 -3.01255,-3.97655 -0.75314,-1.55179 -1.12973,-3.45924 -1.12973,-5.72235 0,-4.46146 1.60042,-7.9854 4.80129,-10.57181 3.2008,-2.65099 7.56272,-3.97651 13.08576,-3.97656 1.38073,5e-5 2.76147,0.097 4.14225,0.29097 1.38075,0.12937 2.66733,0.32335 3.85984,0.58193 1.19243,0.19403 2.228,0.42034 3.10671,0.67893 0.94138,0.25869 1.66314,0.48499 2.16527,0.67892 l -1.60042,7.75913 c -0.94146,-0.51723 -2.41637,-1.03451 -4.4247,-1.55183 -2.00838,-0.58189 -4.42469,-0.87285 -7.24895,-0.8729 -2.44772,5e-5 -4.58161,0.51732 -6.40167,1.55183 -1.82011,0.96993 -2.73014,2.52175 -2.73014,4.65548 0,1.1639 0.18821,2.16612 0.56487,3.00666 0.43932,0.77594 1.06692,1.4872 1.88285,2.13376 0.87862,0.64663 1.94557,1.29322 3.20083,1.93978 1.25521,0.58196 2.76147,1.19623 4.51883,1.84279 2.25938,0.90526 4.29913,1.81049 6.11925,2.7157 1.82003,0.84059 3.38907,1.84281 4.70709,3.00666 1.31797,1.16389 2.32216,2.58639 3.01257,4.26752 0.69034,1.6165 1.03552,3.62094 1.03557,6.01332 -5e-5,4.65549 -1.6946,8.17943 -5.08368,10.57182 -3.38915,2.3924 -8.15903,3.58859 -14.30963,3.58859 -4.33056,0 -7.71969,-0.38795 -10.16738,-1.16387 -2.4477,-0.71125 -4.11087,-1.26085 -4.98952,-1.64881 l 1.60042,-7.75913 c 1.00416,0.38797 2.60458,0.9699 4.80125,1.74581 2.19665,0.77592 5.11503,1.16387 8.75523,1.16387"
       id="path14517-6"
       style="font-size:258.12625122px;font-style:normal;font-variant:normal;font-weight:normal;font-stretch:normal;line-height:125%;letter-spacing:0px;word-spacing:0px;fill:#000000;fill-opacity:1;stroke:none;font-family:UbuntuBeta;-inkscape-font-specification:UbuntuBeta" />
    <path
       d="m -626.608,561.92432 c -2.00841,0.51728 -4.67578,1.06688 -8.00209,1.64881 -3.26365,0.58194 -7.06071,0.87291 -11.39122,0.87291 -3.76572,0 -6.93517,-0.54961 -9.50838,-1.64882 -2.57323,-1.16387 -4.64436,-2.78035 -6.21338,-4.84946 -1.56904,-2.06909 -2.69876,-4.49381 -3.38912,-7.27418 -0.69039,-2.845 -1.03557,-5.98098 -1.03557,-9.40794 l 0,-28.32082 8.75523,0 0,26.38104 c 0,6.14266 0.94141,10.53949 2.82428,13.19051 1.88281,2.65105 5.05227,3.97657 9.50837,3.97656 0.94138,10e-6 1.9142,-0.0323 2.91841,-0.097 1.00414,-0.0646 1.94557,-0.12931 2.82426,-0.19398 0.87862,-0.1293 1.66314,-0.22629 2.35356,-0.29096 0.75311,-0.12931 1.28656,-0.25862 1.60041,-0.38796 l 0,-42.57822 8.75524,0 0,48.9795"
       id="path14521-8"
       style="font-size:258.12625122px;font-style:normal;font-variant:normal;font-weight:normal;font-stretch:normal;line-height:125%;letter-spacing:0px;word-spacing:0px;fill:#000000;fill-opacity:1;stroke:none;font-family:UbuntuBeta;-inkscape-font-specification:UbuntuBeta" />
    <path
       d="m -585.52509,523.61362 c -1.06697,-0.90519 -2.60464,-1.77809 -4.61296,-2.6187 -2.00841,-0.84053 -4.20506,-1.26082 -6.58997,-1.26086 -2.5105,4e-5 -4.67577,0.48499 -6.49583,1.45483 -1.75733,0.90528 -3.20084,2.19846 -4.33054,3.87956 -1.12972,1.61653 -1.94562,3.55631 -2.44769,5.81936 -0.50212,2.2631 -0.75314,4.68783 -0.75314,7.27418 0,5.88402 1.41212,10.44251 4.2364,13.67546 2.82425,3.16832 6.58994,4.75247 11.29709,4.75247 2.38488,0 4.36188,-0.097 5.93095,-0.29097 1.63177,-0.25864 2.88698,-0.51727 3.76569,-0.77591 l 0,-31.90942 m 0,-33.94618 8.75523,-1.55183 0,73.80871 c -2.00841,0.58193 -4.58164,1.16387 -7.71966,1.7458 -3.13811,0.58194 -6.74691,0.8729 -10.82637,0.8729 -3.76572,0 -7.15484,-0.61426 -10.16736,-1.84279 -3.01257,-1.22853 -5.5858,-2.97432 -7.71966,-5.23741 -2.13392,-2.26307 -3.7971,-5.01109 -4.98955,-8.24408 -1.12973,-3.29761 -1.69458,-6.98319 -1.69455,-11.05675 -3e-5,-3.87954 0.47069,-7.4358 1.41212,-10.6688 1.00417,-3.23293 2.4477,-6.01329 4.33054,-8.34107 1.88284,-2.32769 4.17362,-4.13815 6.87239,-5.43139 2.7615,-1.29314 5.89955,-1.93973 9.41424,-1.93978 2.82423,5e-5 5.3033,0.38801 7.43721,1.16387 2.19665,0.77596 3.82845,1.51955 4.89542,2.23075 l 0,-25.50813"
       id="path14523-7"
       style="font-size:258.12625122px;font-style:normal;font-variant:normal;font-weight:normal;font-stretch:normal;line-height:125%;letter-spacing:0px;word-spacing:0px;fill:#000000;fill-opacity:1;stroke:none;font-family:UbuntuBeta;-inkscape-font-specification:UbuntuBeta" />
    <path
       d="m -559.50441,563.37915 -8.75523,0 0,-50.43433 8.75523,0 0,50.43433 m -4.42467,-59.55131 c -1.56906,6e-5 -2.91843,-0.51721 -4.04813,-1.55182 -1.06695,-1.09915 -1.60042,-2.55398 -1.60042,-4.36451 0,-1.81039 0.53347,-3.2329 1.60042,-4.26752 1.1297,-1.09914 2.47907,-1.64875 4.04813,-1.64882 1.56902,7e-5 2.88701,0.54968 3.95395,1.64882 1.12971,1.03462 1.69456,2.45713 1.69458,4.26752 -2e-5,1.81053 -0.56487,3.26536 -1.69458,4.36451 -1.06694,1.03461 -2.38493,1.55188 -3.95395,1.55182"
       id="path14525-0"
       style="font-size:258.12625122px;font-style:normal;font-variant:normal;font-weight:normal;font-stretch:normal;line-height:125%;letter-spacing:0px;word-spacing:0px;fill:#000000;fill-opacity:1;stroke:none;font-family:UbuntuBeta;-inkscape-font-specification:UbuntuBeta" />
    <path
       d="m -506.77726,538.16199 c -6e-5,4.0089 -0.56491,7.62983 -1.69455,10.86278 -1.12976,3.23298 -2.73018,6.01333 -4.80126,8.34106 -2.0084,2.32774 -4.42472,4.1382 -7.24897,5.43139 -2.82428,1.22853 -5.89961,1.84279 -9.22592,1.84279 -3.3264,0 -6.4017,-0.61426 -9.22595,-1.84279 -2.82428,-1.29319 -5.27198,-3.10365 -7.34311,-5.43139 -2.00838,-2.32773 -3.57739,-5.10808 -4.70709,-8.34106 -1.12973,-3.23295 -1.69458,-6.85388 -1.69458,-10.86278 0,-3.9442 0.56485,-7.53279 1.69458,-10.7658 1.1297,-3.29758 2.69871,-6.11027 4.70709,-8.43805 2.07113,-2.32769 4.51883,-4.10582 7.34311,-5.33439 2.82425,-1.29314 5.89955,-1.93974 9.22595,-1.93979 3.32631,5e-5 6.40164,0.64665 9.22592,1.93979 2.82425,1.22857 5.24057,3.0067 7.24897,5.33439 2.07108,2.32778 3.6715,5.14047 4.80126,8.43805 1.12964,3.23301 1.69449,6.8216 1.69455,10.7658 m -9.13179,0 c -6e-5,-5.69 -1.25527,-10.18382 -3.76569,-13.48149 -2.44775,-3.36225 -5.80547,-5.04339 -10.07322,-5.04343 -4.26781,4e-5 -7.65694,1.68118 -10.16739,5.04343 -2.44769,3.29767 -3.67155,7.79149 -3.67152,13.48149 -3e-5,5.69004 1.22383,10.2162 3.67152,13.57847 2.51045,3.29764 5.89958,4.94645 10.16739,4.94645 4.26775,0 7.62547,-1.64881 10.07322,-4.94645 2.51042,-3.36227 3.76563,-7.88843 3.76569,-13.57847"
       id="path14527-5"
       style="font-size:258.12625122px;font-style:normal;font-variant:normal;font-weight:normal;font-stretch:normal;line-height:125%;letter-spacing:0px;word-spacing:0px;fill:#000000;fill-opacity:1;stroke:none;font-family:UbuntuBeta;-inkscape-font-specification:UbuntuBeta" />
  </g>
</svg>
