<?xml version="1.0" standalone="yes"?>
<svg version="1.1" xmlns="http://www.w3.org/2000/svg" xmlns:xlink="http://www.w3.org/1999/xlink" xmlns:ev="http://www.w3.org/2001/xml-events" width="310" height="310">
<path style="fill:#ffffff; stroke:none;" d="M0 0L0 310L310 310L310 0L0 0z"/>
<path style="fill:#000000; stroke:none;" d="M10 10L10 80L80 80L80 10L10 10M90 10L90 40L100 40L100 50L110 50L110 80L100 80L100 60L90 60L90 110L100 110L100 120L110 120L110 130L100 130L100 140L80 140L80 130L90 130L90 120L80 120L80 110L70 110L70 100L80 100L80 90L70 90L70 100L60 100L60 90L30 90L30 100L20 100L20 120L10 120L10 150L30 150L30 170L20 170L20 180L10 180L10 220L20 220L20 180L40 180L40 190L50 190L50 200L40 200L40 210L30 210L30 220L40 220L40 210L50 210L50 220L60 220L60 210L50 210L50 200L60 200L60 190L50 190L50 180L60 180L60 170L70 170L70 180L80 180L80 190L70 190L70 200L80 200L80 190L100 190L100 200L90 200L90 210L70 210L70 220L90 220L90 230L100 230L100 240L110 240L110 230L120 230L120 240L130 240L130 210L140 210L140 240L150 240L150 250L140 250L140 260L160 260L160 270L150 270L150 280L160 280L160 290L170 290L170 300L190 300L190 290L200 290L200 300L240 300L240 270L250 270L250 300L280 300L280 290L290 290L290 270L280 270L280 250L270 250L270 240L260 240L260 230L270 230L270 220L280 220L280 230L300 230L300 220L290 220L290 210L300 210L300 200L290 200L290 210L270 210L270 200L280 200L280 190L300 190L300 180L280 180L280 170L290 170L290 160L280 160L280 170L270 170L270 160L260 160L260 180L240 180L240 190L230 190L230 170L240 170L240 140L230 140L230 130L260 130L260 120L270 120L270 100L290 100L290 110L300 110L300 90L270 90L270 100L250 100L250 90L220 90L220 50L190 50L190 40L200 40L200 30L190 30L190 40L180 40L180 30L170 30L170 20L190 20L190 10L130 10L130 30L140 30L140 40L120 40L120 30L110 30L110 20L120 20L120 10L110 10L110 20L100 20L100 10L90 10M230 10L230 80L300 80L300 10L230 10z"/>
<path style="fill:#ffffff; stroke:none;" d="M20 20L20 70L70 70L70 20L20 20M150 20L150 40L160 40L160 50L150 50L150 60L160 60L160 50L180 50L180 40L160 40L160 20L150 20z"/>
<path style="fill:#000000; stroke:none;" d="M210 20L210 30L220 30L220 20L210 20z"/>
<path style="fill:#ffffff; stroke:none;" d="M240 20L240 70L290 70L290 20L240 20z"/>
<path style="fill:#000000; stroke:none;" d="M30 30L30 60L60 60L60 30L30 30M250 30L250 60L280 60L280 30L250 30z"/>
<path style="fill:#ffffff; stroke:none;" d="M110 40L110 50L120 50L120 40L110 40M130 50L130 70L120 70L120 80L110 80L110 90L100 90L100 110L130 110L130 100L140 100L140 80L150 80L150 90L160 90L160 80L170 80L170 70L180 70L180 80L190 80L190 70L200 70L200 90L170 90L170 100L160 100L160 120L150 120L150 130L140 130L140 120L130 120L130 130L110 130L110 140L100 140L100 160L70 160L70 170L80 170L80 180L90 180L90 170L100 170L100 190L110 190L110 200L100 200L100 210L90 210L90 220L100 220L100 230L110 230L110 220L120 220L120 210L130 210L130 200L140 200L140 190L150 190L150 170L160 170L160 180L180 180L180 170L170 170L170 160L180 160L180 150L190 150L190 160L210 160L210 170L200 170L200 190L170 190L170 210L160 210L160 220L150 220L150 230L160 230L160 260L170 260L170 280L180 280L180 290L190 290L190 280L180 280L180 270L190 270L190 260L210 260L210 270L200 270L200 290L230 290L230 280L220 280L220 270L240 270L240 260L210 260L210 250L190 250L190 260L180 260L180 250L170 250L170 240L180 240L180 230L190 230L190 240L200 240L200 230L210 230L210 210L230 210L230 190L220 190L220 180L210 180L210 170L230 170L230 150L200 150L200 140L180 140L180 130L170 130L170 100L180 100L180 110L190 110L190 120L200 120L200 110L210 110L210 120L220 120L220 130L230 130L230 110L210 110L210 100L220 100L220 90L210 90L210 60L190 60L190 70L180 70L180 60L170 60L170 70L160 70L160 80L150 80L150 70L140 70L140 50L130 50z"/>
<path style="fill:#000000; stroke:none;" d="M130 70L130 80L120 80L120 90L110 90L110 100L130 100L130 80L140 80L140 70L130 70z"/>
<path style="fill:#ffffff; stroke:none;" d="M30 100L30 130L20 130L20 140L30 140L30 130L40 130L40 140L50 140L50 130L40 130L40 120L50 120L50 100L30 100z"/>
<path style="fill:#000000; stroke:none;" d="M190 100L190 110L200 110L200 100L190 100z"/>
<path style="fill:#ffffff; stroke:none;" d="M240 100L240 110L250 110L250 120L260 120L260 110L250 110L250 100L240 100M70 120L70 130L80 130L80 120L70 120z"/>
<path style="fill:#000000; stroke:none;" d="M280 120L280 130L270 130L270 140L250 140L250 150L270 150L270 140L290 140L290 150L300 150L300 130L290 130L290 120L280 120M150 130L150 140L140 140L140 150L130 150L130 160L120 160L120 140L110 140L110 160L100 160L100 170L110 170L110 180L120 180L120 170L150 170L150 160L170 160L170 150L180 150L180 140L170 140L170 150L150 150L150 140L160 140L160 130L150 130z"/>
<path style="fill:#ffffff; stroke:none;" d="M70 140L70 150L80 150L80 140L70 140M140 150L140 160L150 160L150 150L140 150M40 160L40 170L60 170L60 160L40 160z"/>
<path style="fill:#000000; stroke:none;" d="M130 180L130 190L140 190L140 180L130 180M210 190L210 200L220 200L220 190L210 190z"/>
<path style="fill:#ffffff; stroke:none;" d="M240 190L240 210L250 210L250 200L270 200L270 190L240 190z"/>
<path style="fill:#000000; stroke:none;" d="M190 200L190 230L200 230L200 200L190 200M170 210L170 220L160 220L160 230L180 230L180 210L170 210z"/>
<path style="fill:#ffffff; stroke:none;" d="M260 210L260 220L270 220L270 210L260 210M220 220L220 250L250 250L250 220L220 220z"/>
<path style="fill:#000000; stroke:none;" d="M10 230L10 300L80 300L80 230L10 230M230 230L230 240L240 240L240 230L230 230z"/>
<path style="fill:#ffffff; stroke:none;" d="M20 240L20 290L70 290L70 240L20 240z"/>
<path style="fill:#000000; stroke:none;" d="M30 250L30 280L60 280L60 250L30 250M90 250L90 280L100 280L100 290L110 290L110 300L120 300L120 290L130 290L130 300L150 300L150 290L140 290L140 270L100 270L100 250L90 250z"/>
<path style="fill:#ffffff; stroke:none;" d="M250 260L250 270L260 270L260 260L250 260M270 280L270 290L280 290L280 280L270 280z"/>
</svg>
