<?xml version="1.0" standalone="yes"?>
<svg version="1.1" xmlns="http://www.w3.org/2000/svg" xmlns:xlink="http://www.w3.org/1999/xlink" xmlns:ev="http://www.w3.org/2001/xml-events" width="270" height="270">
<path style="fill:#ffffff; stroke:none;" d="M0 0L0 270L270 270L270 0L0 0z"/>
<path style="fill:#000000; stroke:none;" d="M10 10L10 80L80 80L80 10L10 10M100 10L100 20L90 20L90 30L100 30L100 40L90 40L90 50L110 50L110 80L120 80L120 50L130 50L130 60L140 60L140 70L130 70L130 100L150 100L150 130L130 130L130 120L140 120L140 110L120 110L120 120L110 120L110 100L120 100L120 90L70 90L70 100L80 100L80 110L60 110L60 90L10 90L10 100L30 100L30 120L20 120L20 110L10 110L10 180L20 180L20 150L30 150L30 140L40 140L40 160L50 160L50 140L40 140L40 100L50 100L50 130L70 130L70 140L60 140L60 150L70 150L70 160L80 160L80 170L60 170L60 180L90 180L90 200L100 200L100 210L90 210L90 260L120 260L120 250L140 250L140 260L160 260L160 250L190 250L190 240L170 240L170 230L150 230L150 220L190 220L190 230L200 230L200 220L210 220L210 230L220 230L220 240L200 240L200 260L260 260L260 220L240 220L240 210L230 210L230 200L260 200L260 190L230 190L230 180L240 180L240 170L230 170L230 180L220 180L220 160L230 160L230 140L240 140L240 160L250 160L250 170L260 170L260 150L250 150L250 140L260 140L260 110L250 110L250 90L240 90L240 120L250 120L250 130L230 130L230 140L220 140L220 130L210 130L210 120L230 120L230 110L210 110L210 90L200 90L200 110L190 110L190 90L180 90L180 100L170 100L170 110L160 110L160 90L170 90L170 80L180 80L180 70L170 70L170 60L180 60L180 50L170 50L170 60L150 60L150 50L160 50L160 40L180 40L180 30L170 30L170 20L180 20L180 10L170 10L170 20L160 20L160 30L150 30L150 40L140 40L140 50L130 50L130 30L140 30L140 20L150 20L150 10L140 10L140 20L120 20L120 30L110 30L110 10L100 10M190 10L190 80L260 80L260 10L190 10z"/>
<path style="fill:#ffffff; stroke:none;" d="M20 20L20 70L70 70L70 20L20 20M200 20L200 70L250 70L250 20L200 20z"/>
<path style="fill:#000000; stroke:none;" d="M30 30L30 60L60 60L60 30L30 30M210 30L210 60L240 60L240 30L210 30z"/>
<path style="fill:#ffffff; stroke:none;" d="M110 40L110 50L120 50L120 40L110 40z"/>
<path style="fill:#000000; stroke:none;" d="M90 60L90 80L100 80L100 60L90 60z"/>
<path style="fill:#ffffff; stroke:none;" d="M140 70L140 90L160 90L160 80L170 80L170 70L160 70L160 80L150 80L150 70L140 70z"/>
<path style="fill:#000000; stroke:none;" d="M220 90L220 100L230 100L230 90L220 90z"/>
<path style="fill:#ffffff; stroke:none;" d="M80 110L80 120L70 120L70 130L80 130L80 140L70 140L70 150L80 150L80 140L100 140L100 120L90 120L90 110L80 110z"/>
<path style="fill:#000000; stroke:none;" d="M80 120L80 130L90 130L90 120L80 120z"/>
<path style="fill:#ffffff; stroke:none;" d="M160 120L160 130L170 130L170 140L160 140L160 150L130 150L130 140L120 140L120 130L110 130L110 140L120 140L120 150L100 150L100 170L90 170L90 180L100 180L100 200L110 200L110 210L100 210L100 230L110 230L110 240L100 240L100 250L120 250L120 240L130 240L130 230L140 230L140 220L130 220L130 210L170 210L170 180L160 180L160 170L180 170L180 150L170 150L170 140L180 140L180 120L160 120M190 120L190 130L200 130L200 120L190 120M190 140L190 150L200 150L200 140L190 140M210 140L210 150L220 150L220 140L210 140z"/>
<path style="fill:#000000; stroke:none;" d="M160 150L160 160L170 160L170 150L160 150M110 160L110 170L100 170L100 180L120 180L120 190L110 190L110 200L120 200L120 210L130 210L130 200L120 200L120 190L140 190L140 200L160 200L160 190L150 190L150 170L130 170L130 160L110 160z"/>
<path style="fill:#ffffff; stroke:none;" d="M190 160L190 170L200 170L200 160L190 160z"/>
<path style="fill:#000000; stroke:none;" d="M30 170L30 180L40 180L40 170L30 170z"/>
<path style="fill:#ffffff; stroke:none;" d="M180 180L180 210L210 210L210 180L180 180z"/>
<path style="fill:#000000; stroke:none;" d="M10 190L10 260L80 260L80 190L10 190M190 190L190 200L200 200L200 190L190 190z"/>
<path style="fill:#ffffff; stroke:none;" d="M220 190L220 200L230 200L230 190L220 190M20 200L20 250L70 250L70 200L20 200z"/>
<path style="fill:#000000; stroke:none;" d="M30 210L30 240L60 240L60 210L30 210z"/>
<path style="fill:#ffffff; stroke:none;" d="M220 210L220 220L230 220L230 210L220 210z"/>
<path style="fill:#000000; stroke:none;" d="M120 220L120 230L130 230L130 220L120 220z"/>
<path style="fill:#ffffff; stroke:none;" d="M240 230L240 240L230 240L230 250L250 250L250 230L240 230M140 240L140 250L150 250L150 240L140 240z"/>
</svg>
