<?xml version="1.0" standalone="yes"?>
<svg version="1.1" xmlns="http://www.w3.org/2000/svg" xmlns:xlink="http://www.w3.org/1999/xlink" xmlns:ev="http://www.w3.org/2001/xml-events" width="270" height="270">
<path style="fill:#ffffff; stroke:none;" d="M0 0L0 270L270 270L270 0L0 0z"/>
<path style="fill:#000000; stroke:none;" d="M10 10L10 80L80 80L80 10L10 10M100 10L100 20L90 20L90 30L100 30L100 40L90 40L90 50L110 50L110 80L120 80L120 50L130 50L130 60L140 60L140 70L130 70L130 100L140 100L140 110L120 110L120 120L110 120L110 100L120 100L120 90L70 90L70 100L60 100L60 90L10 90L10 120L20 120L20 130L10 130L10 180L20 180L20 150L30 150L30 140L20 140L20 130L40 130L40 180L80 180L80 170L90 170L90 160L100 160L100 180L90 180L90 200L100 200L100 210L90 210L90 260L100 260L100 230L110 230L110 250L120 250L120 220L130 220L130 230L140 230L140 240L130 240L130 260L140 260L140 250L150 250L150 260L160 260L160 250L190 250L190 260L260 260L260 190L240 190L240 170L230 170L230 140L240 140L240 160L250 160L250 170L260 170L260 150L250 150L250 140L260 140L260 110L250 110L250 90L240 90L240 120L250 120L250 130L230 130L230 140L220 140L220 130L190 130L190 120L200 120L200 110L210 110L210 120L230 120L230 110L210 110L210 90L200 90L200 110L190 110L190 120L180 120L180 100L190 100L190 90L170 90L170 80L180 80L180 70L170 70L170 60L160 60L160 40L140 40L140 50L130 50L130 30L170 30L170 40L180 40L180 30L170 30L170 20L180 20L180 10L170 10L170 20L120 20L120 30L110 30L110 10L100 10M190 10L190 80L260 80L260 10L190 10z"/>
<path style="fill:#ffffff; stroke:none;" d="M20 20L20 70L70 70L70 20L20 20M200 20L200 70L250 70L250 20L200 20z"/>
<path style="fill:#000000; stroke:none;" d="M30 30L30 60L60 60L60 30L30 30M210 30L210 60L240 60L240 30L210 30z"/>
<path style="fill:#ffffff; stroke:none;" d="M110 40L110 50L120 50L120 40L110 40M140 50L140 60L150 60L150 70L140 70L140 90L150 90L150 110L170 110L170 90L160 90L160 80L170 80L170 70L160 70L160 60L150 60L150 50L140 50z"/>
<path style="fill:#000000; stroke:none;" d="M90 60L90 80L100 80L100 60L90 60M150 70L150 80L160 80L160 70L150 70M220 90L220 100L230 100L230 90L220 90z"/>
<path style="fill:#ffffff; stroke:none;" d="M40 100L40 120L50 120L50 130L60 130L60 140L50 140L50 150L110 150L110 140L120 140L120 160L110 160L110 170L120 170L120 180L100 180L100 190L110 190L110 220L120 220L120 190L140 190L140 200L130 200L130 220L160 220L160 230L180 230L180 240L190 240L190 250L200 250L200 230L210 230L210 240L230 240L230 250L250 250L250 230L240 230L240 240L230 240L230 220L220 220L220 230L210 230L210 220L200 220L200 230L180 230L180 220L160 220L160 210L170 210L170 190L160 190L160 180L170 180L170 160L180 160L180 170L190 170L190 160L200 160L200 170L220 170L220 180L230 180L230 170L220 170L220 140L210 140L210 160L200 160L200 140L180 140L180 150L170 150L170 140L160 140L160 130L150 130L150 120L130 120L130 140L120 140L120 130L110 130L110 140L90 140L90 130L100 130L100 100L70 100L70 110L80 110L80 120L50 120L50 100L40 100M20 110L20 120L30 120L30 110L20 110z"/>
<path style="fill:#000000; stroke:none;" d="M80 120L80 130L70 130L70 140L80 140L80 130L90 130L90 120L80 120M130 140L130 150L140 150L140 160L130 160L130 180L140 180L140 170L150 170L150 180L160 180L160 170L150 170L150 160L170 160L170 150L150 150L150 140L130 140z"/>
<path style="fill:#ffffff; stroke:none;" d="M50 160L50 170L60 170L60 160L50 160M70 160L70 170L80 170L80 160L70 160M180 180L180 210L210 210L210 180L180 180z"/>
<path style="fill:#000000; stroke:none;" d="M10 190L10 260L80 260L80 190L10 190M190 190L190 200L200 200L200 190L190 190z"/>
<path style="fill:#ffffff; stroke:none;" d="M20 200L20 250L70 250L70 200L20 200z"/>
<path style="fill:#000000; stroke:none;" d="M150 200L150 210L160 210L160 200L150 200z"/>
<path style="fill:#ffffff; stroke:none;" d="M230 200L230 210L250 210L250 200L230 200z"/>
<path style="fill:#000000; stroke:none;" d="M30 210L30 240L60 240L60 210L30 210z"/>
<path style="fill:#ffffff; stroke:none;" d="M150 240L150 250L160 250L160 240L150 240z"/>
</svg>
