<?xml version="1.0" standalone="yes"?>
<svg version="1.1" xmlns="http://www.w3.org/2000/svg" xmlns:xlink="http://www.w3.org/1999/xlink" xmlns:ev="http://www.w3.org/2001/xml-events" width="350" height="350">
<path style="fill:#ffffff; stroke:none;" d="M0 0L0 350L350 350L350 0L0 0z"/>
<path style="fill:#000000; stroke:none;" d="M10 10L10 80L80 80L80 10L10 10M90 10L90 40L100 40L100 30L110 30L110 50L100 50L100 60L90 60L90 110L100 110L100 60L110 60L110 50L120 50L120 30L140 30L140 40L130 40L130 50L140 50L140 40L150 40L150 60L140 60L140 70L130 70L130 60L120 60L120 70L110 70L110 90L120 90L120 100L110 100L110 120L120 120L120 130L100 130L100 120L90 120L90 130L100 130L100 140L110 140L110 160L100 160L100 150L90 150L90 140L80 140L80 130L70 130L70 120L80 120L80 110L70 110L70 120L60 120L60 90L30 90L30 100L50 100L50 130L70 130L70 140L80 140L80 150L60 150L60 140L50 140L50 150L60 150L60 160L80 160L80 170L60 170L60 180L50 180L50 190L40 190L40 170L30 170L30 160L40 160L40 130L30 130L30 140L20 140L20 110L10 110L10 140L20 140L20 150L10 150L10 170L20 170L20 180L10 180L10 190L20 190L20 220L10 220L10 260L20 260L20 220L30 220L30 260L40 260L40 250L50 250L50 260L80 260L80 250L60 250L60 240L40 240L40 230L70 230L70 240L80 240L80 230L90 230L90 240L100 240L100 230L110 230L110 240L120 240L120 230L130 230L130 240L140 240L140 220L150 220L150 230L160 230L160 210L170 210L170 200L180 200L180 210L190 210L190 220L180 220L180 230L170 230L170 240L180 240L180 260L190 260L190 280L210 280L210 290L200 290L200 310L220 310L220 320L230 320L230 310L220 310L220 300L240 300L240 320L250 320L250 300L290 300L290 310L310 310L310 290L320 290L320 310L330 310L330 290L340 290L340 280L330 280L330 270L340 270L340 250L330 250L330 230L340 230L340 190L310 190L310 200L290 200L290 180L320 180L320 170L330 170L330 180L340 180L340 170L330 170L330 150L340 150L340 140L330 140L330 130L340 130L340 120L330 120L330 110L340 110L340 90L310 90L310 100L300 100L300 110L310 110L310 100L320 100L320 120L300 120L300 140L310 140L310 150L300 150L300 160L310 160L310 170L290 170L290 160L280 160L280 150L290 150L290 140L270 140L270 120L260 120L260 110L280 110L280 120L290 120L290 110L280 110L280 100L290 100L290 90L250 90L250 80L260 80L260 60L230 60L230 50L260 50L260 40L250 40L250 30L240 30L240 40L230 40L230 20L210 20L210 30L200 30L200 40L190 40L190 20L160 20L160 30L150 30L150 20L140 20L140 10L130 10L130 20L120 20L120 10L110 10L110 20L100 20L100 10L90 10M240 10L240 20L260 20L260 10L240 10M270 10L270 80L340 80L340 10L270 10z"/>
<path style="fill:#ffffff; stroke:none;" d="M20 20L20 70L70 70L70 20L20 20M110 20L110 30L120 30L120 20L110 20M280 20L280 70L330 70L330 20L280 20z"/>
<path style="fill:#000000; stroke:none;" d="M30 30L30 60L60 60L60 30L30 30z"/>
<path style="fill:#ffffff; stroke:none;" d="M170 30L170 50L160 50L160 60L150 60L150 70L140 70L140 80L130 80L130 70L120 70L120 90L140 90L140 100L130 100L130 110L140 110L140 120L130 120L130 130L140 130L140 150L130 150L130 160L140 160L140 150L150 150L150 160L160 160L160 140L170 140L170 120L180 120L180 130L190 130L190 110L200 110L200 120L210 120L210 130L200 130L200 140L190 140L190 160L200 160L200 150L210 150L210 170L220 170L220 180L200 180L200 170L190 170L190 180L180 180L180 190L190 190L190 210L200 210L200 200L210 200L210 220L190 220L190 240L210 240L210 220L220 220L220 240L230 240L230 230L240 230L240 250L230 250L230 260L220 260L220 250L200 250L200 270L210 270L210 280L220 280L220 290L210 290L210 300L220 300L220 290L240 290L240 300L250 300L250 290L240 290L240 280L230 280L230 270L240 270L240 260L250 260L250 240L260 240L260 250L290 250L290 240L280 240L280 230L300 230L300 220L260 220L260 210L270 210L270 200L260 200L260 210L250 210L250 220L230 220L230 210L240 210L240 200L250 200L250 190L240 190L240 200L230 200L230 210L220 210L220 200L210 200L210 190L230 190L230 170L220 170L220 160L230 160L230 140L250 140L250 150L240 150L240 160L260 160L260 170L270 170L270 180L260 180L260 190L270 190L270 180L280 180L280 170L270 170L270 160L260 160L260 140L250 140L250 130L230 130L230 140L220 140L220 150L210 150L210 130L220 130L220 110L200 110L200 100L230 100L230 120L250 120L250 110L260 110L260 100L250 100L250 110L240 110L240 90L190 90L190 70L200 70L200 80L210 80L210 70L220 70L220 80L230 80L230 60L220 60L220 50L230 50L230 40L220 40L220 30L210 30L210 50L200 50L200 60L190 60L190 50L180 50L180 30L170 30z"/>
<path style="fill:#000000; stroke:none;" d="M290 30L290 60L320 60L320 30L290 30M170 50L170 60L160 60L160 70L150 70L150 90L170 90L170 80L180 80L180 70L190 70L190 60L180 60L180 50L170 50z"/>
<path style="fill:#ffffff; stroke:none;" d="M170 60L170 70L160 70L160 80L170 80L170 70L180 70L180 60L170 60M240 70L240 80L250 80L250 70L240 70z"/>
<path style="fill:#000000; stroke:none;" d="M70 90L70 100L80 100L80 90L70 90M180 90L180 110L190 110L190 90L180 90M150 100L150 120L160 120L160 110L170 110L170 100L150 100M30 110L30 120L40 120L40 110L30 110z"/>
<path style="fill:#ffffff; stroke:none;" d="M310 130L310 140L320 140L320 150L330 150L330 140L320 140L320 130L310 130M20 150L20 160L30 160L30 150L20 150M80 150L80 160L90 160L90 180L110 180L110 190L100 190L100 210L90 210L90 200L70 200L70 190L80 190L80 180L70 180L70 190L60 190L60 210L50 210L50 200L40 200L40 190L30 190L30 180L20 180L20 190L30 190L30 220L70 220L70 230L80 230L80 220L70 220L70 210L90 210L90 230L100 230L100 220L110 220L110 190L120 190L120 200L130 200L130 190L120 190L120 180L110 180L110 170L100 170L100 160L90 160L90 150L80 150M170 160L170 170L160 170L160 190L150 190L150 200L140 200L140 210L130 210L130 220L140 220L140 210L150 210L150 200L170 200L170 170L180 170L180 160L170 160M140 170L140 180L150 180L150 170L140 170M240 170L240 180L250 180L250 170L240 170M320 200L320 210L310 210L310 220L320 220L320 230L310 230L310 240L300 240L300 260L330 260L330 250L310 250L310 240L320 240L320 230L330 230L330 220L320 220L320 210L330 210L330 200L320 200z"/>
<path style="fill:#000000; stroke:none;" d="M250 220L250 230L260 230L260 220L250 220M150 240L150 250L130 250L130 260L120 260L120 250L100 250L100 260L90 260L90 270L110 270L110 260L120 260L120 270L130 270L130 260L150 260L150 250L160 250L160 270L140 270L140 280L100 280L100 290L90 290L90 320L100 320L100 330L110 330L110 320L100 320L100 310L110 310L110 300L120 300L120 340L140 340L140 330L150 330L150 320L170 320L170 340L180 340L180 320L170 320L170 310L190 310L190 300L170 300L170 290L180 290L180 270L170 270L170 250L160 250L160 240L150 240M210 260L210 270L220 270L220 260L210 260z"/>
<path style="fill:#ffffff; stroke:none;" d="M260 260L260 290L290 290L290 260L260 260z"/>
<path style="fill:#000000; stroke:none;" d="M10 270L10 340L80 340L80 270L10 270z"/>
<path style="fill:#ffffff; stroke:none;" d="M160 270L160 280L150 280L150 290L170 290L170 270L160 270z"/>
<path style="fill:#000000; stroke:none;" d="M270 270L270 280L280 280L280 270L270 270z"/>
<path style="fill:#ffffff; stroke:none;" d="M20 280L20 330L70 330L70 280L20 280z"/>
<path style="fill:#000000; stroke:none;" d="M30 290L30 320L60 320L60 290L30 290z"/>
<path style="fill:#ffffff; stroke:none;" d="M130 290L130 300L140 300L140 290L130 290M150 300L150 310L140 310L140 320L130 320L130 330L140 330L140 320L150 320L150 310L160 310L160 300L150 300z"/>
<path style="fill:#000000; stroke:none;" d="M260 310L260 320L280 320L280 330L270 330L270 340L280 340L280 330L290 330L290 320L280 320L280 310L260 310M190 320L190 330L200 330L200 340L210 340L210 320L190 320M300 320L300 330L310 330L310 340L330 340L330 330L310 330L310 320L300 320M230 330L230 340L260 340L260 330L230 330z"/>
</svg>
