<?xml version="1.0" standalone="yes"?>
<svg version="1.1" xmlns="http://www.w3.org/2000/svg" xmlns:xlink="http://www.w3.org/1999/xlink" xmlns:ev="http://www.w3.org/2001/xml-events" width="310" height="310">
<path style="fill:#ffffff; stroke:none;" d="M0 0L0 310L310 310L310 0L0 0z"/>
<path style="fill:#000000; stroke:none;" d="M10 10L10 80L80 80L80 10L10 10M90 10L90 40L120 40L120 30L110 30L110 20L130 20L130 40L140 40L140 50L120 50L120 60L110 60L110 50L100 50L100 60L90 60L90 100L80 100L80 90L70 90L70 100L80 100L80 110L70 110L70 120L60 120L60 110L50 110L50 100L60 100L60 90L30 90L30 100L10 100L10 130L20 130L20 140L10 140L10 160L20 160L20 180L10 180L10 220L20 220L20 190L30 190L30 180L40 180L40 190L50 190L50 180L40 180L40 170L50 170L50 120L60 120L60 130L70 130L70 140L60 140L60 160L80 160L80 170L60 170L60 180L80 180L80 190L70 190L70 200L50 200L50 210L70 210L70 220L80 220L80 210L100 210L100 220L90 220L90 230L100 230L100 220L110 220L110 240L100 240L100 250L90 250L90 280L100 280L100 270L120 270L120 250L130 250L130 260L140 260L140 270L130 270L130 290L120 290L120 280L110 280L110 290L100 290L100 300L110 300L110 290L120 290L120 300L150 300L150 290L140 290L140 280L150 280L150 260L160 260L160 300L170 300L170 260L160 260L160 240L190 240L190 230L180 230L180 220L200 220L200 250L190 250L190 260L180 260L180 270L200 270L200 280L180 280L180 290L190 290L190 300L210 300L210 290L220 290L220 280L210 280L210 270L220 270L220 260L240 260L240 270L230 270L230 300L240 300L240 270L250 270L250 300L280 300L280 290L290 290L290 270L250 270L250 260L290 260L290 250L270 250L270 240L260 240L260 230L270 230L270 220L280 220L280 210L300 210L300 200L280 200L280 210L270 210L270 190L300 190L300 180L290 180L290 170L300 170L300 160L280 160L280 170L270 170L270 160L260 160L260 180L250 180L250 170L240 170L240 140L230 140L230 130L240 130L240 100L250 100L250 120L260 120L260 130L270 130L270 140L250 140L250 150L270 150L270 140L290 140L290 150L300 150L300 130L290 130L290 120L280 120L280 130L270 130L270 120L260 120L260 110L270 110L270 100L290 100L290 110L300 110L300 90L270 90L270 100L250 100L250 90L220 90L220 60L210 60L210 40L220 40L220 30L210 30L210 20L220 20L220 10L210 10L210 20L200 20L200 10L170 10L170 20L160 20L160 10L150 10L150 30L140 30L140 20L130 20L130 10L90 10M230 10L230 80L300 80L300 10L230 10z"/>
<path style="fill:#ffffff; stroke:none;" d="M20 20L20 70L70 70L70 20L20 20M190 20L190 30L170 30L170 60L160 60L160 50L150 50L150 70L140 70L140 80L130 80L130 60L120 60L120 80L110 80L110 60L100 60L100 90L110 90L110 100L100 100L100 110L90 110L90 120L110 120L110 100L130 100L130 110L120 110L120 120L130 120L130 130L120 130L120 150L110 150L110 160L100 160L100 180L130 180L130 200L120 200L120 190L80 190L80 200L70 200L70 210L80 210L80 200L100 200L100 210L110 210L110 220L120 220L120 230L130 230L130 240L140 240L140 260L150 260L150 240L160 240L160 210L170 210L170 220L180 220L180 200L190 200L190 210L200 210L200 220L210 220L210 210L230 210L230 190L200 190L200 180L240 180L240 170L200 170L200 160L210 160L210 150L200 150L200 140L210 140L210 130L190 130L190 120L210 120L210 110L220 110L220 130L230 130L230 110L220 110L220 90L200 90L200 80L210 80L210 60L200 60L200 80L190 80L190 50L200 50L200 40L190 40L190 30L200 30L200 20L190 20M240 20L240 70L290 70L290 20L240 20z"/>
<path style="fill:#000000; stroke:none;" d="M30 30L30 60L60 60L60 30L30 30M250 30L250 60L280 60L280 30L250 30M180 40L180 50L190 50L190 40L180 40M150 70L150 90L140 90L140 100L150 100L150 110L170 110L170 100L180 100L180 90L170 90L170 80L180 80L180 70L170 70L170 80L160 80L160 70L150 70z"/>
<path style="fill:#ffffff; stroke:none;" d="M150 90L150 100L160 100L160 90L150 90z"/>
<path style="fill:#000000; stroke:none;" d="M190 90L190 100L200 100L200 90L190 90z"/>
<path style="fill:#ffffff; stroke:none;" d="M40 110L40 120L50 120L50 110L40 110z"/>
<path style="fill:#000000; stroke:none;" d="M180 110L180 120L170 120L170 130L160 130L160 120L150 120L150 130L140 130L140 140L150 140L150 130L160 130L160 150L150 150L150 160L140 160L140 170L130 170L130 160L110 160L110 170L130 170L130 180L150 180L150 190L140 190L140 200L150 200L150 190L170 190L170 200L180 200L180 180L200 180L200 170L170 170L170 160L160 160L160 150L180 150L180 160L190 160L190 140L170 140L170 130L180 130L180 120L190 120L190 110L180 110z"/>
<path style="fill:#ffffff; stroke:none;" d="M70 120L70 130L80 130L80 120L70 120M30 130L30 140L20 140L20 160L40 160L40 130L30 130M90 130L90 140L70 140L70 150L90 150L90 140L110 140L110 130L90 130M220 150L220 160L230 160L230 150L220 150M80 170L80 180L90 180L90 170L80 170M150 170L150 180L160 180L160 170L150 170M260 180L260 190L270 190L270 180L260 180z"/>
<path style="fill:#000000; stroke:none;" d="M190 190L190 200L200 200L200 210L210 210L210 200L200 200L200 190L190 190z"/>
<path style="fill:#ffffff; stroke:none;" d="M240 190L240 200L250 200L250 190L240 190z"/>
<path style="fill:#000000; stroke:none;" d="M30 200L30 220L40 220L40 200L30 200M130 210L130 230L140 230L140 240L150 240L150 220L140 220L140 210L130 210z"/>
<path style="fill:#ffffff; stroke:none;" d="M220 220L220 250L250 250L250 220L220 220z"/>
<path style="fill:#000000; stroke:none;" d="M290 220L290 230L300 230L300 220L290 220M10 230L10 300L80 300L80 230L10 230M230 230L230 240L240 240L240 230L230 230z"/>
<path style="fill:#ffffff; stroke:none;" d="M20 240L20 290L70 290L70 240L20 240z"/>
<path style="fill:#000000; stroke:none;" d="M30 250L30 280L60 280L60 250L30 250z"/>
<path style="fill:#ffffff; stroke:none;" d="M200 250L200 260L210 260L210 250L200 250M270 280L270 290L280 290L280 280L270 280z"/>
</svg>
