<?xml version="1.0" standalone="yes"?>
<svg version="1.1" xmlns="http://www.w3.org/2000/svg" xmlns:xlink="http://www.w3.org/1999/xlink" xmlns:ev="http://www.w3.org/2001/xml-events" width="310" height="310">
<path style="fill:#ffffff; stroke:none;" d="M0 0L0 310L310 310L310 0L0 0z"/>
<path style="fill:#000000; stroke:none;" d="M10 10L10 80L80 80L80 10L10 10M90 10L90 20L100 20L100 30L120 30L120 40L110 40L110 50L100 50L100 40L90 40L90 50L100 50L100 60L110 60L110 80L100 80L100 70L90 70L90 80L100 80L100 90L90 90L90 110L70 110L70 100L80 100L80 90L50 90L50 100L40 100L40 90L30 90L30 100L10 100L10 110L30 110L30 120L10 120L10 130L20 130L20 140L10 140L10 150L20 150L20 170L30 170L30 180L20 180L20 190L10 190L10 200L20 200L20 210L10 210L10 220L20 220L20 210L30 210L30 220L40 220L40 190L30 190L30 180L50 180L50 190L60 190L60 170L70 170L70 180L90 180L90 200L80 200L80 190L70 190L70 200L60 200L60 210L50 210L50 220L80 220L80 210L90 210L90 200L100 200L100 220L90 220L90 230L100 230L100 240L90 240L90 260L100 260L100 270L90 270L90 280L100 280L100 290L110 290L110 280L100 280L100 270L120 270L120 300L130 300L130 290L160 290L160 300L170 300L170 290L190 290L190 280L200 280L200 300L210 300L210 280L220 280L220 270L210 270L210 260L250 260L250 280L230 280L230 290L250 290L250 300L260 300L260 290L250 290L250 280L260 280L260 270L270 270L270 250L260 250L260 220L270 220L270 210L240 210L240 200L250 200L250 180L270 180L270 190L260 190L260 200L270 200L270 190L280 190L280 200L300 200L300 180L290 180L290 170L300 170L300 140L280 140L280 150L270 150L270 160L280 160L280 180L270 180L270 170L260 170L260 160L240 160L240 150L250 150L250 140L240 140L240 120L230 120L230 90L210 90L210 100L200 100L200 120L180 120L180 130L200 130L200 140L180 140L180 150L170 150L170 140L160 140L160 130L170 130L170 100L180 100L180 90L170 90L170 80L180 80L180 60L190 60L190 80L200 80L200 70L210 70L210 80L220 80L220 70L210 70L210 40L220 40L220 10L210 10L210 20L200 20L200 30L210 30L210 40L190 40L190 50L180 50L180 30L190 30L190 10L180 10L180 20L170 20L170 50L160 50L160 40L140 40L140 30L130 30L130 20L120 20L120 10L90 10M140 10L140 20L150 20L150 30L160 30L160 10L140 10M230 10L230 80L300 80L300 10L230 10z"/>
<path style="fill:#ffffff; stroke:none;" d="M20 20L20 70L70 70L70 20L20 20M240 20L240 70L290 70L290 20L240 20z"/>
<path style="fill:#000000; stroke:none;" d="M30 30L30 60L60 60L60 30L30 30M250 30L250 60L280 60L280 30L250 30z"/>
<path style="fill:#ffffff; stroke:none;" d="M120 50L120 60L140 60L140 80L130 80L130 70L120 70L120 80L110 80L110 90L120 90L120 100L110 100L110 120L100 120L100 110L90 110L90 120L70 120L70 110L50 110L50 120L30 120L30 140L20 140L20 150L60 150L60 130L80 130L80 140L70 140L70 150L80 150L80 160L70 160L70 170L80 170L80 160L110 160L110 150L100 150L100 140L110 140L110 130L120 130L120 170L110 170L110 180L100 180L100 200L110 200L110 220L120 220L120 230L140 230L140 210L150 210L150 220L160 220L160 190L150 190L150 180L160 180L160 170L180 170L180 200L170 200L170 220L190 220L190 230L180 230L180 240L170 240L170 230L150 230L150 240L140 240L140 260L130 260L130 240L120 240L120 270L140 270L140 260L150 260L150 240L160 240L160 290L170 290L170 280L180 280L180 270L190 270L190 260L180 260L180 250L200 250L200 260L210 260L210 240L190 240L190 230L200 230L200 220L210 220L210 210L230 210L230 200L240 200L240 180L250 180L250 170L240 170L240 160L230 160L230 150L210 150L210 140L200 140L200 160L220 160L220 170L200 170L200 180L210 180L210 190L200 190L200 200L210 200L210 210L180 210L180 200L190 200L190 170L180 170L180 160L160 160L160 140L140 140L140 130L130 130L130 120L120 120L120 100L130 100L130 90L140 90L140 120L150 120L150 130L160 130L160 120L150 120L150 100L160 100L160 80L170 80L170 60L160 60L160 50L120 50z"/>
<path style="fill:#000000; stroke:none;" d="M150 60L150 80L160 80L160 60L150 60M120 80L120 90L130 90L130 80L120 80M260 90L260 100L250 100L250 110L260 110L260 100L270 100L270 110L280 110L280 130L290 130L290 120L300 120L300 90L290 90L290 110L280 110L280 100L270 100L270 90L260 90z"/>
<path style="fill:#ffffff; stroke:none;" d="M200 120L200 130L210 130L210 120L200 120M220 120L220 140L230 140L230 120L220 120z"/>
<path style="fill:#000000; stroke:none;" d="M250 120L250 130L260 130L260 120L250 120M40 130L40 140L50 140L50 130L40 130M140 150L140 160L130 160L130 170L120 170L120 180L130 180L130 170L150 170L150 150L140 150z"/>
<path style="fill:#ffffff; stroke:none;" d="M280 150L280 160L290 160L290 150L280 150M30 160L30 170L50 170L50 160L30 160z"/>
<path style="fill:#000000; stroke:none;" d="M230 170L230 180L240 180L240 170L230 170z"/>
<path style="fill:#ffffff; stroke:none;" d="M20 190L20 200L30 200L30 190L20 190z"/>
<path style="fill:#000000; stroke:none;" d="M120 190L120 200L130 200L130 210L120 210L120 220L130 220L130 210L140 210L140 200L150 200L150 190L140 190L140 200L130 200L130 190L120 190M220 190L220 200L230 200L230 190L220 190z"/>
<path style="fill:#ffffff; stroke:none;" d="M70 200L70 210L80 210L80 200L70 200z"/>
<path style="fill:#000000; stroke:none;" d="M290 210L290 220L280 220L280 230L270 230L270 240L300 240L300 210L290 210z"/>
<path style="fill:#ffffff; stroke:none;" d="M220 220L220 250L250 250L250 220L220 220z"/>
<path style="fill:#000000; stroke:none;" d="M10 230L10 300L80 300L80 230L10 230M230 230L230 240L240 240L240 230L230 230z"/>
<path style="fill:#ffffff; stroke:none;" d="M20 240L20 290L70 290L70 240L20 240M100 240L100 250L110 250L110 240L100 240z"/>
<path style="fill:#000000; stroke:none;" d="M30 250L30 280L60 280L60 250L30 250M290 250L290 260L300 260L300 250L290 250M290 270L290 280L280 280L280 300L300 300L300 290L290 290L290 280L300 280L300 270L290 270z"/>
</svg>
