<?xml version="1.0" standalone="yes"?>
<svg version="1.1" xmlns="http://www.w3.org/2000/svg" xmlns:xlink="http://www.w3.org/1999/xlink" xmlns:ev="http://www.w3.org/2001/xml-events" width="310" height="310">
<path style="fill:#ffffff; stroke:none;" d="M0 0L0 310L310 310L310 0L0 0z"/>
<path style="fill:#000000; stroke:none;" d="M10 10L10 80L80 80L80 10L10 10M110 10L110 20L130 20L130 40L110 40L110 50L100 50L100 60L90 60L90 90L50 90L50 100L90 100L90 110L110 110L110 120L100 120L100 130L90 130L90 140L80 140L80 130L70 130L70 120L80 120L80 110L70 110L70 120L60 120L60 140L50 140L50 150L40 150L40 140L30 140L30 130L50 130L50 120L40 120L40 100L30 100L30 110L20 110L20 100L10 100L10 110L20 110L20 120L10 120L10 140L30 140L30 160L20 160L20 150L10 150L10 190L30 190L30 200L50 200L50 220L80 220L80 210L60 210L60 180L90 180L90 190L70 190L70 200L90 200L90 190L130 190L130 180L140 180L140 210L130 210L130 220L110 220L110 210L120 210L120 200L100 200L100 210L90 210L90 260L100 260L100 270L110 270L110 260L100 260L100 250L120 250L120 260L130 260L130 250L140 250L140 270L130 270L130 300L140 300L140 290L150 290L150 300L160 300L160 290L150 290L150 280L140 280L140 270L150 270L150 250L160 250L160 240L170 240L170 260L180 260L180 280L210 280L210 270L220 270L220 280L230 280L230 260L240 260L240 290L190 290L190 300L240 300L240 290L250 290L250 300L270 300L270 280L280 280L280 300L290 300L290 290L300 290L300 270L290 270L290 250L300 250L300 220L290 220L290 210L300 210L300 170L290 170L290 160L300 160L300 100L290 100L290 90L280 90L280 100L270 100L270 110L290 110L290 120L280 120L280 130L290 130L290 140L270 140L270 150L290 150L290 160L280 160L280 180L270 180L270 190L260 190L260 180L250 180L250 170L270 170L270 160L260 160L260 140L250 140L250 150L240 150L240 140L230 140L230 160L240 160L240 180L230 180L230 190L250 190L250 210L220 210L220 200L210 200L210 180L220 180L220 160L210 160L210 170L200 170L200 150L190 150L190 140L210 140L210 130L200 130L200 110L210 110L210 120L220 120L220 100L210 100L210 90L220 90L220 70L210 70L210 60L190 60L190 80L180 80L180 70L170 70L170 100L130 100L130 90L160 90L160 60L180 60L180 50L160 50L160 60L150 60L150 30L160 30L160 40L170 40L170 30L160 30L160 20L180 20L180 40L190 40L190 50L210 50L210 40L220 40L220 20L210 20L210 10L190 10L190 20L180 20L180 10L150 10L150 30L140 30L140 10L110 10M230 10L230 80L300 80L300 10L230 10z"/>
<path style="fill:#ffffff; stroke:none;" d="M20 20L20 70L70 70L70 20L20 20z"/>
<path style="fill:#000000; stroke:none;" d="M90 20L90 30L100 30L100 20L90 20z"/>
<path style="fill:#ffffff; stroke:none;" d="M200 20L200 30L190 30L190 40L200 40L200 30L210 30L210 20L200 20M240 20L240 70L290 70L290 20L240 20z"/>
<path style="fill:#000000; stroke:none;" d="M30 30L30 60L60 60L60 30L30 30M250 30L250 60L280 60L280 30L250 30z"/>
<path style="fill:#ffffff; stroke:none;" d="M100 60L100 80L110 80L110 90L90 90L90 100L120 100L120 110L130 110L130 120L110 120L110 130L100 130L100 150L90 150L90 160L70 160L70 150L80 150L80 140L60 140L60 160L50 160L50 170L40 170L40 180L30 180L30 190L50 190L50 180L60 180L60 170L90 170L90 180L100 180L100 150L110 150L110 130L120 130L120 150L130 150L130 140L140 140L140 150L150 150L150 160L120 160L120 170L110 170L110 180L120 180L120 170L150 170L150 180L160 180L160 190L170 190L170 200L150 200L150 210L140 210L140 220L130 220L130 230L110 230L110 240L140 240L140 250L150 250L150 240L160 240L160 230L170 230L170 210L180 210L180 220L190 220L190 210L200 210L200 220L210 220L210 210L200 210L200 200L190 200L190 210L180 210L180 190L170 190L170 180L160 180L160 150L150 150L150 130L160 130L160 110L150 110L150 130L140 130L140 110L130 110L130 100L120 100L120 80L130 80L130 60L120 60L120 80L110 80L110 60L100 60M140 60L140 80L150 80L150 60L140 60M200 70L200 90L210 90L210 70L200 70M180 90L180 100L170 100L170 110L180 110L180 140L170 140L170 160L180 160L180 170L190 170L190 190L200 190L200 170L190 170L190 150L180 150L180 140L190 140L190 110L200 110L200 100L190 100L190 90L180 90z"/>
<path style="fill:#000000; stroke:none;" d="M230 90L230 110L240 110L240 130L250 130L250 120L260 120L260 130L270 130L270 120L260 120L260 100L250 100L250 90L230 90M180 100L180 110L190 110L190 100L180 100z"/>
<path style="fill:#ffffff; stroke:none;" d="M280 180L280 190L270 190L270 200L260 200L260 210L270 210L270 220L260 220L260 240L270 240L270 250L260 250L260 260L250 260L250 290L260 290L260 280L270 280L270 270L280 270L280 250L290 250L290 220L280 220L280 200L290 200L290 180L280 180z"/>
<path style="fill:#000000; stroke:none;" d="M10 210L10 220L30 220L30 210L10 210M150 210L150 220L160 220L160 210L150 210z"/>
<path style="fill:#ffffff; stroke:none;" d="M220 220L220 250L250 250L250 220L220 220z"/>
<path style="fill:#000000; stroke:none;" d="M270 220L270 230L280 230L280 220L270 220M10 230L10 300L80 300L80 230L10 230M140 230L140 240L150 240L150 230L140 230z"/>
<path style="fill:#ffffff; stroke:none;" d="M190 230L190 240L200 240L200 230L190 230z"/>
<path style="fill:#000000; stroke:none;" d="M230 230L230 240L240 240L240 230L230 230z"/>
<path style="fill:#ffffff; stroke:none;" d="M20 240L20 290L70 290L70 240L20 240z"/>
<path style="fill:#000000; stroke:none;" d="M30 250L30 280L60 280L60 250L30 250z"/>
<path style="fill:#ffffff; stroke:none;" d="M180 250L180 260L190 260L190 270L210 270L210 260L200 260L200 250L180 250z"/>
<path style="fill:#000000; stroke:none;" d="M100 280L100 300L120 300L120 290L110 290L110 280L100 280M170 290L170 300L180 300L180 290L170 290z"/>
</svg>
