<?xml version="1.0" standalone="yes"?>
<svg version="1.1" xmlns="http://www.w3.org/2000/svg" xmlns:xlink="http://www.w3.org/1999/xlink" xmlns:ev="http://www.w3.org/2001/xml-events" width="310" height="310">
<path style="fill:#ffffff; stroke:none;" d="M0 0L0 310L310 310L310 0L0 0z"/>
<path style="fill:#000000; stroke:none;" d="M10 10L10 80L80 80L80 10L10 10M90 10L90 40L110 40L110 50L100 50L100 60L90 60L90 100L100 100L100 90L110 90L110 80L120 80L120 90L130 90L130 100L110 100L110 120L120 120L120 130L130 130L130 140L140 140L140 130L150 130L150 140L160 140L160 160L150 160L150 170L140 170L140 160L110 160L110 150L100 150L100 140L110 140L110 130L100 130L100 120L90 120L90 110L70 110L70 120L60 120L60 110L50 110L50 100L60 100L60 90L30 90L30 100L40 100L40 110L30 110L30 120L50 120L50 130L60 130L60 140L80 140L80 150L70 150L70 160L80 160L80 170L70 170L70 180L60 180L60 150L50 150L50 160L30 160L30 150L20 150L20 140L40 140L40 130L20 130L20 100L10 100L10 130L20 130L20 140L10 140L10 170L40 170L40 190L30 190L30 180L10 180L10 220L20 220L20 190L30 190L30 220L60 220L60 210L70 210L70 220L80 220L80 210L90 210L90 230L100 230L100 220L110 220L110 230L130 230L130 220L140 220L140 210L130 210L130 180L120 180L120 170L140 170L140 180L170 180L170 210L160 210L160 200L150 200L150 230L160 230L160 220L170 220L170 250L180 250L180 280L170 280L170 290L160 290L160 270L170 270L170 260L160 260L160 270L150 270L150 260L140 260L140 270L150 270L150 290L140 290L140 280L120 280L120 270L130 270L130 250L150 250L150 240L110 240L110 250L90 250L90 280L100 280L100 270L110 270L110 280L120 280L120 290L100 290L100 300L120 300L120 290L130 290L130 300L190 300L190 290L180 290L180 280L190 280L190 230L180 230L180 220L170 220L170 210L190 210L190 220L200 220L200 210L210 210L210 230L200 230L200 250L210 250L210 260L200 260L200 300L210 300L210 290L220 290L220 280L230 280L230 300L240 300L240 270L250 270L250 300L260 300L260 290L270 290L270 300L280 300L280 290L290 290L290 270L280 270L280 250L270 250L270 240L260 240L260 230L270 230L270 220L280 220L280 230L300 230L300 220L280 220L280 210L300 210L300 200L280 200L280 210L270 210L270 220L260 220L260 200L270 200L270 180L280 180L280 190L300 190L300 160L280 160L280 170L270 170L270 160L260 160L260 180L250 180L250 170L240 170L240 140L230 140L230 130L240 130L240 100L250 100L250 110L270 110L270 100L290 100L290 110L300 110L300 90L270 90L270 100L250 100L250 90L220 90L220 50L210 50L210 40L220 40L220 30L210 30L210 20L220 20L220 10L210 10L210 20L200 20L200 10L190 10L190 20L180 20L180 30L170 30L170 40L180 40L180 50L190 50L190 40L200 40L200 60L190 60L190 80L200 80L200 60L210 60L210 90L220 90L220 110L210 110L210 120L200 120L200 110L190 110L190 120L180 120L180 100L170 100L170 90L180 90L180 70L170 70L170 60L160 60L160 50L140 50L140 40L130 40L130 30L140 30L140 20L170 20L170 10L140 10L140 20L130 20L130 10L90 10M230 10L230 80L300 80L300 10L230 10z"/>
<path style="fill:#ffffff; stroke:none;" d="M20 20L20 70L70 70L70 20L20 20M110 20L110 40L120 40L120 50L110 50L110 60L100 60L100 80L110 80L110 70L120 70L120 80L130 80L130 70L140 70L140 90L150 90L150 110L160 110L160 130L170 130L170 110L160 110L160 90L170 90L170 70L160 70L160 90L150 90L150 70L140 70L140 50L130 50L130 40L120 40L120 20L110 20M240 20L240 70L290 70L290 20L240 20z"/>
<path style="fill:#000000; stroke:none;" d="M30 30L30 60L60 60L60 30L30 30M150 30L150 40L160 40L160 30L150 30z"/>
<path style="fill:#ffffff; stroke:none;" d="M180 30L180 40L190 40L190 30L180 30z"/>
<path style="fill:#000000; stroke:none;" d="M250 30L250 60L280 60L280 30L250 30M120 50L120 60L130 60L130 50L120 50M70 90L70 100L80 100L80 90L70 90M190 90L190 100L200 100L200 90L190 90z"/>
<path style="fill:#ffffff; stroke:none;" d="M120 110L120 120L130 120L130 110L120 110M220 110L220 130L230 130L230 110L220 110M70 120L70 130L90 130L90 120L70 120z"/>
<path style="fill:#000000; stroke:none;" d="M250 120L250 130L260 130L260 140L250 140L250 150L270 150L270 140L290 140L290 150L300 150L300 130L290 130L290 120L280 120L280 130L270 130L270 120L250 120z"/>
<path style="fill:#ffffff; stroke:none;" d="M180 130L180 140L170 140L170 150L180 150L180 140L210 140L210 130L180 130M80 150L80 160L100 160L100 150L80 150M190 150L190 170L200 170L200 180L180 180L180 160L160 160L160 170L170 170L170 180L180 180L180 190L200 190L200 200L210 200L210 210L230 210L230 190L200 190L200 180L240 180L240 170L210 170L210 160L230 160L230 150L190 150M80 170L80 180L70 180L70 190L80 190L80 180L110 180L110 200L100 200L100 190L90 190L90 210L110 210L110 220L120 220L120 210L110 210L110 200L120 200L120 180L110 180L110 170L80 170M280 170L280 180L290 180L290 170L280 170M40 190L40 200L50 200L50 210L60 210L60 200L50 200L50 190L40 190M240 190L240 200L260 200L260 190L240 190M70 200L70 210L80 210L80 200L70 200M220 220L220 250L250 250L250 220L220 220z"/>
<path style="fill:#000000; stroke:none;" d="M10 230L10 300L80 300L80 230L10 230M230 230L230 240L240 240L240 230L230 230z"/>
<path style="fill:#ffffff; stroke:none;" d="M20 240L20 290L70 290L70 240L20 240z"/>
<path style="fill:#000000; stroke:none;" d="M30 250L30 280L60 280L60 250L30 250z"/>
<path style="fill:#ffffff; stroke:none;" d="M110 250L110 270L120 270L120 250L110 250M210 260L210 280L220 280L220 270L240 270L240 260L210 260M250 260L250 270L260 270L260 260L250 260M270 270L270 290L280 290L280 270L270 270z"/>
</svg>
