<?xml version="1.0" standalone="yes"?>
<svg version="1.1" xmlns="http://www.w3.org/2000/svg" xmlns:xlink="http://www.w3.org/1999/xlink" xmlns:ev="http://www.w3.org/2001/xml-events" width="350" height="350">
<path style="fill:#ffffff; stroke:none;" d="M0 0L0 350L350 350L350 0L0 0z"/>
<path style="fill:#000000; stroke:none;" d="M10 10L10 80L80 80L80 10L10 10M90 10L90 40L100 40L100 50L110 50L110 40L130 40L130 50L140 50L140 70L130 70L130 60L120 60L120 70L110 70L110 80L120 80L120 70L130 70L130 80L140 80L140 70L150 70L150 80L160 80L160 90L170 90L170 100L180 100L180 110L160 110L160 100L150 100L150 120L160 120L160 130L180 130L180 140L200 140L200 130L210 130L210 140L230 140L230 160L210 160L210 150L200 150L200 160L210 160L210 170L230 170L230 180L240 180L240 190L230 190L230 200L220 200L220 180L210 180L210 190L200 190L200 170L180 170L180 180L170 180L170 190L180 190L180 200L150 200L150 190L160 190L160 160L150 160L150 150L140 150L140 160L150 160L150 190L140 190L140 180L130 180L130 170L120 170L120 160L110 160L110 150L130 150L130 120L140 120L140 110L130 110L130 100L140 100L140 90L100 90L100 60L90 60L90 100L80 100L80 90L70 90L70 100L80 100L80 110L60 110L60 90L30 90L30 100L10 100L10 150L20 150L20 170L10 170L10 190L20 190L20 220L10 220L10 260L20 260L20 220L50 220L50 230L40 230L40 250L30 250L30 260L40 260L40 250L50 250L50 260L60 260L60 230L70 230L70 240L80 240L80 250L70 250L70 260L90 260L90 270L110 270L110 260L90 260L90 250L100 250L100 240L110 240L110 250L120 250L120 240L110 240L110 230L130 230L130 240L140 240L140 250L150 250L150 260L160 260L160 270L140 270L140 260L120 260L120 270L140 270L140 290L130 290L130 280L100 280L100 290L90 290L90 320L100 320L100 340L110 340L110 320L140 320L140 340L150 340L150 320L160 320L160 330L170 330L170 340L180 340L180 320L160 320L160 310L130 310L130 300L160 300L160 290L170 290L170 310L190 310L190 340L270 340L270 330L250 330L250 300L290 300L290 310L310 310L310 290L320 290L320 310L330 310L330 290L340 290L340 280L330 280L330 270L340 270L340 240L330 240L330 230L340 230L340 190L310 190L310 200L300 200L300 210L290 210L290 220L300 220L300 230L290 230L290 250L260 250L260 240L250 240L250 260L240 260L240 270L230 270L230 280L240 280L240 290L220 290L220 300L210 300L210 280L200 280L200 270L220 270L220 260L230 260L230 250L240 250L240 230L230 230L230 240L220 240L220 220L210 220L210 200L220 200L220 210L230 210L230 220L250 220L250 230L260 230L260 220L280 220L280 200L290 200L290 180L320 180L320 170L330 170L330 180L340 180L340 170L330 170L330 150L340 150L340 140L330 140L330 110L340 110L340 90L310 90L310 100L300 100L300 130L320 130L320 140L310 140L310 150L300 150L300 160L310 160L310 170L290 170L290 160L280 160L280 150L290 150L290 140L270 140L270 130L280 130L280 120L290 120L290 110L280 110L280 100L290 100L290 90L250 90L250 80L260 80L260 60L230 60L230 50L260 50L260 40L250 40L250 30L240 30L240 40L230 40L230 30L220 30L220 20L230 20L230 10L220 10L220 20L200 20L200 30L190 30L190 50L170 50L170 30L160 30L160 50L140 50L140 40L150 40L150 30L140 30L140 10L130 10L130 30L120 30L120 20L110 20L110 10L90 10M160 10L160 20L190 20L190 10L160 10M240 10L240 20L260 20L260 10L240 10M270 10L270 80L340 80L340 10L270 10z"/>
<path style="fill:#ffffff; stroke:none;" d="M20 20L20 70L70 70L70 20L20 20M280 20L280 70L330 70L330 20L280 20z"/>
<path style="fill:#000000; stroke:none;" d="M30 30L30 60L60 60L60 30L30 30z"/>
<path style="fill:#ffffff; stroke:none;" d="M100 30L100 40L110 40L110 30L100 30M130 30L130 40L140 40L140 30L130 30M200 30L200 40L210 40L210 50L190 50L190 60L200 60L200 80L210 80L210 70L220 70L220 80L230 80L230 60L220 60L220 50L230 50L230 40L210 40L210 30L200 30z"/>
<path style="fill:#000000; stroke:none;" d="M290 30L290 60L320 60L320 30L290 30z"/>
<path style="fill:#ffffff; stroke:none;" d="M160 50L160 60L150 60L150 70L160 70L160 80L170 80L170 90L180 90L180 80L190 80L190 70L180 70L180 60L170 60L170 50L160 50z"/>
<path style="fill:#000000; stroke:none;" d="M160 60L160 70L170 70L170 80L180 80L180 70L170 70L170 60L160 60z"/>
<path style="fill:#ffffff; stroke:none;" d="M240 70L240 80L250 80L250 70L240 70M200 90L200 100L190 100L190 110L180 110L180 130L190 130L190 110L200 110L200 120L210 120L210 130L220 130L220 120L210 120L210 100L230 100L230 120L250 120L250 110L260 110L260 130L230 130L230 140L250 140L250 150L240 150L240 180L250 180L250 150L270 150L270 140L260 140L260 130L270 130L270 120L280 120L280 110L260 110L260 100L250 100L250 110L240 110L240 90L200 90M40 100L40 110L20 110L20 120L40 120L40 160L30 160L30 170L50 170L50 160L70 160L70 170L80 170L80 160L90 160L90 190L80 190L80 180L60 180L60 210L50 210L50 200L40 200L40 210L50 210L50 220L70 220L70 230L80 230L80 240L100 240L100 230L110 230L110 220L120 220L120 210L100 210L100 200L110 200L110 190L100 190L100 180L120 180L120 170L100 170L100 160L90 160L90 150L100 150L100 130L120 130L120 120L110 120L110 110L120 110L120 100L100 100L100 130L80 130L80 120L90 120L90 110L80 110L80 120L70 120L70 130L50 130L50 120L40 120L40 110L50 110L50 100L40 100M320 100L320 110L330 110L330 100L320 100z"/>
<path style="fill:#000000; stroke:none;" d="M70 130L70 140L80 140L80 150L70 150L70 160L80 160L80 150L90 150L90 140L80 140L80 130L70 130z"/>
<path style="fill:#ffffff; stroke:none;" d="M20 140L20 150L30 150L30 140L20 140z"/>
<path style="fill:#000000; stroke:none;" d="M50 140L50 150L60 150L60 140L50 140M160 140L160 150L170 150L170 140L160 140z"/>
<path style="fill:#ffffff; stroke:none;" d="M320 140L320 150L330 150L330 140L320 140M260 160L260 170L270 170L270 180L260 180L260 190L270 190L270 180L280 180L280 170L270 170L270 160L260 160z"/>
<path style="fill:#000000; stroke:none;" d="M70 190L70 200L80 200L80 190L70 190z"/>
<path style="fill:#ffffff; stroke:none;" d="M120 190L120 200L130 200L130 220L140 220L140 200L130 200L130 190L120 190M240 190L240 200L250 200L250 190L240 190M180 200L180 210L170 210L170 220L160 220L160 210L150 210L150 230L160 230L160 250L190 250L190 260L170 260L170 270L180 270L180 280L170 280L170 290L180 290L180 300L190 300L190 310L200 310L200 320L210 320L210 330L220 330L220 320L240 320L240 300L250 300L250 290L240 290L240 300L220 300L220 310L200 310L200 280L190 280L190 270L200 270L200 260L210 260L210 250L200 250L200 240L210 240L210 220L190 220L190 230L200 230L200 240L170 240L170 230L180 230L180 210L190 210L190 200L180 200M260 200L260 210L250 210L250 220L260 220L260 210L270 210L270 200L260 200M320 200L320 210L310 210L310 220L320 220L320 230L330 230L330 220L320 220L320 210L330 210L330 200L320 200z"/>
<path style="fill:#000000; stroke:none;" d="M70 210L70 220L90 220L90 230L100 230L100 220L90 220L90 210L70 210z"/>
<path style="fill:#ffffff; stroke:none;" d="M300 230L300 240L310 240L310 230L300 230M320 240L320 250L300 250L300 270L310 270L310 280L320 280L320 290L330 290L330 280L320 280L320 270L330 270L330 240L320 240M260 260L260 290L290 290L290 260L260 260z"/>
<path style="fill:#000000; stroke:none;" d="M310 260L310 270L320 270L320 260L310 260M10 270L10 340L80 340L80 270L10 270M270 270L270 280L280 280L280 270L270 270z"/>
<path style="fill:#ffffff; stroke:none;" d="M20 280L20 330L70 330L70 280L20 280M150 280L150 290L160 290L160 280L150 280z"/>
<path style="fill:#000000; stroke:none;" d="M30 290L30 320L60 320L60 290L30 290z"/>
<path style="fill:#ffffff; stroke:none;" d="M110 300L110 310L120 310L120 300L110 300z"/>
<path style="fill:#000000; stroke:none;" d="M260 310L260 320L280 320L280 330L290 330L290 320L280 320L280 310L260 310M300 320L300 330L310 330L310 340L330 340L330 330L310 330L310 320L300 320M120 330L120 340L130 340L130 330L120 330z"/>
</svg>
