<?xml version="1.0" standalone="yes"?>
<svg version="1.1" xmlns="http://www.w3.org/2000/svg" xmlns:xlink="http://www.w3.org/1999/xlink" xmlns:ev="http://www.w3.org/2001/xml-events" width="350" height="350">
<path style="fill:#ffffff; stroke:none;" d="M0 0L0 350L350 350L350 0L0 0z"/>
<path style="fill:#000000; stroke:none;" d="M10 10L10 80L80 80L80 10L10 10M90 10L90 40L100 40L100 50L110 50L110 60L90 60L90 110L100 110L100 100L110 100L110 120L120 120L120 100L130 100L130 130L100 130L100 120L90 120L90 130L100 130L100 140L110 140L110 160L100 160L100 150L90 150L90 140L80 140L80 130L70 130L70 120L80 120L80 110L70 110L70 120L50 120L50 170L20 170L20 150L30 150L30 160L40 160L40 130L30 130L30 120L40 120L40 110L20 110L20 120L10 120L10 140L20 140L20 150L10 150L10 170L20 170L20 180L10 180L10 190L20 190L20 220L10 220L10 260L20 260L20 220L30 220L30 230L70 230L70 240L80 240L80 230L90 230L90 240L110 240L110 250L100 250L100 260L90 260L90 270L120 270L120 280L100 280L100 290L90 290L90 320L100 320L100 330L110 330L110 320L100 320L100 310L110 310L110 300L120 300L120 290L130 290L130 320L120 320L120 330L130 330L130 340L140 340L140 330L150 330L150 320L160 320L160 340L180 340L180 320L160 320L160 310L150 310L150 300L160 300L160 290L150 290L150 280L160 280L160 270L180 270L180 260L170 260L170 250L150 250L150 260L160 260L160 270L140 270L140 260L130 260L130 270L120 270L120 260L110 260L110 250L120 250L120 230L130 230L130 240L140 240L140 220L130 220L130 210L170 210L170 200L190 200L190 210L180 210L180 220L190 220L190 230L170 230L170 240L190 240L190 260L200 260L200 270L190 270L190 280L200 280L200 290L220 290L220 300L240 300L240 320L250 320L250 300L290 300L290 310L310 310L310 290L320 290L320 310L330 310L330 290L340 290L340 280L330 280L330 270L340 270L340 260L300 260L300 240L310 240L310 250L330 250L330 240L310 240L310 230L320 230L320 220L330 220L330 230L340 230L340 190L310 190L310 200L300 200L300 190L290 190L290 180L320 180L320 170L330 170L330 180L340 180L340 170L330 170L330 150L340 150L340 140L330 140L330 130L340 130L340 120L330 120L330 110L340 110L340 90L310 90L310 100L300 100L300 130L320 130L320 140L310 140L310 150L300 150L300 160L310 160L310 170L290 170L290 160L280 160L280 150L290 150L290 140L270 140L270 130L280 130L280 120L290 120L290 110L280 110L280 100L290 100L290 90L250 90L250 80L260 80L260 60L240 60L240 50L260 50L260 40L250 40L250 30L240 30L240 20L260 20L260 10L240 10L240 20L230 20L230 30L220 30L220 20L210 20L210 30L200 30L200 20L160 20L160 30L150 30L150 10L130 10L130 20L120 20L120 10L90 10M270 10L270 80L340 80L340 10L270 10z"/>
<path style="fill:#ffffff; stroke:none;" d="M20 20L20 70L70 70L70 20L20 20M280 20L280 70L330 70L330 20L280 20z"/>
<path style="fill:#000000; stroke:none;" d="M30 30L30 60L60 60L60 30L30 30z"/>
<path style="fill:#ffffff; stroke:none;" d="M120 30L120 60L110 60L110 70L100 70L100 90L130 90L130 100L140 100L140 150L130 150L130 140L120 140L120 150L130 150L130 160L120 160L120 180L110 180L110 170L100 170L100 160L90 160L90 150L80 150L80 140L70 140L70 150L80 150L80 160L60 160L60 170L50 170L50 180L60 180L60 170L80 170L80 160L90 160L90 180L70 180L70 190L60 190L60 210L50 210L50 200L30 200L30 210L40 210L40 220L70 220L70 230L80 230L80 220L70 220L70 210L90 210L90 220L100 220L100 230L110 230L110 220L120 220L120 210L110 210L110 200L130 200L130 190L120 190L120 180L130 180L130 170L140 170L140 200L150 200L150 170L140 170L140 150L150 150L150 160L160 160L160 150L170 150L170 170L180 170L180 150L170 150L170 130L190 130L190 110L200 110L200 100L230 100L230 120L250 120L250 110L260 110L260 100L250 100L250 110L240 110L240 90L200 90L200 80L210 80L210 70L220 70L220 80L230 80L230 60L220 60L220 50L230 50L230 40L220 40L220 30L210 30L210 50L190 50L190 40L200 40L200 30L170 30L170 50L150 50L150 70L140 70L140 50L130 50L130 40L140 40L140 30L120 30z"/>
<path style="fill:#000000; stroke:none;" d="M290 30L290 60L320 60L320 30L290 30M170 50L170 60L160 60L160 70L150 70L150 80L160 80L160 90L170 90L170 80L180 80L180 90L190 90L190 80L200 80L200 70L190 70L190 80L180 80L180 70L170 70L170 60L180 60L180 50L170 50M120 60L120 70L110 70L110 80L120 80L120 70L130 70L130 80L140 80L140 70L130 70L130 60L120 60z"/>
<path style="fill:#ffffff; stroke:none;" d="M160 70L160 80L170 80L170 70L160 70M240 70L240 80L250 80L250 70L240 70z"/>
<path style="fill:#000000; stroke:none;" d="M30 90L30 100L50 100L50 110L60 110L60 90L30 90M70 90L70 100L80 100L80 90L70 90M140 90L140 100L150 100L150 90L140 90M170 100L170 110L190 110L190 100L170 100z"/>
<path style="fill:#ffffff; stroke:none;" d="M310 100L310 110L320 110L320 100L310 100z"/>
<path style="fill:#000000; stroke:none;" d="M150 110L150 120L160 120L160 110L150 110z"/>
<path style="fill:#ffffff; stroke:none;" d="M210 110L210 120L200 120L200 140L190 140L190 160L200 160L200 170L190 170L190 180L180 180L180 190L200 190L200 200L210 200L210 220L200 220L200 210L190 210L190 220L200 220L200 230L190 230L190 240L210 240L210 220L220 220L220 240L230 240L230 230L240 230L240 250L230 250L230 260L220 260L220 250L200 250L200 260L210 260L210 270L220 270L220 290L240 290L240 300L250 300L250 290L240 290L240 280L230 280L230 270L240 270L240 260L250 260L250 240L260 240L260 250L290 250L290 240L280 240L280 230L300 230L300 220L260 220L260 210L270 210L270 200L260 200L260 210L250 210L250 220L230 220L230 210L240 210L240 200L250 200L250 190L220 190L220 180L230 180L230 170L220 170L220 180L210 180L210 160L230 160L230 140L250 140L250 150L240 150L240 180L250 180L250 170L270 170L270 180L260 180L260 190L270 190L270 180L280 180L280 170L270 170L270 160L250 160L250 150L270 150L270 140L250 140L250 130L230 130L230 140L220 140L220 150L200 150L200 140L210 140L210 120L220 120L220 110L210 110M270 110L270 120L260 120L260 130L270 130L270 120L280 120L280 110L270 110M20 130L20 140L30 140L30 130L20 130M320 140L320 150L330 150L330 140L320 140z"/>
<path style="fill:#000000; stroke:none;" d="M90 180L90 200L100 200L100 190L110 190L110 180L90 180z"/>
<path style="fill:#ffffff; stroke:none;" d="M160 180L160 200L170 200L170 180L160 180z"/>
<path style="fill:#000000; stroke:none;" d="M70 190L70 200L80 200L80 190L70 190M210 190L210 200L220 200L220 210L230 210L230 200L220 200L220 190L210 190z"/>
<path style="fill:#ffffff; stroke:none;" d="M290 200L290 210L300 210L300 200L290 200M320 200L320 210L310 210L310 220L320 220L320 210L330 210L330 200L320 200z"/>
<path style="fill:#000000; stroke:none;" d="M150 220L150 240L160 240L160 220L150 220M250 220L250 230L260 230L260 220L250 220M40 240L40 250L50 250L50 260L80 260L80 250L60 250L60 240L40 240z"/>
<path style="fill:#ffffff; stroke:none;" d="M260 260L260 290L290 290L290 260L260 260z"/>
<path style="fill:#000000; stroke:none;" d="M10 270L10 340L80 340L80 270L10 270z"/>
<path style="fill:#ffffff; stroke:none;" d="M130 270L130 290L140 290L140 270L130 270z"/>
<path style="fill:#000000; stroke:none;" d="M270 270L270 280L280 280L280 270L270 270z"/>
<path style="fill:#ffffff; stroke:none;" d="M300 270L300 280L320 280L320 270L300 270M20 280L20 330L70 330L70 280L20 280z"/>
<path style="fill:#000000; stroke:none;" d="M170 280L170 290L180 290L180 280L170 280M30 290L30 320L60 320L60 290L30 290M170 300L170 310L190 310L190 300L170 300z"/>
<path style="fill:#ffffff; stroke:none;" d="M140 310L140 320L150 320L150 310L140 310z"/>
<path style="fill:#000000; stroke:none;" d="M210 310L210 320L190 320L190 330L200 330L200 340L210 340L210 320L230 320L230 310L210 310M260 310L260 330L230 330L230 340L270 340L270 320L280 320L280 330L290 330L290 320L280 320L280 310L260 310M300 320L300 330L310 330L310 340L330 340L330 330L310 330L310 320L300 320z"/>
</svg>
