<?xml version="1.0" standalone="yes"?>
<svg version="1.1" xmlns="http://www.w3.org/2000/svg" xmlns:xlink="http://www.w3.org/1999/xlink" xmlns:ev="http://www.w3.org/2001/xml-events" width="350" height="350">
<path style="fill:#ffffff; stroke:none;" d="M0 0L0 350L350 350L350 0L0 0z"/>
<path style="fill:#000000; stroke:none;" d="M10 10L10 80L80 80L80 10L10 10M90 10L90 40L100 40L100 60L90 60L90 110L60 110L60 120L90 120L90 110L100 110L100 120L110 120L110 130L100 130L100 140L80 140L80 130L60 130L60 140L50 140L50 150L40 150L40 120L30 120L30 110L40 110L40 100L60 100L60 90L30 90L30 110L20 110L20 100L10 100L10 120L30 120L30 140L20 140L20 150L10 150L10 180L20 180L20 200L10 200L10 210L20 210L20 200L30 200L30 220L40 220L40 250L30 250L30 260L90 260L90 270L110 270L110 260L130 260L130 270L140 270L140 280L130 280L130 290L120 290L120 280L110 280L110 290L90 290L90 320L110 320L110 330L100 330L100 340L110 340L110 330L130 330L130 340L150 340L150 320L130 320L130 300L140 300L140 310L150 310L150 300L160 300L160 310L170 310L170 320L180 320L180 330L160 330L160 340L220 340L220 330L230 330L230 320L220 320L220 310L210 310L210 300L230 300L230 310L240 310L240 320L280 320L280 330L270 330L270 340L280 340L280 330L290 330L290 320L280 320L280 310L250 310L250 300L290 300L290 310L300 310L300 320L310 320L310 330L300 330L300 340L330 340L330 330L320 330L320 310L330 310L330 290L340 290L340 280L330 280L330 270L340 270L340 260L320 260L320 280L300 280L300 270L310 270L310 260L300 260L300 240L310 240L310 250L340 250L340 240L330 240L330 230L340 230L340 200L320 200L320 190L310 190L310 200L300 200L300 190L290 190L290 210L280 210L280 220L300 220L300 230L280 230L280 240L290 240L290 250L250 250L250 240L260 240L260 230L270 230L270 220L260 220L260 210L270 210L270 200L260 200L260 180L270 180L270 190L280 190L280 180L270 180L270 170L280 170L280 160L290 160L290 180L300 180L300 170L310 170L310 180L320 180L320 170L310 170L310 160L300 160L300 150L310 150L310 140L290 140L290 130L280 130L280 120L290 120L290 110L280 110L280 100L290 100L290 90L260 90L260 70L250 70L250 100L240 100L240 90L230 90L230 80L240 80L240 60L230 60L230 50L250 50L250 60L260 60L260 50L250 50L250 30L240 30L240 20L260 20L260 10L240 10L240 20L230 20L230 10L210 10L210 20L200 20L200 30L190 30L190 20L170 20L170 10L160 10L160 20L170 20L170 30L160 30L160 40L130 40L130 30L150 30L150 10L140 10L140 20L120 20L120 10L110 10L110 40L100 40L100 10L90 10M270 10L270 80L340 80L340 10L270 10z"/>
<path style="fill:#ffffff; stroke:none;" d="M20 20L20 70L70 70L70 20L20 20M280 20L280 70L330 70L330 20L280 20z"/>
<path style="fill:#000000; stroke:none;" d="M30 30L30 60L60 60L60 30L30 30M290 30L290 60L320 60L320 30L290 30z"/>
<path style="fill:#ffffff; stroke:none;" d="M110 40L110 50L130 50L130 60L100 60L100 100L120 100L120 90L150 90L150 100L160 100L160 110L170 110L170 100L180 100L180 120L210 120L210 130L200 130L200 140L210 140L210 150L220 150L220 160L200 160L200 170L190 170L190 160L170 160L170 170L160 170L160 160L150 160L150 140L160 140L160 150L180 150L180 130L170 130L170 120L150 120L150 140L140 140L140 120L130 120L130 110L140 110L140 100L130 100L130 110L120 110L120 120L130 120L130 130L120 130L120 140L140 140L140 150L110 150L110 160L100 160L100 150L90 150L90 160L100 160L100 170L110 170L110 160L140 160L140 170L120 170L120 180L110 180L110 200L120 200L120 190L130 190L130 200L140 200L140 190L170 190L170 200L160 200L160 210L150 210L150 220L160 220L160 210L170 210L170 230L180 230L180 240L200 240L200 220L190 220L190 230L180 230L180 210L210 210L210 200L200 200L200 190L220 190L220 200L230 200L230 210L220 210L220 220L230 220L230 210L240 210L240 200L250 200L250 190L220 190L220 180L230 180L230 170L220 170L220 160L230 160L230 150L240 150L240 180L250 180L250 170L270 170L270 160L280 160L280 150L290 150L290 140L280 140L280 130L270 130L270 120L280 120L280 110L270 110L270 120L260 120L260 100L250 100L250 110L240 110L240 120L230 120L230 90L220 90L220 80L230 80L230 60L220 60L220 50L230 50L230 40L200 40L200 50L210 50L210 70L200 70L200 60L190 60L190 50L160 50L160 80L170 80L170 90L150 90L150 60L140 60L140 50L130 50L130 40L110 40z"/>
<path style="fill:#000000; stroke:none;" d="M130 60L130 80L140 80L140 60L130 60M170 60L170 80L180 80L180 60L170 60M110 70L110 80L120 80L120 70L110 70M190 70L190 90L180 90L180 100L210 100L210 120L220 120L220 100L210 100L210 80L220 80L220 70L210 70L210 80L200 80L200 70L190 70M70 90L70 100L80 100L80 90L70 90M310 90L310 100L300 100L300 110L310 110L310 130L320 130L320 140L330 140L330 150L320 150L320 160L330 160L330 180L340 180L340 160L330 160L330 150L340 150L340 140L330 140L330 130L340 130L340 120L330 120L330 110L340 110L340 90L310 90M240 120L240 130L210 130L210 140L240 140L240 150L250 150L250 140L260 140L260 150L280 150L280 140L270 140L270 130L250 130L250 120L240 120z"/>
<path style="fill:#ffffff; stroke:none;" d="M70 140L70 150L80 150L80 140L70 140M20 150L20 160L40 160L40 180L30 180L30 190L40 190L40 200L50 200L50 210L40 210L40 220L50 220L50 250L60 250L60 230L80 230L80 240L70 240L70 250L90 250L90 260L110 260L110 250L140 250L140 270L150 270L150 250L160 250L160 240L150 240L150 230L140 230L140 210L120 210L120 220L110 220L110 210L90 210L90 220L70 220L70 210L80 210L80 200L70 200L70 210L60 210L60 190L100 190L100 180L60 180L60 190L50 190L50 160L40 160L40 150L20 150M60 160L60 170L80 170L80 160L60 160z"/>
<path style="fill:#000000; stroke:none;" d="M170 170L170 180L180 180L180 200L190 200L190 180L180 180L180 170L170 170M210 170L210 180L220 180L220 170L210 170M130 180L130 190L140 190L140 180L130 180M50 210L50 220L60 220L60 210L50 210z"/>
<path style="fill:#ffffff; stroke:none;" d="M310 210L310 220L320 220L320 230L310 230L310 240L320 240L320 230L330 230L330 220L320 220L320 210L310 210z"/>
<path style="fill:#000000; stroke:none;" d="M10 220L10 260L20 260L20 220L10 220M100 220L100 230L90 230L90 250L100 250L100 230L110 230L110 240L120 240L120 230L110 230L110 220L100 220z"/>
<path style="fill:#ffffff; stroke:none;" d="M240 220L240 230L220 230L220 240L210 240L210 260L200 260L200 270L210 270L210 280L220 280L220 260L230 260L230 280L240 280L240 290L230 290L230 300L250 300L250 280L240 280L240 270L250 270L250 260L240 260L240 230L260 230L260 220L240 220z"/>
<path style="fill:#000000; stroke:none;" d="M220 240L220 250L230 250L230 240L220 240z"/>
<path style="fill:#ffffff; stroke:none;" d="M160 260L160 280L150 280L150 290L170 290L170 310L180 310L180 280L170 280L170 270L180 270L180 260L160 260M260 260L260 290L290 290L290 260L260 260z"/>
<path style="fill:#000000; stroke:none;" d="M10 270L10 340L80 340L80 270L10 270M270 270L270 280L280 280L280 270L270 270z"/>
<path style="fill:#ffffff; stroke:none;" d="M20 280L20 330L70 330L70 280L20 280z"/>
<path style="fill:#000000; stroke:none;" d="M30 290L30 320L60 320L60 290L30 290z"/>
<path style="fill:#ffffff; stroke:none;" d="M200 290L200 300L210 300L210 290L200 290M300 290L300 310L310 310L310 300L320 300L320 290L300 290M100 300L100 310L110 310L110 320L120 320L120 300L100 300M210 320L210 330L220 330L220 320L210 320z"/>
<path style="fill:#000000; stroke:none;" d="M240 330L240 340L260 340L260 330L240 330z"/>
</svg>
