<?xml version="1.0" standalone="yes"?>
<svg version="1.1" xmlns="http://www.w3.org/2000/svg" xmlns:xlink="http://www.w3.org/1999/xlink" xmlns:ev="http://www.w3.org/2001/xml-events" width="310" height="310">
<path style="fill:#ffffff; stroke:none;" d="M0 0L0 310L310 310L310 0L0 0z"/>
<path style="fill:#000000; stroke:none;" d="M10 10L10 80L80 80L80 10L10 10M90 10L90 40L110 40L110 50L100 50L100 60L90 60L90 100L80 100L80 90L70 90L70 100L80 100L80 110L50 110L50 100L60 100L60 90L30 90L30 100L20 100L20 110L50 110L50 120L10 120L10 160L20 160L20 170L30 170L30 190L40 190L40 160L60 160L60 170L50 170L50 180L60 180L60 190L50 190L50 200L40 200L40 210L50 210L50 200L60 200L60 190L70 190L70 200L80 200L80 190L70 190L70 180L80 180L80 170L90 170L90 210L100 210L100 180L110 180L110 170L130 170L130 180L120 180L120 190L110 190L110 200L120 200L120 210L110 210L110 220L90 220L90 230L110 230L110 240L100 240L100 250L90 250L90 280L100 280L100 290L110 290L110 300L120 300L120 290L110 290L110 280L120 280L120 270L110 270L110 280L100 280L100 250L120 250L120 260L140 260L140 240L160 240L160 260L150 260L150 270L140 270L140 280L130 280L130 290L150 290L150 280L160 280L160 270L180 270L180 280L170 280L170 300L210 300L210 290L220 290L220 300L240 300L240 290L230 290L230 280L240 280L240 270L250 270L250 300L260 300L260 290L270 290L270 300L280 300L280 290L290 290L290 270L270 270L270 280L260 280L260 270L250 270L250 260L290 260L290 250L270 250L270 240L260 240L260 230L270 230L270 220L280 220L280 230L300 230L300 220L280 220L280 210L300 210L300 200L280 200L280 210L270 210L270 190L260 190L260 180L280 180L280 190L300 190L300 170L290 170L290 160L280 160L280 170L270 170L270 160L260 160L260 180L250 180L250 190L240 190L240 180L230 180L230 210L220 210L220 190L210 190L210 180L190 180L190 190L210 190L210 200L170 200L170 190L180 190L180 180L170 180L170 190L160 190L160 170L180 170L180 150L190 150L190 140L200 140L200 150L230 150L230 170L240 170L240 140L230 140L230 130L250 130L250 120L240 120L240 110L260 110L260 130L270 130L270 140L250 140L250 150L270 150L270 140L290 140L290 150L300 150L300 130L290 130L290 120L280 120L280 110L270 110L270 100L290 100L290 110L300 110L300 90L270 90L270 100L250 100L250 90L220 90L220 50L210 50L210 40L220 40L220 30L210 30L210 20L220 20L220 10L210 10L210 20L200 20L200 10L190 10L190 20L180 20L180 10L150 10L150 20L140 20L140 10L110 10L110 30L100 30L100 10L90 10M230 10L230 80L300 80L300 10L230 10z"/>
<path style="fill:#ffffff; stroke:none;" d="M20 20L20 70L70 70L70 20L20 20M120 20L120 30L110 30L110 40L130 40L130 50L140 50L140 40L130 40L130 20L120 20M160 20L160 30L150 30L150 70L140 70L140 60L120 60L120 50L110 50L110 60L100 60L100 90L110 90L110 100L140 100L140 90L150 90L150 70L160 70L160 90L170 90L170 70L180 70L180 100L170 100L170 110L150 110L150 120L140 120L140 110L130 110L130 150L120 150L120 140L110 140L110 150L90 150L90 120L120 120L120 110L80 110L80 120L50 120L50 140L30 140L30 150L20 150L20 160L40 160L40 150L60 150L60 160L70 160L70 170L80 170L80 160L70 160L70 150L90 150L90 170L100 170L100 160L130 160L130 170L150 170L150 150L160 150L160 160L170 160L170 150L180 150L180 140L190 140L190 130L150 130L150 120L170 120L170 110L200 110L200 120L210 120L210 110L220 110L220 130L230 130L230 110L220 110L220 90L210 90L210 60L200 60L200 80L190 80L190 50L200 50L200 20L190 20L190 30L180 30L180 20L160 20M240 20L240 70L290 70L290 20L240 20z"/>
<path style="fill:#000000; stroke:none;" d="M30 30L30 60L60 60L60 30L30 30M160 30L160 40L170 40L170 50L160 50L160 60L180 60L180 50L190 50L190 40L170 40L170 30L160 30M250 30L250 60L280 60L280 30L250 30M110 70L110 80L120 80L120 90L140 90L140 70L130 70L130 80L120 80L120 70L110 70M190 90L190 100L200 100L200 90L190 90z"/>
<path style="fill:#ffffff; stroke:none;" d="M270 120L270 130L280 130L280 120L270 120z"/>
<path style="fill:#000000; stroke:none;" d="M60 130L60 140L80 140L80 130L60 130M140 130L140 150L150 150L150 130L140 130M200 160L200 170L210 170L210 160L200 160z"/>
<path style="fill:#ffffff; stroke:none;" d="M280 170L280 180L290 180L290 170L280 170z"/>
<path style="fill:#000000; stroke:none;" d="M10 180L10 220L20 220L20 180L10 180z"/>
<path style="fill:#ffffff; stroke:none;" d="M150 190L150 200L160 200L160 190L150 190z"/>
<path style="fill:#000000; stroke:none;" d="M60 210L60 220L80 220L80 210L60 210z"/>
<path style="fill:#ffffff; stroke:none;" d="M130 210L130 220L110 220L110 230L130 230L130 240L140 240L140 230L150 230L150 220L140 220L140 210L130 210M180 210L180 220L190 220L190 230L180 230L180 250L170 250L170 260L190 260L190 250L200 250L200 270L190 270L190 280L180 280L180 290L210 290L210 280L220 280L220 270L240 270L240 260L220 260L220 270L210 270L210 250L200 250L200 240L190 240L190 230L200 230L200 220L210 220L210 210L180 210M220 220L220 250L250 250L250 220L220 220z"/>
<path style="fill:#000000; stroke:none;" d="M10 230L10 300L80 300L80 230L10 230M230 230L230 240L240 240L240 230L230 230z"/>
<path style="fill:#ffffff; stroke:none;" d="M20 240L20 290L70 290L70 240L20 240z"/>
<path style="fill:#000000; stroke:none;" d="M30 250L30 280L60 280L60 250L30 250M200 270L200 280L210 280L210 270L200 270z"/>
<path style="fill:#ffffff; stroke:none;" d="M270 280L270 290L280 290L280 280L270 280z"/>
</svg>
