<?xml version="1.0" standalone="yes"?>
<svg version="1.1" xmlns="http://www.w3.org/2000/svg" xmlns:xlink="http://www.w3.org/1999/xlink" xmlns:ev="http://www.w3.org/2001/xml-events" width="310" height="310">
<path style="fill:#ffffff; stroke:none;" d="M0 0L0 310L310 310L310 0L0 0z"/>
<path style="fill:#000000; stroke:none;" d="M10 10L10 80L80 80L80 10L10 10M90 10L90 30L100 30L100 20L110 20L110 30L120 30L120 40L90 40L90 80L100 80L100 100L90 100L90 110L70 110L70 100L80 100L80 90L70 90L70 100L50 100L50 90L40 90L40 100L30 100L30 110L20 110L20 120L30 120L30 130L10 130L10 150L40 150L40 160L30 160L30 170L20 170L20 160L10 160L10 170L20 170L20 190L10 190L10 200L20 200L20 190L30 190L30 200L40 200L40 210L30 210L30 220L80 220L80 210L100 210L100 220L90 220L90 230L100 230L100 220L120 220L120 240L130 240L130 250L120 250L120 260L110 260L110 250L100 250L100 260L90 260L90 270L110 270L110 280L100 280L100 290L110 290L110 280L120 280L120 300L130 300L130 280L140 280L140 290L150 290L150 280L160 280L160 270L170 270L170 280L190 280L190 260L200 260L200 250L190 250L190 240L170 240L170 230L180 230L180 220L200 220L200 210L210 210L210 270L200 270L200 290L190 290L190 300L200 300L200 290L210 290L210 300L220 300L220 290L230 290L230 300L240 300L240 290L250 290L250 300L270 300L270 290L250 290L250 280L260 280L260 260L270 260L270 250L280 250L280 240L290 240L290 230L300 230L300 220L280 220L280 210L300 210L300 170L290 170L290 160L300 160L300 150L280 150L280 180L260 180L260 190L240 190L240 180L230 180L230 170L260 170L260 160L250 160L250 140L240 140L240 130L260 130L260 120L240 120L240 100L270 100L270 90L240 90L240 100L210 100L210 110L200 110L200 120L170 120L170 130L160 130L160 110L150 110L150 130L140 130L140 140L170 140L170 150L180 150L180 170L170 170L170 160L150 160L150 150L130 150L130 160L110 160L110 150L120 150L120 130L130 130L130 120L140 120L140 110L120 110L120 100L110 100L110 90L130 90L130 100L150 100L150 90L140 90L140 70L130 70L130 80L120 80L120 60L170 60L170 50L180 50L180 70L170 70L170 90L160 90L160 100L170 100L170 110L180 110L180 100L200 100L200 90L190 90L190 80L200 80L200 70L210 70L210 90L220 90L220 70L210 70L210 60L200 60L200 50L210 50L210 40L220 40L220 20L210 20L210 10L190 10L190 30L180 30L180 20L160 20L160 10L120 10L120 20L110 20L110 10L90 10M230 10L230 80L300 80L300 10L230 10z"/>
<path style="fill:#ffffff; stroke:none;" d="M20 20L20 70L70 70L70 20L20 20M130 20L130 30L150 30L150 40L160 40L160 50L170 50L170 40L160 40L160 30L150 30L150 20L130 20M200 20L200 30L190 30L190 40L180 40L180 50L190 50L190 40L210 40L210 20L200 20M240 20L240 70L290 70L290 20L240 20z"/>
<path style="fill:#000000; stroke:none;" d="M30 30L30 60L60 60L60 30L30 30M250 30L250 60L280 60L280 30L250 30z"/>
<path style="fill:#ffffff; stroke:none;" d="M120 40L120 50L140 50L140 40L120 40M100 50L100 60L110 60L110 50L100 50M100 70L100 80L110 80L110 70L100 70z"/>
<path style="fill:#000000; stroke:none;" d="M150 70L150 80L160 80L160 70L150 70z"/>
<path style="fill:#ffffff; stroke:none;" d="M180 70L180 80L190 80L190 70L180 70M170 90L170 100L180 100L180 90L170 90z"/>
<path style="fill:#000000; stroke:none;" d="M280 90L280 100L290 100L290 110L280 110L280 120L270 120L270 130L290 130L290 110L300 110L300 90L280 90z"/>
<path style="fill:#ffffff; stroke:none;" d="M40 100L40 110L50 110L50 120L60 120L60 150L50 150L50 140L40 140L40 150L50 150L50 160L70 160L70 170L90 170L90 180L100 180L100 160L70 160L70 150L90 150L90 140L100 140L100 150L110 150L110 140L100 140L100 130L110 130L110 120L120 120L120 110L110 110L110 100L100 100L100 110L110 110L110 120L60 120L60 110L50 110L50 100L40 100M210 110L210 120L200 120L200 130L210 130L210 140L230 140L230 160L220 160L220 150L200 150L200 140L190 140L190 130L170 130L170 140L180 140L180 150L190 150L190 170L230 170L230 160L240 160L240 140L230 140L230 120L220 120L220 110L210 110z"/>
<path style="fill:#000000; stroke:none;" d="M70 130L70 140L80 140L80 130L70 130M260 140L260 150L270 150L270 140L260 140z"/>
<path style="fill:#ffffff; stroke:none;" d="M140 160L140 170L130 170L130 180L140 180L140 190L120 190L120 200L110 200L110 210L120 210L120 220L130 220L130 230L150 230L150 240L160 240L160 260L170 260L170 270L180 270L180 260L170 260L170 240L160 240L160 230L170 230L170 220L160 220L160 210L200 210L200 200L220 200L220 210L260 210L260 200L240 200L240 190L230 190L230 180L220 180L220 190L210 190L210 180L200 180L200 190L190 190L190 200L180 200L180 180L170 180L170 200L160 200L160 180L150 180L150 160L140 160M30 170L30 190L50 190L50 170L30 170M110 170L110 180L120 180L120 170L110 170M60 180L60 190L80 190L80 200L50 200L50 210L80 210L80 200L100 200L100 190L80 190L80 180L60 180z"/>
<path style="fill:#000000; stroke:none;" d="M220 190L220 200L230 200L230 190L220 190M120 200L120 210L130 210L130 220L140 220L140 210L160 210L160 200L140 200L140 210L130 210L130 200L120 200z"/>
<path style="fill:#ffffff; stroke:none;" d="M270 200L270 210L280 210L280 200L270 200z"/>
<path style="fill:#000000; stroke:none;" d="M10 210L10 220L20 220L20 210L10 210z"/>
<path style="fill:#ffffff; stroke:none;" d="M220 220L220 250L250 250L250 220L220 220M260 220L260 230L280 230L280 220L260 220z"/>
<path style="fill:#000000; stroke:none;" d="M10 230L10 300L80 300L80 230L10 230M230 230L230 240L240 240L240 230L230 230z"/>
<path style="fill:#ffffff; stroke:none;" d="M20 240L20 290L70 290L70 240L20 240M260 240L260 250L270 250L270 240L260 240z"/>
<path style="fill:#000000; stroke:none;" d="M30 250L30 280L60 280L60 250L30 250z"/>
<path style="fill:#ffffff; stroke:none;" d="M140 250L140 260L130 260L130 270L120 270L120 280L130 280L130 270L140 270L140 280L150 280L150 250L140 250z"/>
<path style="fill:#000000; stroke:none;" d="M290 250L290 280L280 280L280 270L270 270L270 280L280 280L280 300L290 300L290 280L300 280L300 250L290 250z"/>
<path style="fill:#ffffff; stroke:none;" d="M220 260L220 270L210 270L210 280L230 280L230 290L240 290L240 270L250 270L250 260L240 260L240 270L230 270L230 260L220 260z"/>
<path style="fill:#000000; stroke:none;" d="M170 290L170 300L180 300L180 290L170 290z"/>
</svg>
