<?xml version="1.0" standalone="yes"?>
<svg version="1.1" xmlns="http://www.w3.org/2000/svg" xmlns:xlink="http://www.w3.org/1999/xlink" xmlns:ev="http://www.w3.org/2001/xml-events" width="310" height="310">
<path style="fill:#ffffff; stroke:none;" d="M0 0L0 310L310 310L310 0L0 0z"/>
<path style="fill:#000000; stroke:none;" d="M10 10L10 80L80 80L80 10L10 10M110 10L110 30L100 30L100 50L90 50L90 60L100 60L100 70L90 70L90 90L70 90L70 100L90 100L90 110L70 110L70 120L60 120L60 110L50 110L50 90L30 90L30 100L40 100L40 110L30 110L30 120L20 120L20 130L10 130L10 160L20 160L20 170L10 170L10 180L30 180L30 190L50 190L50 180L30 180L30 170L40 170L40 150L30 150L30 140L20 140L20 130L30 130L30 120L50 120L50 130L40 130L40 140L50 140L50 170L60 170L60 200L110 200L110 230L120 230L120 240L150 240L150 260L140 260L140 250L120 250L120 260L130 260L130 270L160 270L160 280L150 280L150 290L140 290L140 280L130 280L130 290L140 290L140 300L150 300L150 290L160 290L160 300L170 300L170 290L180 290L180 300L200 300L200 290L180 290L180 280L220 280L220 270L230 270L230 260L250 260L250 270L260 270L260 280L250 280L250 290L240 290L240 280L230 280L230 290L210 290L210 300L250 300L250 290L270 290L270 280L280 280L280 300L290 300L290 280L300 280L300 270L290 270L290 260L280 260L280 250L300 250L300 240L280 240L280 230L300 230L300 210L280 210L280 190L270 190L270 150L280 150L280 160L300 160L300 120L290 120L290 110L300 110L300 100L290 100L290 110L280 110L280 100L260 100L260 90L250 90L250 100L240 100L240 90L220 90L220 60L210 60L210 40L220 40L220 10L210 10L210 20L200 20L200 10L170 10L170 20L160 20L160 30L180 30L180 20L200 20L200 30L190 30L190 40L180 40L180 50L170 50L170 60L200 60L200 70L190 70L190 80L180 80L180 70L170 70L170 80L160 80L160 70L150 70L150 60L160 60L160 50L140 50L140 30L130 30L130 20L120 20L120 10L110 10M230 10L230 80L300 80L300 10L230 10z"/>
<path style="fill:#ffffff; stroke:none;" d="M20 20L20 70L70 70L70 20L20 20M240 20L240 70L290 70L290 20L240 20z"/>
<path style="fill:#000000; stroke:none;" d="M30 30L30 60L60 60L60 30L30 30z"/>
<path style="fill:#ffffff; stroke:none;" d="M120 30L120 40L130 40L130 30L120 30M200 30L200 40L190 40L190 50L200 50L200 40L210 40L210 30L200 30z"/>
<path style="fill:#000000; stroke:none;" d="M250 30L250 60L280 60L280 30L250 30z"/>
<path style="fill:#ffffff; stroke:none;" d="M110 50L110 70L100 70L100 80L110 80L110 70L120 70L120 80L130 80L130 70L120 70L120 60L130 60L130 50L110 50M140 70L140 90L160 90L160 100L150 100L150 120L140 120L140 100L120 100L120 120L140 120L140 140L160 140L160 150L140 150L140 160L130 160L130 140L120 140L120 130L110 130L110 140L90 140L90 150L80 150L80 140L70 140L70 130L100 130L100 120L110 120L110 110L90 110L90 120L70 120L70 130L50 130L50 140L60 140L60 160L70 160L70 170L80 170L80 180L70 180L70 190L100 190L100 180L110 180L110 190L120 190L120 200L130 200L130 190L150 190L150 180L180 180L180 190L170 190L170 210L160 210L160 200L140 200L140 220L130 220L130 210L120 210L120 220L130 220L130 230L170 230L170 240L190 240L190 250L200 250L200 270L210 270L210 240L190 240L190 230L210 230L210 210L220 210L220 200L230 200L230 190L240 190L240 180L250 180L250 200L240 200L240 210L250 210L250 200L260 200L260 210L270 210L270 200L260 200L260 180L250 180L250 170L260 170L260 160L250 160L250 150L260 150L260 130L290 130L290 120L280 120L280 110L270 110L270 120L230 120L230 140L220 140L220 100L210 100L210 70L200 70L200 90L180 90L180 100L190 100L190 110L180 110L180 120L170 120L170 90L160 90L160 80L150 80L150 70L140 70z"/>
<path style="fill:#000000; stroke:none;" d="M190 110L190 120L200 120L200 130L190 130L190 140L180 140L180 130L170 130L170 150L190 150L190 140L200 140L200 160L190 160L190 170L180 170L180 160L150 160L150 170L120 170L120 150L110 150L110 160L80 160L80 150L70 150L70 160L80 160L80 170L120 170L120 180L150 180L150 170L180 170L180 180L190 180L190 190L200 190L200 200L190 200L190 210L180 210L180 220L170 220L170 230L190 230L190 210L210 210L210 190L220 190L220 170L210 170L210 180L200 180L200 160L230 160L230 170L240 170L240 150L250 150L250 140L230 140L230 150L210 150L210 140L200 140L200 130L210 130L210 120L200 120L200 110L190 110z"/>
<path style="fill:#ffffff; stroke:none;" d="M280 140L280 150L290 150L290 140L280 140M20 150L20 160L30 160L30 150L20 150z"/>
<path style="fill:#000000; stroke:none;" d="M280 170L280 180L300 180L300 170L280 170M10 190L10 200L20 200L20 190L10 190M30 200L30 210L20 210L20 220L40 220L40 210L50 210L50 220L90 220L90 240L100 240L100 220L90 220L90 210L50 210L50 200L30 200M150 210L150 220L160 220L160 210L150 210z"/>
<path style="fill:#ffffff; stroke:none;" d="M220 220L220 250L250 250L250 220L220 220M270 220L270 230L260 230L260 250L280 250L280 240L270 240L270 230L280 230L280 220L270 220z"/>
<path style="fill:#000000; stroke:none;" d="M10 230L10 300L80 300L80 230L10 230M230 230L230 240L240 240L240 230L230 230z"/>
<path style="fill:#ffffff; stroke:none;" d="M20 240L20 290L70 290L70 240L20 240z"/>
<path style="fill:#000000; stroke:none;" d="M30 250L30 280L60 280L60 250L30 250M100 250L100 260L90 260L90 280L100 280L100 270L110 270L110 250L100 250z"/>
<path style="fill:#ffffff; stroke:none;" d="M160 250L160 270L170 270L170 280L160 280L160 290L170 290L170 280L180 280L180 270L170 270L170 250L160 250M270 260L270 270L280 270L280 280L290 280L290 270L280 270L280 260L270 260z"/>
<path style="fill:#000000; stroke:none;" d="M110 280L110 290L100 290L100 300L120 300L120 280L110 280z"/>
</svg>
