<?xml version="1.0" standalone="yes"?>
<svg version="1.1" xmlns="http://www.w3.org/2000/svg" xmlns:xlink="http://www.w3.org/1999/xlink" xmlns:ev="http://www.w3.org/2001/xml-events" width="310" height="310">
<path style="fill:#ffffff; stroke:none;" d="M0 0L0 310L310 310L310 0L0 0z"/>
<path style="fill:#000000; stroke:none;" d="M10 10L10 80L80 80L80 10L10 10M90 10L90 30L100 30L100 40L90 40L90 80L100 80L100 100L80 100L80 90L70 90L70 100L80 100L80 110L60 110L60 100L50 100L50 90L40 90L40 100L30 100L30 130L40 130L40 100L50 100L50 110L60 110L60 130L50 130L50 140L10 140L10 150L20 150L20 160L10 160L10 170L20 170L20 190L10 190L10 200L20 200L20 190L30 190L30 200L50 200L50 210L60 210L60 220L90 220L90 230L130 230L130 240L140 240L140 230L130 230L130 210L140 210L140 200L150 200L150 230L160 230L160 240L180 240L180 230L160 230L160 220L170 220L170 210L160 210L160 170L170 170L170 180L180 180L180 200L190 200L190 210L180 210L180 220L190 220L190 210L210 210L210 260L200 260L200 240L190 240L190 260L170 260L170 250L130 250L130 260L120 260L120 270L130 270L130 280L110 280L110 270L100 270L100 260L90 260L90 270L100 270L100 300L120 300L120 290L140 290L140 300L160 300L160 280L170 280L170 300L180 300L180 280L200 280L200 290L190 290L190 300L200 300L200 290L210 290L210 300L220 300L220 290L230 290L230 300L240 300L240 290L250 290L250 300L260 300L260 290L250 290L250 280L260 280L260 270L270 270L270 280L280 280L280 300L290 300L290 280L300 280L300 260L290 260L290 250L300 250L300 240L290 240L290 230L300 230L300 180L290 180L290 160L300 160L300 150L280 150L280 190L260 190L260 210L250 210L250 200L240 200L240 210L220 210L220 200L230 200L230 190L240 190L240 180L230 180L230 170L260 170L260 160L250 160L250 140L240 140L240 130L290 130L290 110L300 110L300 90L280 90L280 100L290 100L290 110L270 110L270 120L240 120L240 100L270 100L270 90L240 90L240 100L200 100L200 110L210 110L210 120L230 120L230 140L220 140L220 130L200 130L200 120L190 120L190 110L180 110L180 100L190 100L190 90L180 90L180 70L190 70L190 80L200 80L200 90L210 90L210 80L220 80L220 60L200 60L200 50L220 50L220 40L190 40L190 30L200 30L200 20L180 20L180 30L150 30L150 20L160 20L160 10L150 10L150 20L140 20L140 10L130 10L130 30L110 30L110 20L120 20L120 10L90 10M210 10L210 30L220 30L220 10L210 10M230 10L230 80L300 80L300 10L230 10z"/>
<path style="fill:#ffffff; stroke:none;" d="M20 20L20 70L70 70L70 20L20 20M240 20L240 70L290 70L290 20L240 20z"/>
<path style="fill:#000000; stroke:none;" d="M30 30L30 60L60 60L60 30L30 30z"/>
<path style="fill:#ffffff; stroke:none;" d="M140 30L140 40L150 40L150 30L140 30z"/>
<path style="fill:#000000; stroke:none;" d="M250 30L250 60L280 60L280 30L250 30z"/>
<path style="fill:#ffffff; stroke:none;" d="M100 40L100 80L110 80L110 60L130 60L130 70L120 70L120 80L130 80L130 70L140 70L140 90L110 90L110 120L100 120L100 110L90 110L90 120L70 120L70 130L60 130L60 140L50 140L50 160L40 160L40 150L30 150L30 160L20 160L20 170L30 170L30 160L40 160L40 170L50 170L50 160L60 160L60 140L70 140L70 150L80 150L80 140L90 140L90 160L70 160L70 170L80 170L80 180L30 180L30 190L80 190L80 200L70 200L70 210L100 210L100 220L120 220L120 210L110 210L110 180L120 180L120 200L130 200L130 180L120 180L120 170L130 170L130 160L140 160L140 190L150 190L150 160L160 160L160 140L170 140L170 160L180 160L180 180L190 180L190 190L200 190L200 200L220 200L220 190L230 190L230 180L220 180L220 190L200 190L200 180L190 180L190 170L200 170L200 160L210 160L210 150L200 150L200 130L190 130L190 140L180 140L180 130L160 130L160 140L150 140L150 150L130 150L130 140L140 140L140 120L180 120L180 110L160 110L160 90L170 90L170 100L180 100L180 90L170 90L170 70L160 70L160 90L150 90L150 70L140 70L140 60L150 60L150 50L140 50L140 60L130 60L130 50L110 50L110 40L100 40M160 40L160 50L170 50L170 60L180 60L180 50L190 50L190 40L160 40M200 70L200 80L210 80L210 70L200 70z"/>
<path style="fill:#000000; stroke:none;" d="M140 90L140 100L120 100L120 120L110 120L110 130L90 130L90 140L110 140L110 150L100 150L100 180L110 180L110 170L120 170L120 140L130 140L130 130L120 130L120 120L130 120L130 110L140 110L140 100L150 100L150 90L140 90M10 100L10 110L20 110L20 100L10 100M70 130L70 140L80 140L80 130L70 130z"/>
<path style="fill:#ffffff; stroke:none;" d="M230 140L230 160L220 160L220 170L230 170L230 160L240 160L240 140L230 140z"/>
<path style="fill:#000000; stroke:none;" d="M260 140L260 150L270 150L270 140L260 140M180 150L180 160L200 160L200 150L180 150z"/>
<path style="fill:#ffffff; stroke:none;" d="M270 200L270 210L260 210L260 230L290 230L290 220L270 220L270 210L290 210L290 200L270 200z"/>
<path style="fill:#000000; stroke:none;" d="M10 210L10 220L20 220L20 210L10 210M30 210L30 220L40 220L40 210L30 210z"/>
<path style="fill:#ffffff; stroke:none;" d="M220 220L220 250L250 250L250 220L220 220z"/>
<path style="fill:#000000; stroke:none;" d="M10 230L10 300L80 300L80 230L10 230M230 230L230 240L240 240L240 230L230 230z"/>
<path style="fill:#ffffff; stroke:none;" d="M20 240L20 290L70 290L70 240L20 240z"/>
<path style="fill:#000000; stroke:none;" d="M100 240L100 250L120 250L120 240L100 240z"/>
<path style="fill:#ffffff; stroke:none;" d="M260 240L260 250L270 250L270 270L280 270L280 280L290 280L290 260L280 260L280 250L270 250L270 240L260 240z"/>
<path style="fill:#000000; stroke:none;" d="M30 250L30 280L60 280L60 250L30 250z"/>
<path style="fill:#ffffff; stroke:none;" d="M130 260L130 270L140 270L140 290L150 290L150 270L140 270L140 260L130 260M190 260L190 270L200 270L200 280L210 280L210 270L200 270L200 260L190 260M220 260L220 280L230 280L230 290L240 290L240 270L250 270L250 260L240 260L240 270L230 270L230 260L220 260M170 270L170 280L180 280L180 270L170 270z"/>
</svg>
