<?xml version="1.0" standalone="yes"?>
<svg version="1.1" xmlns="http://www.w3.org/2000/svg" xmlns:xlink="http://www.w3.org/1999/xlink" xmlns:ev="http://www.w3.org/2001/xml-events" width="310" height="310">
<path style="fill:#ffffff; stroke:none;" d="M0 0L0 310L310 310L310 0L0 0z"/>
<path style="fill:#000000; stroke:none;" d="M10 10L10 80L80 80L80 10L10 10M100 10L100 20L90 20L90 30L100 30L100 40L110 40L110 50L120 50L120 60L110 60L110 80L120 80L120 60L130 60L130 50L140 50L140 60L150 60L150 80L140 80L140 70L130 70L130 80L140 80L140 90L120 90L120 100L130 100L130 120L140 120L140 140L130 140L130 160L140 160L140 170L150 170L150 160L160 160L160 170L170 170L170 160L160 160L160 150L150 150L150 160L140 160L140 140L170 140L170 150L180 150L180 170L200 170L200 180L230 180L230 190L240 190L240 200L250 200L250 190L260 190L260 210L210 210L210 200L200 200L200 190L190 190L190 180L160 180L160 200L140 200L140 210L130 210L130 220L140 220L140 230L150 230L150 220L140 220L140 210L160 210L160 200L180 200L180 210L170 210L170 220L160 220L160 250L170 250L170 230L180 230L180 240L190 240L190 250L180 250L180 260L160 260L160 270L150 270L150 280L130 280L130 270L140 270L140 260L150 260L150 240L140 240L140 250L130 250L130 230L120 230L120 250L100 250L100 220L90 220L90 260L100 260L100 270L110 270L110 260L120 260L120 300L150 300L150 280L160 280L160 300L190 300L190 290L210 290L210 300L240 300L240 290L250 290L250 300L260 300L260 290L270 290L270 280L280 280L280 300L290 300L290 290L300 290L300 270L290 270L290 260L300 260L300 250L290 250L290 260L280 260L280 270L270 270L270 280L260 280L260 290L250 290L250 260L260 260L260 250L270 250L270 240L260 240L260 220L270 220L270 230L290 230L290 240L300 240L300 220L290 220L290 210L280 210L280 220L270 220L270 190L280 190L280 180L290 180L290 200L300 200L300 180L290 180L290 170L300 170L300 100L290 100L290 90L280 90L280 100L250 100L250 90L230 90L230 110L240 110L240 100L250 100L250 110L270 110L270 120L260 120L260 130L270 130L270 120L280 120L280 130L290 130L290 170L280 170L280 180L270 180L270 190L260 190L260 180L250 180L250 170L270 170L270 160L260 160L260 140L250 140L250 150L240 150L240 140L230 140L230 150L240 150L240 180L230 180L230 160L220 160L220 150L210 150L210 160L190 160L190 150L180 150L180 130L190 130L190 140L210 140L210 130L220 130L220 70L210 70L210 60L220 60L220 50L210 50L210 40L220 40L220 30L210 30L210 20L220 20L220 10L140 10L140 30L130 30L130 10L120 10L120 30L130 30L130 40L110 40L110 30L100 30L100 20L110 20L110 10L100 10M230 10L230 80L300 80L300 10L230 10z"/>
<path style="fill:#ffffff; stroke:none;" d="M20 20L20 70L70 70L70 20L20 20M150 20L150 30L140 30L140 40L150 40L150 60L160 60L160 80L150 80L150 110L160 110L160 120L170 120L170 130L180 130L180 120L170 120L170 100L200 100L200 110L190 110L190 120L210 120L210 100L200 100L200 80L210 80L210 70L200 70L200 60L210 60L210 50L200 50L200 60L190 60L190 70L180 70L180 60L170 60L170 40L180 40L180 50L190 50L190 40L200 40L200 20L190 20L190 40L180 40L180 20L170 20L170 30L160 30L160 20L150 20M240 20L240 70L290 70L290 20L240 20z"/>
<path style="fill:#000000; stroke:none;" d="M30 30L30 60L60 60L60 30L30 30M250 30L250 60L280 60L280 30L250 30M90 60L90 90L50 90L50 100L30 100L30 110L10 110L10 120L20 120L20 130L50 130L50 120L80 120L80 130L70 130L70 140L60 140L60 150L40 150L40 140L30 140L30 150L40 150L40 160L30 160L30 190L40 190L40 210L10 210L10 220L60 220L60 210L70 210L70 220L80 220L80 210L70 210L70 200L80 200L80 190L70 190L70 180L80 180L80 170L70 170L70 180L60 180L60 190L50 190L50 180L40 180L40 170L60 170L60 150L70 150L70 160L80 160L80 150L90 150L90 110L100 110L100 140L110 140L110 150L100 150L100 160L90 160L90 210L110 210L110 220L120 220L120 210L110 210L110 190L100 190L100 180L130 180L130 190L150 190L150 180L130 180L130 170L110 170L110 150L120 150L120 130L110 130L110 110L100 110L100 100L90 100L90 90L100 90L100 60L90 60M170 70L170 90L160 90L160 100L170 100L170 90L180 90L180 70L170 70M190 70L190 80L200 80L200 70L190 70z"/>
<path style="fill:#ffffff; stroke:none;" d="M50 100L50 110L80 110L80 100L50 100M30 110L30 120L40 120L40 110L30 110M280 110L280 120L290 120L290 110L280 110z"/>
<path style="fill:#000000; stroke:none;" d="M10 140L10 150L20 150L20 140L10 140z"/>
<path style="fill:#ffffff; stroke:none;" d="M70 140L70 150L80 150L80 140L70 140z"/>
<path style="fill:#000000; stroke:none;" d="M270 140L270 150L280 150L280 140L270 140M10 180L10 190L20 190L20 180L10 180z"/>
<path style="fill:#ffffff; stroke:none;" d="M180 190L180 200L190 200L190 210L180 210L180 220L190 220L190 230L210 230L210 220L190 220L190 210L200 210L200 200L190 200L190 190L180 190M50 200L50 210L60 210L60 200L50 200M220 220L220 250L250 250L250 220L220 220z"/>
<path style="fill:#000000; stroke:none;" d="M10 230L10 300L80 300L80 230L10 230M230 230L230 240L240 240L240 230L230 230z"/>
<path style="fill:#ffffff; stroke:none;" d="M20 240L20 290L70 290L70 240L20 240z"/>
<path style="fill:#000000; stroke:none;" d="M30 250L30 280L60 280L60 250L30 250z"/>
<path style="fill:#ffffff; stroke:none;" d="M120 250L120 260L130 260L130 250L120 250M190 260L190 270L210 270L210 280L220 280L220 290L240 290L240 260L230 260L230 270L220 270L220 260L190 260M160 270L160 280L170 280L170 270L160 270z"/>
<path style="fill:#000000; stroke:none;" d="M100 290L100 300L110 300L110 290L100 290z"/>
</svg>
