<?xml version="1.0" standalone="yes"?>
<svg version="1.1" xmlns="http://www.w3.org/2000/svg" xmlns:xlink="http://www.w3.org/1999/xlink" xmlns:ev="http://www.w3.org/2001/xml-events" width="270" height="270">
<path style="fill:#ffffff; stroke:none;" d="M0 0L0 270L270 270L270 0L0 0z"/>
<path style="fill:#000000; stroke:none;" d="M10 10L10 80L80 80L80 10L10 10M120 10L120 20L100 20L100 30L120 30L120 20L150 20L150 30L160 30L160 40L140 40L140 30L130 30L130 50L140 50L140 60L120 60L120 70L110 70L110 90L100 90L100 110L90 110L90 90L60 90L60 100L50 100L50 110L60 110L60 100L80 100L80 110L70 110L70 120L80 120L80 110L90 110L90 120L100 120L100 130L90 130L90 150L100 150L100 140L110 140L110 120L120 120L120 110L110 110L110 90L120 90L120 100L130 100L130 110L140 110L140 120L130 120L130 130L120 130L120 140L150 140L150 120L160 120L160 130L170 130L170 140L160 140L160 160L180 160L180 170L160 170L160 180L130 180L130 160L140 160L140 150L110 150L110 160L120 160L120 170L100 170L100 160L80 160L80 150L70 150L70 140L80 140L80 130L70 130L70 140L60 140L60 120L50 120L50 130L40 130L40 120L30 120L30 130L20 130L20 100L30 100L30 110L40 110L40 100L30 100L30 90L10 90L10 180L20 180L20 140L40 140L40 150L30 150L30 170L40 170L40 180L60 180L60 160L80 160L80 170L70 170L70 180L90 180L90 210L110 210L110 200L130 200L130 220L140 220L140 210L150 210L150 230L160 230L160 220L170 220L170 230L200 230L200 250L220 250L220 260L230 260L230 250L220 250L220 240L210 240L210 230L200 230L200 220L220 220L220 230L230 230L230 240L240 240L240 230L250 230L250 260L260 260L260 210L250 210L250 200L260 200L260 190L250 190L250 200L240 200L240 210L220 210L220 200L230 200L230 190L240 190L240 160L250 160L250 170L260 170L260 150L250 150L250 140L260 140L260 110L250 110L250 100L230 100L230 90L210 90L210 100L200 100L200 110L190 110L190 120L200 120L200 130L190 130L190 140L180 140L180 120L170 120L170 100L130 100L130 80L140 80L140 70L150 70L150 90L180 90L180 70L170 70L170 80L160 80L160 60L150 60L150 50L160 50L160 40L170 40L170 60L180 60L180 20L170 20L170 30L160 30L160 20L150 20L150 10L120 10M190 10L190 80L260 80L260 10L190 10z"/>
<path style="fill:#ffffff; stroke:none;" d="M20 20L20 70L70 70L70 20L20 20M200 20L200 70L250 70L250 20L200 20z"/>
<path style="fill:#000000; stroke:none;" d="M30 30L30 60L60 60L60 30L30 30M210 30L210 60L240 60L240 30L210 30M90 40L90 60L110 60L110 50L100 50L100 40L90 40M90 70L90 80L100 80L100 70L90 70z"/>
<path style="fill:#ffffff; stroke:none;" d="M120 70L120 80L130 80L130 70L120 70M100 110L100 120L110 120L110 110L100 110M210 110L210 130L200 130L200 140L190 140L190 150L200 150L200 160L210 160L210 170L220 170L220 190L230 190L230 160L240 160L240 140L250 140L250 120L240 120L240 110L230 110L230 130L220 130L220 110L210 110M170 140L170 150L180 150L180 140L170 140z"/>
<path style="fill:#000000; stroke:none;" d="M200 140L200 150L210 150L210 140L200 140z"/>
<path style="fill:#ffffff; stroke:none;" d="M40 150L40 160L60 160L60 150L40 150z"/>
<path style="fill:#000000; stroke:none;" d="M220 150L220 160L230 160L230 150L220 150z"/>
<path style="fill:#ffffff; stroke:none;" d="M90 170L90 180L100 180L100 190L130 190L130 200L150 200L150 210L160 210L160 200L170 200L170 190L130 190L130 180L100 180L100 170L90 170M180 180L180 210L210 210L210 180L180 180z"/>
<path style="fill:#000000; stroke:none;" d="M10 190L10 260L80 260L80 190L10 190M190 190L190 200L200 200L200 190L190 190z"/>
<path style="fill:#ffffff; stroke:none;" d="M20 200L20 250L70 250L70 200L20 200z"/>
<path style="fill:#000000; stroke:none;" d="M30 210L30 240L60 240L60 210L30 210z"/>
<path style="fill:#ffffff; stroke:none;" d="M240 210L240 220L230 220L230 230L240 230L240 220L250 220L250 210L240 210z"/>
<path style="fill:#000000; stroke:none;" d="M100 220L100 230L110 230L110 220L100 220M120 230L120 250L100 250L100 240L90 240L90 260L120 260L120 250L130 250L130 240L140 240L140 230L120 230M150 240L150 250L140 250L140 260L160 260L160 250L170 250L170 260L190 260L190 240L150 240z"/>
</svg>
