<?xml version="1.0" standalone="yes"?>
<svg version="1.1" xmlns="http://www.w3.org/2000/svg" xmlns:xlink="http://www.w3.org/1999/xlink" xmlns:ev="http://www.w3.org/2001/xml-events" width="350" height="350">
<path style="fill:#ffffff; stroke:none;" d="M0 0L0 350L350 350L350 0L0 0z"/>
<path style="fill:#000000; stroke:none;" d="M10 10L10 80L80 80L80 10L10 10M90 10L90 40L100 40L100 20L110 20L110 30L140 30L140 40L130 40L130 50L150 50L150 60L140 60L140 70L130 70L130 60L120 60L120 70L110 70L110 90L100 90L100 60L90 60L90 110L100 110L100 100L120 100L120 110L110 110L110 120L130 120L130 110L140 110L140 100L150 100L150 120L180 120L180 110L190 110L190 130L160 130L160 140L180 140L180 150L170 150L170 160L180 160L180 170L160 170L160 160L150 160L150 150L140 150L140 170L130 170L130 150L120 150L120 130L100 130L100 120L90 120L90 130L100 130L100 140L110 140L110 160L100 160L100 150L90 150L90 140L80 140L80 130L60 130L60 140L50 140L50 150L60 150L60 140L80 140L80 150L70 150L70 160L60 160L60 170L50 170L50 180L40 180L40 170L30 170L30 160L40 160L40 130L30 130L30 150L20 150L20 140L10 140L10 150L20 150L20 160L10 160L10 170L20 170L20 180L10 180L10 190L20 190L20 220L10 220L10 260L20 260L20 220L30 220L30 240L40 240L40 230L70 230L70 240L80 240L80 230L70 230L70 220L80 220L80 210L70 210L70 220L50 220L50 210L60 210L60 180L80 180L80 190L70 190L70 200L80 200L80 190L100 190L100 180L90 180L90 160L100 160L100 170L110 170L110 180L120 180L120 190L110 190L110 200L90 200L90 220L100 220L100 230L90 230L90 240L100 240L100 230L130 230L130 240L140 240L140 250L130 250L130 260L120 260L120 250L100 250L100 260L90 260L90 250L60 250L60 240L50 240L50 260L90 260L90 270L140 270L140 310L130 310L130 290L120 290L120 280L100 280L100 290L90 290L90 320L100 320L100 330L110 330L110 320L100 320L100 310L110 310L110 300L120 300L120 310L130 310L130 320L120 320L120 330L130 330L130 340L140 340L140 330L150 330L150 320L160 320L160 330L170 330L170 340L180 340L180 330L170 330L170 320L160 320L160 310L190 310L190 300L170 300L170 280L160 280L160 260L180 260L180 250L190 250L190 240L200 240L200 250L220 250L220 260L200 260L200 270L190 270L190 280L210 280L210 290L200 290L200 310L210 310L210 320L190 320L190 330L220 330L220 320L230 320L230 310L210 310L210 300L240 300L240 320L250 320L250 300L290 300L290 310L310 310L310 290L320 290L320 310L330 310L330 290L340 290L340 280L330 280L330 270L340 270L340 260L320 260L320 280L310 280L310 260L300 260L300 240L310 240L310 250L330 250L330 240L310 240L310 230L320 230L320 220L330 220L330 230L340 230L340 190L310 190L310 200L300 200L300 190L280 190L280 180L320 180L320 170L330 170L330 180L340 180L340 170L330 170L330 150L340 150L340 140L330 140L330 130L340 130L340 120L330 120L330 110L340 110L340 90L310 90L310 100L300 100L300 110L310 110L310 100L320 100L320 120L300 120L300 130L320 130L320 140L310 140L310 150L300 150L300 160L310 160L310 170L290 170L290 160L270 160L270 150L290 150L290 140L270 140L270 120L290 120L290 110L280 110L280 100L290 100L290 90L260 90L260 110L250 110L250 80L260 80L260 60L240 60L240 70L230 70L230 80L220 80L220 70L210 70L210 80L200 80L200 50L210 50L210 30L220 30L220 40L230 40L230 50L220 50L220 60L230 60L230 50L260 50L260 40L250 40L250 30L240 30L240 20L260 20L260 10L240 10L240 20L230 20L230 10L220 10L220 20L210 20L210 30L200 30L200 20L190 20L190 30L180 30L180 20L160 20L160 40L150 40L150 10L130 10L130 20L120 20L120 10L90 10M270 10L270 80L340 80L340 10L270 10z"/>
<path style="fill:#ffffff; stroke:none;" d="M20 20L20 70L70 70L70 20L20 20M280 20L280 70L330 70L330 20L280 20z"/>
<path style="fill:#000000; stroke:none;" d="M30 30L30 60L60 60L60 30L30 30z"/>
<path style="fill:#ffffff; stroke:none;" d="M170 30L170 50L160 50L160 60L150 60L150 70L140 70L140 80L130 80L130 70L120 70L120 90L130 90L130 100L140 100L140 80L150 80L150 100L170 100L170 110L180 110L180 100L190 100L190 110L200 110L200 100L210 100L210 120L200 120L200 130L210 130L210 140L190 140L190 160L230 160L230 140L250 140L250 150L240 150L240 160L250 160L250 170L240 170L240 180L250 180L250 170L260 170L260 190L270 190L270 180L280 180L280 170L260 170L260 150L270 150L270 140L250 140L250 130L260 130L260 120L250 120L250 110L240 110L240 80L250 80L250 70L240 70L240 80L230 80L230 90L220 90L220 100L210 100L210 90L200 90L200 80L190 80L190 70L180 70L180 60L190 60L190 50L200 50L200 30L190 30L190 40L180 40L180 30L170 30z"/>
<path style="fill:#000000; stroke:none;" d="M290 30L290 60L320 60L320 30L290 30M170 50L170 60L160 60L160 70L150 70L150 80L160 80L160 90L170 90L170 100L180 100L180 90L170 90L170 80L180 80L180 70L170 70L170 60L180 60L180 50L170 50z"/>
<path style="fill:#ffffff; stroke:none;" d="M160 70L160 80L170 80L170 70L160 70z"/>
<path style="fill:#000000; stroke:none;" d="M30 90L30 100L60 100L60 90L30 90M70 90L70 100L80 100L80 90L70 90M220 100L220 120L210 120L210 130L220 130L220 140L230 140L230 130L250 130L250 120L230 120L230 100L220 100M10 110L10 120L40 120L40 110L10 110M50 110L50 120L60 120L60 110L50 110M70 110L70 120L80 120L80 110L70 110z"/>
<path style="fill:#ffffff; stroke:none;" d="M320 140L320 150L330 150L330 140L320 140M80 150L80 160L70 160L70 170L80 170L80 160L90 160L90 150L80 150M120 170L120 180L130 180L130 170L120 170M140 170L140 180L150 180L150 170L140 170M190 170L190 200L210 200L210 220L200 220L200 240L210 240L210 220L220 220L220 240L230 240L230 230L240 230L240 250L230 250L230 260L220 260L220 290L240 290L240 300L250 300L250 290L240 290L240 280L230 280L230 270L250 270L250 240L260 240L260 250L290 250L290 240L280 240L280 230L300 230L300 220L260 220L260 210L270 210L270 200L260 200L260 210L250 210L250 220L230 220L230 210L220 210L220 200L210 200L210 190L230 190L230 200L250 200L250 190L230 190L230 170L220 170L220 180L210 180L210 170L190 170M20 180L20 190L30 190L30 180L20 180M160 180L160 190L150 190L150 200L170 200L170 210L130 210L130 220L160 220L160 230L150 230L150 250L140 250L140 270L150 270L150 250L180 250L180 240L190 240L190 220L180 220L180 200L170 200L170 180L160 180M120 190L120 200L130 200L130 190L120 190M290 200L290 210L300 210L300 200L290 200M320 200L320 210L310 210L310 220L320 220L320 210L330 210L330 200L320 200M30 210L30 220L40 220L40 210L30 210M100 210L100 220L120 220L120 210L100 210z"/>
<path style="fill:#000000; stroke:none;" d="M250 220L250 230L260 230L260 220L250 220M170 230L170 240L180 240L180 230L170 230z"/>
<path style="fill:#ffffff; stroke:none;" d="M260 260L260 290L290 290L290 260L260 260z"/>
<path style="fill:#000000; stroke:none;" d="M10 270L10 340L80 340L80 270L10 270M270 270L270 280L280 280L280 270L270 270z"/>
<path style="fill:#ffffff; stroke:none;" d="M20 280L20 330L70 330L70 280L20 280M150 280L150 290L160 290L160 280L150 280z"/>
<path style="fill:#000000; stroke:none;" d="M30 290L30 320L60 320L60 290L30 290z"/>
<path style="fill:#ffffff; stroke:none;" d="M150 300L150 310L140 310L140 320L130 320L130 330L140 330L140 320L150 320L150 310L160 310L160 300L150 300z"/>
<path style="fill:#000000; stroke:none;" d="M260 310L260 320L280 320L280 330L290 330L290 320L280 320L280 310L260 310M300 320L300 330L310 330L310 340L330 340L330 330L310 330L310 320L300 320M230 330L230 340L270 340L270 330L230 330z"/>
</svg>
