<?xml version="1.0" standalone="yes"?>
<svg version="1.1" xmlns="http://www.w3.org/2000/svg" xmlns:xlink="http://www.w3.org/1999/xlink" xmlns:ev="http://www.w3.org/2001/xml-events" width="310" height="310">
<path style="fill:#ffffff; stroke:none;" d="M0 0L0 310L310 310L310 0L0 0z"/>
<path style="fill:#000000; stroke:none;" d="M10 10L10 80L80 80L80 10L10 10M90 10L90 20L100 20L100 40L90 40L90 50L100 50L100 40L110 40L110 50L130 50L130 40L140 40L140 20L150 20L150 10L140 10L140 20L120 20L120 30L130 30L130 40L110 40L110 10L90 10M160 10L160 30L150 30L150 60L140 60L140 70L130 70L130 60L120 60L120 70L110 70L110 90L90 90L90 100L80 100L80 90L50 90L50 100L40 100L40 90L30 90L30 110L20 110L20 100L10 100L10 110L20 110L20 120L10 120L10 130L20 130L20 120L30 120L30 150L10 150L10 170L20 170L20 180L30 180L30 200L20 200L20 190L10 190L10 200L20 200L20 210L10 210L10 220L20 220L20 210L30 210L30 200L40 200L40 220L60 220L60 210L70 210L70 220L90 220L90 230L100 230L100 220L120 220L120 230L130 230L130 210L100 210L100 220L90 220L90 200L110 200L110 190L50 190L50 200L40 200L40 180L30 180L30 170L50 170L50 160L60 160L60 180L80 180L80 170L70 170L70 160L110 160L110 150L120 150L120 140L130 140L130 160L120 160L120 170L90 170L90 180L130 180L130 190L120 190L120 200L130 200L130 190L140 190L140 170L150 170L150 160L160 160L160 170L170 170L170 150L190 150L190 160L200 160L200 170L190 170L190 190L180 190L180 180L160 180L160 190L180 190L180 210L190 210L190 220L180 220L180 230L170 230L170 200L160 200L160 210L150 210L150 200L140 200L140 230L150 230L150 240L130 240L130 260L140 260L140 270L130 270L130 280L120 280L120 260L110 260L110 250L120 250L120 240L90 240L90 260L110 260L110 280L100 280L100 270L90 270L90 280L100 280L100 300L110 300L110 280L120 280L120 300L140 300L140 290L150 290L150 300L200 300L200 290L210 290L210 300L220 300L220 280L210 280L210 270L200 270L200 250L180 250L180 260L190 260L190 280L180 280L180 270L170 270L170 250L160 250L160 280L150 280L150 240L210 240L210 260L250 260L250 280L230 280L230 290L250 290L250 300L260 300L260 290L250 290L250 280L260 280L260 270L270 270L270 250L260 250L260 220L270 220L270 210L240 210L240 200L250 200L250 180L240 180L240 170L260 170L260 180L270 180L270 190L260 190L260 200L270 200L270 190L280 190L280 200L300 200L300 170L290 170L290 180L270 180L270 170L260 170L260 160L240 160L240 150L250 150L250 140L240 140L240 120L250 120L250 130L260 130L260 120L250 120L250 110L240 110L240 100L230 100L230 90L220 90L220 60L210 60L210 40L220 40L220 10L210 10L210 20L180 20L180 10L160 10M230 10L230 80L300 80L300 10L230 10z"/>
<path style="fill:#ffffff; stroke:none;" d="M20 20L20 70L70 70L70 20L20 20M170 20L170 30L160 30L160 40L170 40L170 60L180 60L180 80L170 80L170 70L160 70L160 60L150 60L150 70L140 70L140 90L130 90L130 70L120 70L120 100L110 100L110 120L100 120L100 110L90 110L90 120L100 120L100 140L90 140L90 130L80 130L80 120L60 120L60 110L80 110L80 100L60 100L60 110L40 110L40 120L50 120L50 130L80 130L80 140L70 140L70 150L60 150L60 140L50 140L50 150L60 150L60 160L70 160L70 150L100 150L100 140L120 140L120 120L140 120L140 110L150 110L150 130L130 130L130 140L140 140L140 150L170 150L170 140L150 140L150 130L160 130L160 120L170 120L170 110L160 110L160 100L170 100L170 90L180 90L180 100L190 100L190 110L180 110L180 140L190 140L190 130L210 130L210 120L190 120L190 110L200 110L200 100L210 100L210 70L200 70L200 80L190 80L190 60L180 60L180 50L190 50L190 40L210 40L210 30L180 30L180 20L170 20M240 20L240 70L290 70L290 20L240 20z"/>
<path style="fill:#000000; stroke:none;" d="M30 30L30 60L60 60L60 30L30 30M170 30L170 40L180 40L180 30L170 30M250 30L250 60L280 60L280 30L250 30M90 70L90 80L100 80L100 70L90 70M150 70L150 80L160 80L160 70L150 70M140 90L140 100L150 100L150 90L140 90M260 90L260 100L270 100L270 110L280 110L280 130L290 130L290 120L300 120L300 90L290 90L290 110L280 110L280 100L270 100L270 90L260 90z"/>
<path style="fill:#ffffff; stroke:none;" d="M230 110L230 120L220 120L220 140L230 140L230 120L240 120L240 110L230 110M200 140L200 160L210 160L210 170L200 170L200 180L210 180L210 190L190 190L190 200L200 200L200 210L210 210L210 200L220 200L220 210L230 210L230 200L240 200L240 190L230 190L230 200L220 200L220 180L210 180L210 170L240 170L240 160L220 160L220 150L210 150L210 140L200 140z"/>
<path style="fill:#000000; stroke:none;" d="M280 140L280 150L270 150L270 160L280 160L280 150L290 150L290 160L300 160L300 140L280 140z"/>
<path style="fill:#ffffff; stroke:none;" d="M20 160L20 170L30 170L30 160L20 160M130 160L130 170L140 170L140 160L130 160M50 200L50 210L60 210L60 200L50 200M70 200L70 210L80 210L80 200L70 200z"/>
<path style="fill:#000000; stroke:none;" d="M280 210L280 230L270 230L270 240L300 240L300 210L280 210z"/>
<path style="fill:#ffffff; stroke:none;" d="M190 220L190 230L200 230L200 220L190 220M220 220L220 250L250 250L250 220L220 220z"/>
<path style="fill:#000000; stroke:none;" d="M10 230L10 300L80 300L80 230L10 230M230 230L230 240L240 240L240 230L230 230z"/>
<path style="fill:#ffffff; stroke:none;" d="M20 240L20 290L70 290L70 240L20 240z"/>
<path style="fill:#000000; stroke:none;" d="M30 250L30 280L60 280L60 250L30 250M290 270L290 280L280 280L280 300L300 300L300 290L290 290L290 280L300 280L300 270L290 270z"/>
<path style="fill:#ffffff; stroke:none;" d="M160 280L160 290L180 290L180 280L160 280M190 280L190 290L200 290L200 280L190 280z"/>
</svg>
