<?xml version="1.0" standalone="yes"?>
<svg version="1.1" xmlns="http://www.w3.org/2000/svg" xmlns:xlink="http://www.w3.org/1999/xlink" xmlns:ev="http://www.w3.org/2001/xml-events" width="350" height="350">
<path style="fill:#ffffff; stroke:none;" d="M0 0L0 350L350 350L350 0L0 0z"/>
<path style="fill:#000000; stroke:none;" d="M10 10L10 80L80 80L80 10L10 10M90 10L90 40L100 40L100 30L110 30L110 60L90 60L90 120L80 120L80 110L70 110L70 120L60 120L60 110L50 110L50 100L60 100L60 90L30 90L30 100L20 100L20 110L10 110L10 160L20 160L20 170L10 170L10 190L30 190L30 210L20 210L20 200L10 200L10 210L20 210L20 220L10 220L10 260L20 260L20 220L40 220L40 210L60 210L60 220L50 220L50 230L40 230L40 240L30 240L30 260L60 260L60 240L80 240L80 250L70 250L70 260L80 260L80 250L90 250L90 270L110 270L110 260L120 260L120 280L100 280L100 290L90 290L90 320L100 320L100 340L140 340L140 330L110 330L110 310L120 310L120 300L100 300L100 290L130 290L130 300L140 300L140 320L150 320L150 340L160 340L160 330L170 330L170 320L180 320L180 340L210 340L210 330L220 330L220 340L230 340L230 330L240 330L240 340L270 340L270 330L240 330L240 320L250 320L250 300L290 300L290 310L310 310L310 300L300 300L300 280L310 280L310 290L320 290L320 310L330 310L330 290L340 290L340 280L330 280L330 270L340 270L340 250L330 250L330 230L340 230L340 200L330 200L330 210L320 210L320 190L310 190L310 200L300 200L300 190L280 190L280 180L300 180L300 170L290 170L290 160L260 160L260 150L250 150L250 140L270 140L270 150L290 150L290 140L270 140L270 120L290 120L290 110L280 110L280 100L290 100L290 90L250 90L250 80L260 80L260 60L240 60L240 50L260 50L260 40L250 40L250 30L240 30L240 20L260 20L260 10L240 10L240 20L230 20L230 10L220 10L220 20L190 20L190 10L150 10L150 20L140 20L140 10L130 10L130 20L140 20L140 50L150 50L150 60L130 60L130 80L120 80L120 40L130 40L130 30L120 30L120 10L90 10M270 10L270 80L340 80L340 10L270 10z"/>
<path style="fill:#ffffff; stroke:none;" d="M20 20L20 70L70 70L70 20L20 20M180 20L180 30L170 30L170 40L160 40L160 50L170 50L170 40L180 40L180 50L190 50L190 20L180 20M280 20L280 70L330 70L330 20L280 20z"/>
<path style="fill:#000000; stroke:none;" d="M30 30L30 60L60 60L60 30L30 30z"/>
<path style="fill:#ffffff; stroke:none;" d="M210 30L210 40L200 40L200 60L190 60L190 70L180 70L180 60L150 60L150 70L140 70L140 80L150 80L150 70L160 70L160 80L170 80L170 100L190 100L190 110L160 110L160 120L140 120L140 130L130 130L130 120L120 120L120 130L100 130L100 120L110 120L110 90L100 90L100 120L90 120L90 130L80 130L80 120L70 120L70 130L60 130L60 120L50 120L50 110L40 110L40 120L30 120L30 110L20 110L20 150L30 150L30 160L50 160L50 140L70 140L70 150L80 150L80 160L60 160L60 180L50 180L50 170L20 170L20 180L40 180L40 200L60 200L60 210L80 210L80 200L90 200L90 190L100 190L100 220L120 220L120 190L100 190L100 180L90 180L90 170L100 170L100 160L120 160L120 150L160 150L160 160L150 160L150 180L190 180L190 170L180 170L180 150L190 150L190 160L200 160L200 180L210 180L210 200L200 200L200 190L180 190L180 200L170 200L170 190L150 190L150 200L140 200L140 190L130 190L130 200L140 200L140 220L150 220L150 230L130 230L130 250L120 250L120 260L130 260L130 280L140 280L140 270L150 270L150 280L160 280L160 290L140 290L140 300L160 300L160 310L150 310L150 320L160 320L160 310L170 310L170 300L160 300L160 290L170 290L170 280L180 280L180 270L200 270L200 280L210 280L210 300L200 300L200 290L180 290L180 310L190 310L190 330L210 330L210 320L200 320L200 310L210 310L210 300L220 300L220 330L230 330L230 320L240 320L240 300L250 300L250 290L240 290L240 280L230 280L230 270L250 270L250 240L260 240L260 250L290 250L290 240L280 240L280 230L300 230L300 220L260 220L260 210L270 210L270 200L260 200L260 210L250 210L250 220L230 220L230 210L240 210L240 200L250 200L250 190L220 190L220 180L230 180L230 170L210 170L210 160L200 160L200 140L210 140L210 150L220 150L220 160L230 160L230 140L240 140L240 130L260 130L260 110L240 110L240 100L230 100L230 90L210 90L210 100L230 100L230 120L240 120L240 130L230 130L230 140L220 140L220 120L190 120L190 110L200 110L200 100L190 100L190 70L200 70L200 80L210 80L210 70L220 70L220 80L230 80L230 40L240 40L240 30L230 30L230 40L220 40L220 30L210 30z"/>
<path style="fill:#000000; stroke:none;" d="M290 30L290 60L320 60L320 30L290 30M210 40L210 50L220 50L220 40L210 40z"/>
<path style="fill:#ffffff; stroke:none;" d="M100 70L100 80L110 80L110 70L100 70z"/>
<path style="fill:#000000; stroke:none;" d="M170 70L170 80L180 80L180 70L170 70z"/>
<path style="fill:#ffffff; stroke:none;" d="M240 70L240 80L250 80L250 70L240 70z"/>
<path style="fill:#000000; stroke:none;" d="M70 90L70 100L80 100L80 90L70 90z"/>
<path style="fill:#ffffff; stroke:none;" d="M120 90L120 110L130 110L130 90L120 90z"/>
<path style="fill:#000000; stroke:none;" d="M310 90L310 100L300 100L300 110L320 110L320 120L300 120L300 130L320 130L320 140L330 140L330 150L320 150L320 160L310 160L310 140L300 140L300 160L310 160L310 180L320 180L320 170L330 170L330 190L340 190L340 160L330 160L330 150L340 150L340 140L330 140L330 130L340 130L340 120L330 120L330 110L340 110L340 90L310 90z"/>
<path style="fill:#ffffff; stroke:none;" d="M140 100L140 110L150 110L150 100L140 100z"/>
<path style="fill:#000000; stroke:none;" d="M40 120L40 140L30 140L30 150L40 150L40 140L50 140L50 120L40 120M70 130L70 140L80 140L80 150L90 150L90 160L80 160L80 170L70 170L70 180L60 180L60 200L80 200L80 190L90 190L90 180L80 180L80 170L90 170L90 160L100 160L100 140L80 140L80 130L70 130M140 130L140 140L150 140L150 130L140 130M160 130L160 150L170 150L170 130L160 130M180 130L180 140L200 140L200 130L180 130z"/>
<path style="fill:#ffffff; stroke:none;" d="M240 150L240 160L250 160L250 170L260 170L260 160L250 160L250 150L240 150M110 170L110 180L140 180L140 170L110 170M270 170L270 180L260 180L260 190L270 190L270 180L280 180L280 170L270 170M70 180L70 190L80 190L80 180L70 180z"/>
<path style="fill:#000000; stroke:none;" d="M190 200L190 210L170 210L170 220L160 220L160 230L150 230L150 240L140 240L140 260L150 260L150 270L160 270L160 280L170 280L170 270L160 270L160 260L210 260L210 280L220 280L220 260L210 260L210 250L230 250L230 260L240 260L240 230L230 230L230 220L200 220L200 200L190 200M220 200L220 210L230 210L230 200L220 200z"/>
<path style="fill:#ffffff; stroke:none;" d="M280 200L280 210L290 210L290 200L280 200M310 210L310 220L320 220L320 210L310 210M70 220L70 230L80 230L80 220L70 220M170 220L170 230L180 230L180 240L160 240L160 250L210 250L210 240L220 240L220 230L210 230L210 240L190 240L190 230L200 230L200 220L170 220z"/>
<path style="fill:#000000; stroke:none;" d="M250 220L250 230L260 230L260 220L250 220z"/>
<path style="fill:#ffffff; stroke:none;" d="M90 230L90 240L100 240L100 260L110 260L110 240L100 240L100 230L90 230M310 230L310 240L300 240L300 270L310 270L310 260L330 260L330 250L310 250L310 240L320 240L320 230L310 230M260 260L260 290L290 290L290 260L260 260z"/>
<path style="fill:#000000; stroke:none;" d="M10 270L10 340L80 340L80 270L10 270M270 270L270 280L280 280L280 270L270 270z"/>
<path style="fill:#ffffff; stroke:none;" d="M20 280L20 330L70 330L70 280L20 280z"/>
<path style="fill:#000000; stroke:none;" d="M30 290L30 320L60 320L60 290L30 290M220 290L220 300L240 300L240 290L220 290M260 310L260 320L280 320L280 330L290 330L290 320L280 320L280 310L260 310M300 320L300 330L310 330L310 340L330 340L330 330L310 330L310 320L300 320z"/>
</svg>
