<?xml version="1.0" standalone="yes"?>
<svg version="1.1" xmlns="http://www.w3.org/2000/svg" xmlns:xlink="http://www.w3.org/1999/xlink" xmlns:ev="http://www.w3.org/2001/xml-events" width="310" height="310">
<path style="fill:#ffffff; stroke:none;" d="M0 0L0 310L310 310L310 0L0 0z"/>
<path style="fill:#000000; stroke:none;" d="M10 10L10 80L80 80L80 10L10 10M130 10L130 30L140 30L140 40L130 40L130 50L120 50L120 40L110 40L110 30L100 30L100 20L90 20L90 30L100 30L100 40L110 40L110 50L100 50L100 60L90 60L90 90L50 90L50 100L10 100L10 110L20 110L20 130L30 130L30 120L50 120L50 130L60 130L60 120L80 120L80 110L90 110L90 130L70 130L70 140L60 140L60 150L70 150L70 160L60 160L60 170L50 170L50 150L40 150L40 140L20 140L20 150L40 150L40 160L20 160L20 170L10 170L10 190L20 190L20 170L50 170L50 180L30 180L30 190L50 190L50 200L40 200L40 210L10 210L10 220L50 220L50 200L80 200L80 210L70 210L70 220L90 220L90 260L110 260L110 280L120 280L120 290L130 290L130 300L140 300L140 290L130 290L130 280L150 280L150 270L170 270L170 280L160 280L160 290L150 290L150 300L160 300L160 290L180 290L180 280L200 280L200 290L190 290L190 300L200 300L200 290L210 290L210 300L240 300L240 290L250 290L250 300L260 300L260 290L270 290L270 280L280 280L280 300L290 300L290 290L300 290L300 270L290 270L290 260L300 260L300 250L280 250L280 260L260 260L260 250L270 250L270 240L260 240L260 220L270 220L270 230L290 230L290 240L300 240L300 220L290 220L290 200L300 200L300 180L290 180L290 200L280 200L280 190L270 190L270 200L260 200L260 180L230 180L230 160L220 160L220 150L210 150L210 160L200 160L200 150L190 150L190 160L200 160L200 180L190 180L190 170L180 170L180 140L170 140L170 160L160 160L160 170L170 170L170 180L190 180L190 190L160 190L160 180L120 180L120 190L110 190L110 210L120 210L120 220L110 220L110 230L100 230L100 210L90 210L90 200L100 200L100 190L90 190L90 200L80 200L80 190L70 190L70 180L90 180L90 170L100 170L100 180L110 180L110 170L100 170L100 160L130 160L130 170L150 170L150 150L160 150L160 130L170 130L170 120L180 120L180 130L190 130L190 120L200 120L200 140L210 140L210 130L220 130L220 70L210 70L210 60L220 60L220 50L210 50L210 40L220 40L220 20L210 20L210 10L180 10L180 20L170 20L170 10L160 10L160 20L170 20L170 40L160 40L160 30L150 30L150 10L130 10M230 10L230 80L300 80L300 10L230 10z"/>
<path style="fill:#ffffff; stroke:none;" d="M20 20L20 70L70 70L70 20L20 20M190 20L190 40L180 40L180 50L160 50L160 60L140 60L140 80L150 80L150 110L140 110L140 100L130 100L130 90L120 90L120 100L110 100L110 110L100 110L100 120L110 120L110 130L120 130L120 150L140 150L140 140L150 140L150 120L160 120L160 100L170 100L170 110L180 110L180 120L190 120L190 110L200 110L200 120L210 120L210 110L200 110L200 100L190 100L190 90L180 90L180 100L170 100L170 90L160 90L160 80L170 80L170 70L180 70L180 80L190 80L190 40L200 40L200 30L210 30L210 20L190 20M240 20L240 70L290 70L290 20L240 20z"/>
<path style="fill:#000000; stroke:none;" d="M30 30L30 60L60 60L60 30L30 30M250 30L250 60L280 60L280 30L250 30z"/>
<path style="fill:#ffffff; stroke:none;" d="M110 50L110 70L100 70L100 80L110 80L110 70L120 70L120 80L130 80L130 60L120 60L120 50L110 50M200 50L200 60L210 60L210 50L200 50z"/>
<path style="fill:#000000; stroke:none;" d="M160 60L160 70L150 70L150 80L160 80L160 70L170 70L170 60L160 60z"/>
<path style="fill:#ffffff; stroke:none;" d="M200 70L200 80L210 80L210 70L200 70M90 90L90 100L100 100L100 90L90 90z"/>
<path style="fill:#000000; stroke:none;" d="M230 90L230 110L240 110L240 120L250 120L250 110L260 110L260 140L250 140L250 150L240 150L240 140L230 140L230 150L240 150L240 170L270 170L270 160L260 160L260 140L270 140L270 150L280 150L280 140L270 140L270 110L290 110L290 120L280 120L280 130L290 130L290 160L280 160L280 170L300 170L300 100L290 100L290 90L280 90L280 100L270 100L270 110L260 110L260 100L250 100L250 90L230 90z"/>
<path style="fill:#ffffff; stroke:none;" d="M50 100L50 120L60 120L60 110L80 110L80 100L50 100z"/>
<path style="fill:#000000; stroke:none;" d="M120 100L120 120L130 120L130 130L140 130L140 120L130 120L130 100L120 100z"/>
<path style="fill:#ffffff; stroke:none;" d="M240 100L240 110L250 110L250 100L240 100M70 140L70 150L80 150L80 140L70 140M90 140L90 150L110 150L110 140L90 140M70 160L70 170L60 170L60 180L50 180L50 190L60 190L60 180L70 180L70 170L80 170L80 160L70 160M200 180L200 190L190 190L190 200L180 200L180 210L170 210L170 220L160 220L160 230L140 230L140 240L130 240L130 220L120 220L120 240L110 240L110 260L130 260L130 270L120 270L120 280L130 280L130 270L150 270L150 250L140 250L140 240L160 240L160 250L170 250L170 260L200 260L200 270L210 270L210 280L220 280L220 290L240 290L240 260L230 260L230 270L220 270L220 260L200 260L200 240L180 240L180 230L170 230L170 220L180 220L180 210L190 210L190 200L210 200L210 210L240 210L240 200L250 200L250 210L260 210L260 200L250 200L250 190L230 190L230 180L200 180M120 190L120 200L130 200L130 210L160 210L160 190L150 190L150 200L130 200L130 190L120 190M270 200L270 220L280 220L280 200L270 200M190 220L190 230L210 230L210 220L190 220M220 220L220 250L250 250L250 220L220 220z"/>
<path style="fill:#000000; stroke:none;" d="M10 230L10 300L80 300L80 230L10 230M160 230L160 240L170 240L170 250L180 250L180 240L170 240L170 230L160 230M230 230L230 240L240 240L240 230L230 230z"/>
<path style="fill:#ffffff; stroke:none;" d="M20 240L20 290L70 290L70 240L20 240z"/>
<path style="fill:#000000; stroke:none;" d="M30 250L30 280L60 280L60 250L30 250z"/>
<path style="fill:#ffffff; stroke:none;" d="M250 260L250 290L260 290L260 280L270 280L270 270L260 270L260 260L250 260z"/>
</svg>
