<?xml version="1.0" standalone="yes"?>
<svg version="1.1" xmlns="http://www.w3.org/2000/svg" xmlns:xlink="http://www.w3.org/1999/xlink" xmlns:ev="http://www.w3.org/2001/xml-events" width="430" height="430">
<path style="fill:#ffffff; stroke:none;" d="M0 0L0 430L430 430L430 0L0 0z"/>
<path style="fill:#000000; stroke:none;" d="M10 10L10 80L80 80L80 10L10 10M100 10L100 20L90 20L90 30L100 30L100 20L110 20L110 50L100 50L100 60L90 60L90 90L50 90L50 100L30 100L30 110L20 110L20 120L30 120L30 150L10 150L10 160L30 160L30 150L40 150L40 160L50 160L50 180L30 180L30 170L20 170L20 180L10 180L10 200L20 200L20 210L40 210L40 200L80 200L80 210L70 210L70 220L80 220L80 230L60 230L60 210L50 210L50 220L40 220L40 230L20 230L20 270L10 270L10 280L20 280L20 290L10 290L10 310L20 310L20 290L30 290L30 300L40 300L40 310L30 310L30 330L10 330L10 340L30 340L30 330L40 330L40 340L50 340L50 330L70 330L70 340L90 340L90 380L100 380L100 360L120 360L120 380L110 380L110 410L100 410L100 420L110 420L110 410L120 410L120 420L130 420L130 410L140 410L140 420L170 420L170 400L180 400L180 420L190 420L190 410L200 410L200 420L210 420L210 410L220 410L220 420L240 420L240 400L250 400L250 420L260 420L260 410L270 410L270 420L280 420L280 410L290 410L290 420L310 420L310 410L320 410L320 390L330 390L330 380L360 380L360 390L370 390L370 380L380 380L380 370L390 370L390 380L400 380L400 390L380 390L380 410L370 410L370 400L350 400L350 390L340 390L340 400L330 400L330 420L340 420L340 410L350 410L350 420L380 420L380 410L390 410L390 400L400 400L400 420L410 420L410 410L420 410L420 370L410 370L410 360L420 360L420 340L410 340L410 330L420 330L420 300L410 300L410 330L400 330L400 340L390 340L390 320L400 320L400 300L370 300L370 310L380 310L380 330L320 330L320 310L330 310L330 320L340 320L340 300L360 300L360 290L350 290L350 280L340 280L340 270L370 270L370 290L390 290L390 280L380 280L380 260L390 260L390 270L400 270L400 260L390 260L390 240L400 240L400 230L390 230L390 240L380 240L380 220L390 220L390 190L410 190L410 200L420 200L420 170L410 170L410 160L420 160L420 140L410 140L410 130L420 130L420 100L410 100L410 90L400 90L400 100L410 100L410 110L400 110L400 120L410 120L410 130L400 130L400 140L390 140L390 150L380 150L380 140L360 140L360 160L370 160L370 170L360 170L360 180L350 180L350 190L360 190L360 210L370 210L370 190L380 190L380 220L350 220L350 210L340 210L340 190L330 190L330 200L320 200L320 180L310 180L310 150L320 150L320 170L330 170L330 180L340 180L340 170L350 170L350 150L340 150L340 160L330 160L330 140L340 140L340 120L320 120L320 140L310 140L310 120L300 120L300 130L290 130L290 110L300 110L300 100L310 100L310 110L320 110L320 90L340 90L340 70L330 70L330 40L340 40L340 30L330 30L330 20L310 20L310 30L300 30L300 10L290 10L290 30L280 30L280 40L270 40L270 30L260 30L260 10L230 10L230 20L220 20L220 10L180 10L180 20L190 20L190 30L180 30L180 40L170 40L170 50L180 50L180 70L170 70L170 80L180 80L180 90L170 90L170 110L180 110L180 140L150 140L150 150L160 150L160 160L140 160L140 170L120 170L120 190L100 190L100 180L110 180L110 130L120 130L120 150L130 150L130 130L140 130L140 120L110 120L110 110L130 110L130 100L140 100L140 110L160 110L160 90L150 90L150 80L160 80L160 70L150 70L150 80L140 80L140 70L130 70L130 80L120 80L120 70L110 70L110 80L100 80L100 60L130 60L130 50L120 50L120 10L100 10M160 10L160 20L130 20L130 40L140 40L140 60L160 60L160 30L170 30L170 10L160 10M350 10L350 80L420 80L420 10L350 10z"/>
<path style="fill:#ffffff; stroke:none;" d="M20 20L20 70L70 70L70 20L20 20M200 20L200 50L190 50L190 70L180 70L180 80L190 80L190 90L200 90L200 110L190 110L190 120L230 120L230 130L190 130L190 150L220 150L220 170L240 170L240 180L230 180L230 190L220 190L220 180L210 180L210 200L200 200L200 210L210 210L210 230L220 230L220 240L240 240L240 230L270 230L270 240L280 240L280 250L270 250L270 270L250 270L250 260L240 260L240 250L230 250L230 270L240 270L240 290L230 290L230 280L210 280L210 270L220 270L220 260L210 260L210 240L200 240L200 220L190 220L190 240L180 240L180 200L190 200L190 190L200 190L200 170L210 170L210 160L200 160L200 170L190 170L190 160L180 160L180 150L170 150L170 160L160 160L160 170L140 170L140 190L150 190L150 200L170 200L170 210L160 210L160 240L180 240L180 260L190 260L190 280L180 280L180 270L170 270L170 280L160 280L160 270L140 270L140 260L160 260L160 250L150 250L150 240L140 240L140 250L130 250L130 270L110 270L110 260L120 260L120 250L100 250L100 240L110 240L110 220L100 220L100 210L110 210L110 200L100 200L100 190L90 190L90 180L100 180L100 150L80 150L80 140L70 140L70 130L90 130L90 140L100 140L100 130L110 130L110 120L100 120L100 90L90 90L90 120L60 120L60 130L50 130L50 140L40 140L40 150L50 150L50 140L60 140L60 180L50 180L50 190L90 190L90 200L100 200L100 210L80 210L80 220L100 220L100 230L80 230L80 240L70 240L70 250L60 250L60 240L50 240L50 230L40 230L40 240L30 240L30 260L40 260L40 270L30 270L30 290L50 290L50 310L40 310L40 330L50 330L50 320L70 320L70 330L80 330L80 320L70 320L70 310L120 310L120 320L130 320L130 300L110 300L110 290L100 290L100 280L90 280L90 270L80 270L80 260L100 260L100 270L110 270L110 280L120 280L120 290L140 290L140 280L160 280L160 300L170 300L170 320L160 320L160 310L150 310L150 300L140 300L140 320L150 320L150 340L140 340L140 350L130 350L130 330L110 330L110 320L90 320L90 330L100 330L100 340L120 340L120 350L130 350L130 360L140 360L140 350L160 350L160 380L150 380L150 390L130 390L130 380L120 380L120 390L130 390L130 400L120 400L120 410L130 410L130 400L150 400L150 410L160 410L160 400L170 400L170 390L190 390L190 400L210 400L210 380L220 380L220 390L250 390L250 400L270 400L270 410L280 410L280 380L270 380L270 390L260 390L260 370L270 370L270 360L280 360L280 370L290 370L290 380L310 380L310 390L290 390L290 410L300 410L300 400L310 400L310 390L320 390L320 380L310 380L310 370L300 370L300 360L280 360L280 350L290 350L290 340L280 340L280 350L270 350L270 360L250 360L250 350L260 350L260 340L250 340L250 350L230 350L230 360L250 360L250 370L230 370L230 380L220 380L220 370L180 370L180 380L170 380L170 350L160 350L160 330L180 330L180 300L190 300L190 340L180 340L180 360L190 360L190 340L200 340L200 360L220 360L220 340L200 340L200 300L210 300L210 320L220 320L220 330L230 330L230 340L240 340L240 330L260 330L260 320L240 320L240 310L250 310L250 290L260 290L260 280L270 280L270 290L280 290L280 300L270 300L270 320L280 320L280 330L300 330L300 320L290 320L290 300L300 300L300 310L310 310L310 300L340 300L340 290L310 290L310 300L300 300L300 290L280 290L280 250L290 250L290 260L300 260L300 240L310 240L310 260L320 260L320 270L310 270L310 280L330 280L330 270L340 270L340 260L320 260L320 240L330 240L330 210L320 210L320 200L310 200L310 190L290 190L290 170L280 170L280 160L270 160L270 170L260 170L260 150L240 150L240 120L250 120L250 100L230 100L230 90L240 90L240 80L250 80L250 70L260 70L260 90L270 90L270 100L300 100L300 80L310 80L310 90L320 90L320 80L330 80L330 70L320 70L320 80L310 80L310 70L300 70L300 60L320 60L320 40L310 40L310 50L300 50L300 60L280 60L280 80L270 80L270 70L260 70L260 60L250 60L250 70L240 70L240 80L230 80L230 60L240 60L240 40L220 40L220 30L210 30L210 20L200 20M230 20L230 30L240 30L240 20L230 20M360 20L360 70L410 70L410 20L360 20z"/>
<path style="fill:#000000; stroke:none;" d="M30 30L30 60L60 60L60 30L30 30z"/>
<path style="fill:#ffffff; stroke:none;" d="M140 30L140 40L150 40L150 30L140 30M250 30L250 40L260 40L260 50L270 50L270 40L260 40L260 30L250 30M290 30L290 40L300 40L300 30L290 30z"/>
<path style="fill:#000000; stroke:none;" d="M370 30L370 60L400 60L400 30L370 30M210 50L210 60L220 60L220 50L210 50M190 70L190 80L200 80L200 70L190 70M210 70L210 80L220 80L220 70L210 70M290 70L290 80L300 80L300 70L290 70z"/>
<path style="fill:#ffffff; stroke:none;" d="M110 80L110 90L120 90L120 100L130 100L130 90L120 90L120 80L110 80M140 90L140 100L150 100L150 90L140 90z"/>
<path style="fill:#000000; stroke:none;" d="M350 90L350 100L340 100L340 110L350 110L350 120L360 120L360 130L370 130L370 120L380 120L380 130L390 130L390 120L380 120L380 110L390 110L390 100L370 100L370 90L350 90z"/>
<path style="fill:#ffffff; stroke:none;" d="M50 100L50 110L40 110L40 120L50 120L50 110L60 110L60 100L50 100M70 100L70 110L80 110L80 100L70 100z"/>
<path style="fill:#000000; stroke:none;" d="M210 100L210 110L220 110L220 100L210 100M230 110L230 120L240 120L240 110L230 110z"/>
<path style="fill:#ffffff; stroke:none;" d="M260 110L260 130L250 130L250 140L280 140L280 150L290 150L290 160L300 160L300 150L310 150L310 140L290 140L290 130L270 130L270 120L280 120L280 110L260 110M360 110L360 120L370 120L370 110L360 110z"/>
<path style="fill:#000000; stroke:none;" d="M90 120L90 130L100 130L100 120L90 120M70 150L70 160L80 160L80 170L70 170L70 180L90 180L90 160L80 160L80 150L70 150z"/>
<path style="fill:#ffffff; stroke:none;" d="M390 150L390 170L370 170L370 180L360 180L360 190L370 190L370 180L380 180L380 190L390 190L390 180L400 180L400 160L410 160L410 150L390 150z"/>
<path style="fill:#000000; stroke:none;" d="M170 170L170 180L160 180L160 190L170 190L170 200L180 200L180 180L190 180L190 170L170 170z"/>
<path style="fill:#ffffff; stroke:none;" d="M20 180L20 190L30 190L30 200L40 200L40 190L30 190L30 180L20 180z"/>
<path style="fill:#000000; stroke:none;" d="M270 180L270 190L280 190L280 200L260 200L260 190L230 190L230 200L220 200L220 230L230 230L230 220L240 220L240 210L250 210L250 220L260 220L260 210L270 210L270 220L280 220L280 240L300 240L300 230L310 230L310 240L320 240L320 220L300 220L300 200L290 200L290 190L280 190L280 180L270 180z"/>
<path style="fill:#ffffff; stroke:none;" d="M120 200L120 220L130 220L130 230L120 230L120 240L130 240L130 230L140 230L140 220L150 220L150 210L130 210L130 200L120 200M230 200L230 210L240 210L240 200L230 200M280 200L280 220L290 220L290 200L280 200z"/>
<path style="fill:#000000; stroke:none;" d="M410 220L410 250L420 250L420 220L410 220z"/>
<path style="fill:#ffffff; stroke:none;" d="M340 230L340 250L350 250L350 260L360 260L360 250L350 250L350 230L340 230z"/>
<path style="fill:#000000; stroke:none;" d="M190 240L190 250L200 250L200 240L190 240z"/>
<path style="fill:#ffffff; stroke:none;" d="M250 240L250 250L260 250L260 240L250 240M370 240L370 260L380 260L380 240L370 240z"/>
<path style="fill:#000000; stroke:none;" d="M50 250L50 270L40 270L40 280L60 280L60 290L70 290L70 300L60 300L60 310L70 310L70 300L100 300L100 290L70 290L70 280L80 280L80 270L60 270L60 250L50 250M70 250L70 260L80 260L80 250L70 250M410 270L410 280L420 280L420 270L410 270M170 280L170 300L180 300L180 280L170 280M190 280L190 290L210 290L210 280L190 280M220 290L220 300L230 300L230 290L220 290M230 320L230 330L240 330L240 320L230 320z"/>
<path style="fill:#ffffff; stroke:none;" d="M310 330L310 340L300 340L300 350L310 350L310 360L330 360L330 340L320 340L320 330L310 330z"/>
<path style="fill:#000000; stroke:none;" d="M310 340L310 350L320 350L320 340L310 340z"/>
<path style="fill:#ffffff; stroke:none;" d="M340 340L340 370L370 370L370 340L340 340M380 340L380 350L390 350L390 370L400 370L400 360L410 360L410 350L390 350L390 340L380 340z"/>
<path style="fill:#000000; stroke:none;" d="M10 350L10 420L80 420L80 350L10 350M350 350L350 360L360 360L360 350L350 350z"/>
<path style="fill:#ffffff; stroke:none;" d="M20 360L20 410L70 410L70 360L20 360z"/>
<path style="fill:#000000; stroke:none;" d="M30 370L30 400L60 400L60 370L30 370M190 380L190 390L200 390L200 380L190 380M150 390L150 400L160 400L160 390L150 390z"/>
<path style="fill:#ffffff; stroke:none;" d="M220 400L220 410L230 410L230 400L220 400z"/>
</svg>
