<?xml version="1.0" standalone="yes"?>
<svg version="1.1" xmlns="http://www.w3.org/2000/svg" xmlns:xlink="http://www.w3.org/1999/xlink" xmlns:ev="http://www.w3.org/2001/xml-events" width="270" height="270">
<path style="fill:#ffffff; stroke:none;" d="M0 0L0 270L270 270L270 0L0 0z"/>
<path style="fill:#000000; stroke:none;" d="M10 10L10 80L80 80L80 10L10 10M90 10L90 20L100 20L100 30L110 30L110 40L120 40L120 20L150 20L150 30L130 30L130 50L120 50L120 60L110 60L110 50L100 50L100 60L110 60L110 90L100 90L100 70L90 70L90 90L100 90L100 100L90 100L90 110L60 110L60 90L40 90L40 100L30 100L30 90L10 90L10 100L30 100L30 110L20 110L20 120L10 120L10 180L20 180L20 160L30 160L30 180L40 180L40 160L30 160L30 150L60 150L60 130L70 130L70 140L80 140L80 150L70 150L70 160L60 160L60 180L80 180L80 170L70 170L70 160L90 160L90 140L80 140L80 130L100 130L100 150L110 150L110 130L120 130L120 140L140 140L140 120L150 120L150 110L160 110L160 130L170 130L170 140L150 140L150 160L170 160L170 150L180 150L180 160L190 160L190 150L180 150L180 140L200 140L200 130L210 130L210 110L220 110L220 130L250 130L250 140L240 140L240 150L220 150L220 140L210 140L210 160L200 160L200 170L160 170L160 180L150 180L150 170L140 170L140 180L120 180L120 200L110 200L110 170L130 170L130 160L140 160L140 150L120 150L120 160L110 160L110 170L90 170L90 190L100 190L100 210L90 210L90 230L100 230L100 240L90 240L90 260L120 260L120 250L100 250L100 240L110 240L110 230L120 230L120 220L110 220L110 230L100 230L100 210L120 210L120 200L130 200L130 220L140 220L140 210L150 210L150 230L130 230L130 240L150 240L150 250L130 250L130 260L160 260L160 250L170 250L170 260L180 260L180 250L170 250L170 230L180 230L180 240L190 240L190 230L200 230L200 250L220 250L220 260L230 260L230 250L250 250L250 260L260 260L260 210L250 210L250 200L260 200L260 190L250 190L250 170L260 170L260 150L250 150L250 140L260 140L260 110L250 110L250 100L260 100L260 90L250 90L250 100L200 100L200 90L190 90L190 100L180 100L180 110L190 110L190 120L200 120L200 130L170 130L170 80L180 80L180 70L170 70L170 80L160 80L160 50L150 50L150 40L170 40L170 30L180 30L180 20L170 20L170 30L160 30L160 20L150 20L150 10L120 10L120 20L100 20L100 10L90 10M190 10L190 80L260 80L260 10L190 10z"/>
<path style="fill:#ffffff; stroke:none;" d="M20 20L20 70L70 70L70 20L20 20M200 20L200 70L250 70L250 20L200 20z"/>
<path style="fill:#000000; stroke:none;" d="M30 30L30 60L60 60L60 30L30 30M210 30L210 60L240 60L240 30L210 30z"/>
<path style="fill:#ffffff; stroke:none;" d="M130 50L130 60L120 60L120 80L130 80L130 100L110 100L110 110L90 110L90 120L110 120L110 110L130 110L130 120L140 120L140 110L130 110L130 100L160 100L160 80L150 80L150 50L130 50z"/>
<path style="fill:#000000; stroke:none;" d="M170 50L170 60L180 60L180 50L170 50M130 60L130 80L140 80L140 90L150 90L150 80L140 80L140 60L130 60M70 90L70 100L80 100L80 90L70 90z"/>
<path style="fill:#ffffff; stroke:none;" d="M40 100L40 110L30 110L30 120L20 120L20 150L30 150L30 140L50 140L50 130L60 130L60 110L50 110L50 100L40 100M190 100L190 110L200 110L200 100L190 100M230 110L230 120L250 120L250 110L230 110z"/>
<path style="fill:#000000; stroke:none;" d="M30 120L30 130L40 130L40 120L30 120z"/>
<path style="fill:#ffffff; stroke:none;" d="M70 120L70 130L80 130L80 120L70 120M220 160L220 190L230 190L230 200L220 200L220 210L230 210L230 230L220 230L220 220L210 220L210 230L220 230L220 250L230 250L230 230L240 230L240 200L250 200L250 190L240 190L240 180L230 180L230 160L220 160M240 160L240 170L250 170L250 160L240 160M140 180L140 190L130 190L130 200L150 200L150 180L140 180M160 180L160 200L170 200L170 180L160 180M180 180L180 210L210 210L210 180L180 180z"/>
<path style="fill:#000000; stroke:none;" d="M10 190L10 260L80 260L80 190L10 190M190 190L190 200L200 200L200 190L190 190z"/>
<path style="fill:#ffffff; stroke:none;" d="M20 200L20 250L70 250L70 200L20 200z"/>
<path style="fill:#000000; stroke:none;" d="M30 210L30 240L60 240L60 210L30 210z"/>
<path style="fill:#ffffff; stroke:none;" d="M160 220L160 230L150 230L150 240L160 240L160 230L170 230L170 220L160 220z"/>
</svg>
