<?xml version="1.0" standalone="yes"?>
<svg version="1.1" xmlns="http://www.w3.org/2000/svg" xmlns:xlink="http://www.w3.org/1999/xlink" xmlns:ev="http://www.w3.org/2001/xml-events" width="310" height="310">
<path style="fill:#ffffff; stroke:none;" d="M0 0L0 310L310 310L310 0L0 0z"/>
<path style="fill:#000000; stroke:none;" d="M10 10L10 80L80 80L80 10L10 10M100 10L100 30L90 30L90 50L100 50L100 70L90 70L90 80L100 80L100 70L110 70L110 90L100 90L100 100L90 100L90 90L70 90L70 100L60 100L60 90L40 90L40 110L50 110L50 130L40 130L40 140L30 140L30 130L20 130L20 140L10 140L10 220L30 220L30 210L40 210L40 200L30 200L30 190L20 190L20 170L30 170L30 180L40 180L40 190L50 190L50 180L60 180L60 190L70 190L70 200L80 200L80 210L60 210L60 200L50 200L50 210L60 210L60 220L80 220L80 210L110 210L110 190L120 190L120 210L160 210L160 220L130 220L130 230L110 230L110 220L90 220L90 240L100 240L100 230L110 230L110 240L130 240L130 230L150 230L150 240L160 240L160 250L170 250L170 260L180 260L180 250L200 250L200 260L190 260L190 280L200 280L200 260L210 260L210 270L230 270L230 260L240 260L240 270L250 270L250 290L240 290L240 280L210 280L210 300L220 300L220 290L230 290L230 300L260 300L260 280L270 280L270 290L280 290L280 280L290 280L290 290L300 290L300 270L290 270L290 260L300 260L300 240L290 240L290 260L260 260L260 250L270 250L270 240L280 240L280 230L290 230L290 220L300 220L300 210L290 210L290 220L280 220L280 200L270 200L270 170L300 170L300 140L290 140L290 130L300 130L300 120L290 120L290 130L280 130L280 140L270 140L270 120L280 120L280 110L290 110L290 100L280 100L280 90L260 90L260 100L240 100L240 110L230 110L230 100L220 100L220 90L210 90L210 80L220 80L220 60L210 60L210 50L220 50L220 20L210 20L210 10L190 10L190 20L180 20L180 10L170 10L170 20L160 20L160 10L140 10L140 20L150 20L150 30L140 30L140 40L130 40L130 10L120 10L120 30L110 30L110 10L100 10M230 10L230 80L300 80L300 10L230 10z"/>
<path style="fill:#ffffff; stroke:none;" d="M20 20L20 70L70 70L70 20L20 20M170 20L170 30L180 30L180 40L190 40L190 60L200 60L200 80L190 80L190 70L180 70L180 80L170 80L170 70L160 70L160 100L150 100L150 110L140 110L140 130L110 130L110 170L100 170L100 180L70 180L70 190L100 190L100 180L120 180L120 190L150 190L150 180L160 180L160 160L170 160L170 170L200 170L200 190L190 190L190 180L180 180L180 200L160 200L160 210L180 210L180 200L190 200L190 210L200 210L200 230L180 230L180 220L170 220L170 230L180 230L180 240L200 240L200 230L210 230L210 210L220 210L220 200L240 200L240 190L250 190L250 210L260 210L260 220L270 220L270 200L260 200L260 190L250 190L250 180L260 180L260 150L270 150L270 160L280 160L280 150L290 150L290 140L280 140L280 150L270 150L270 140L260 140L260 110L240 110L240 120L230 120L230 110L210 110L210 100L190 100L190 90L200 90L200 80L210 80L210 60L200 60L200 40L210 40L210 20L190 20L190 30L180 30L180 20L170 20M240 20L240 70L290 70L290 20L240 20z"/>
<path style="fill:#000000; stroke:none;" d="M30 30L30 60L60 60L60 30L30 30z"/>
<path style="fill:#ffffff; stroke:none;" d="M100 30L100 50L110 50L110 60L120 60L120 80L130 80L130 90L110 90L110 100L140 100L140 90L150 90L150 70L140 70L140 60L150 60L150 50L160 50L160 60L180 60L180 50L170 50L170 40L150 40L150 50L140 50L140 60L120 60L120 50L130 50L130 40L120 40L120 50L110 50L110 30L100 30z"/>
<path style="fill:#000000; stroke:none;" d="M190 30L190 40L200 40L200 30L190 30M250 30L250 60L280 60L280 30L250 30M130 70L130 80L140 80L140 70L130 70M20 100L20 110L10 110L10 120L20 120L20 110L30 110L30 100L20 100z"/>
<path style="fill:#ffffff; stroke:none;" d="M50 100L50 110L60 110L60 100L50 100M70 100L70 110L80 110L80 120L70 120L70 130L50 130L50 140L40 140L40 150L30 150L30 140L20 140L20 160L30 160L30 170L50 170L50 160L60 160L60 170L80 170L80 160L60 160L60 140L70 140L70 150L80 150L80 140L70 140L70 130L80 130L80 120L90 120L90 130L100 130L100 110L90 110L90 100L70 100z"/>
<path style="fill:#000000; stroke:none;" d="M180 100L180 110L160 110L160 120L180 120L180 110L190 110L190 130L180 130L180 140L160 140L160 130L140 130L140 140L120 140L120 150L140 150L140 160L150 160L150 140L160 140L160 150L180 150L180 140L190 140L190 150L200 150L200 170L210 170L210 200L220 200L220 160L240 160L240 140L250 140L250 150L260 150L260 140L250 140L250 130L230 130L230 120L220 120L220 140L230 140L230 150L220 150L220 160L210 160L210 150L200 150L200 140L210 140L210 130L200 130L200 110L190 110L190 100L180 100z"/>
<path style="fill:#ffffff; stroke:none;" d="M270 100L270 110L280 110L280 100L270 100z"/>
<path style="fill:#000000; stroke:none;" d="M40 150L40 160L50 160L50 150L40 150z"/>
<path style="fill:#ffffff; stroke:none;" d="M90 150L90 160L100 160L100 150L90 150z"/>
<path style="fill:#000000; stroke:none;" d="M120 160L120 180L150 180L150 170L130 170L130 160L120 160M240 170L240 180L250 180L250 170L240 170M290 190L290 200L300 200L300 190L290 190z"/>
<path style="fill:#ffffff; stroke:none;" d="M220 220L220 250L250 250L250 220L220 220z"/>
<path style="fill:#000000; stroke:none;" d="M10 230L10 300L80 300L80 230L10 230M230 230L230 240L240 240L240 230L230 230z"/>
<path style="fill:#ffffff; stroke:none;" d="M260 230L260 240L270 240L270 230L260 230M20 240L20 290L70 290L70 240L20 240z"/>
<path style="fill:#000000; stroke:none;" d="M30 250L30 280L60 280L60 250L30 250M90 250L90 270L100 270L100 250L90 250M110 250L110 260L120 260L120 250L110 250M130 250L130 270L120 270L120 280L100 280L100 300L110 300L110 290L120 290L120 300L140 300L140 290L170 290L170 280L160 280L160 270L150 270L150 280L140 280L140 260L150 260L150 250L130 250z"/>
<path style="fill:#ffffff; stroke:none;" d="M250 260L250 270L260 270L260 260L250 260M130 280L130 290L140 290L140 280L130 280z"/>
</svg>
