<?xml version="1.0" standalone="yes"?>
<svg version="1.1" xmlns="http://www.w3.org/2000/svg" xmlns:xlink="http://www.w3.org/1999/xlink" xmlns:ev="http://www.w3.org/2001/xml-events" width="310" height="310">
<path style="fill:#ffffff; stroke:none;" d="M0 0L0 310L310 310L310 0L0 0z"/>
<path style="fill:#000000; stroke:none;" d="M10 10L10 80L80 80L80 10L10 10M100 10L100 50L90 50L90 60L120 60L120 70L110 70L110 80L100 80L100 70L90 70L90 90L70 90L70 100L100 100L100 90L130 90L130 100L110 100L110 110L90 110L90 120L80 120L80 110L70 110L70 120L50 120L50 110L60 110L60 100L50 100L50 90L30 90L30 100L20 100L20 110L10 110L10 120L20 120L20 130L30 130L30 140L20 140L20 150L10 150L10 160L20 160L20 150L40 150L40 160L30 160L30 190L40 190L40 220L50 220L50 190L70 190L70 200L60 200L60 210L70 210L70 220L90 220L90 240L110 240L110 270L100 270L100 260L90 260L90 280L110 280L110 270L130 270L130 280L120 280L120 290L100 290L100 300L130 300L130 280L140 280L140 300L180 300L180 290L200 290L200 300L250 300L250 290L260 290L260 300L270 300L270 270L290 270L290 280L280 280L280 300L290 300L290 280L300 280L300 270L290 270L290 260L280 260L280 250L300 250L300 240L290 240L290 230L300 230L300 200L290 200L290 210L280 210L280 180L270 180L270 150L280 150L280 170L300 170L300 120L290 120L290 110L300 110L300 100L290 100L290 110L270 110L270 100L260 100L260 90L250 90L250 100L240 100L240 90L220 90L220 120L210 120L210 130L200 130L200 120L180 120L180 130L200 130L200 170L180 170L180 200L170 200L170 210L160 210L160 190L150 190L150 180L170 180L170 170L150 170L150 180L130 180L130 190L140 190L140 200L120 200L120 180L100 180L100 200L110 200L110 210L120 210L120 220L130 220L130 210L140 210L140 240L160 240L160 230L180 230L180 240L170 240L170 250L130 250L130 230L120 230L120 240L110 240L110 220L90 220L90 210L70 210L70 200L90 200L90 190L70 190L70 180L90 180L90 130L100 130L100 150L110 150L110 160L100 160L100 170L110 170L110 160L120 160L120 170L130 170L130 160L150 160L150 140L160 140L160 160L170 160L170 140L160 140L160 130L130 130L130 140L120 140L120 130L100 130L100 120L110 120L110 110L120 110L120 120L170 120L170 110L180 110L180 90L200 90L200 100L210 100L210 80L220 80L220 50L210 50L210 40L220 40L220 10L210 10L210 20L200 20L200 10L160 10L160 40L150 40L150 50L140 50L140 20L110 20L110 10L100 10M230 10L230 80L300 80L300 10L230 10z"/>
<path style="fill:#ffffff; stroke:none;" d="M20 20L20 70L70 70L70 20L20 20M170 20L170 40L160 40L160 50L150 50L150 60L140 60L140 90L150 90L150 70L160 70L160 80L170 80L170 70L180 70L180 80L190 80L190 70L200 70L200 80L210 80L210 70L200 70L200 60L170 60L170 50L180 50L180 40L190 40L190 50L200 50L200 40L210 40L210 30L190 30L190 20L170 20M240 20L240 70L290 70L290 20L240 20z"/>
<path style="fill:#000000; stroke:none;" d="M30 30L30 60L60 60L60 30L30 30M250 30L250 60L280 60L280 30L250 30z"/>
<path style="fill:#ffffff; stroke:none;" d="M110 40L110 50L120 50L120 60L130 60L130 40L110 40z"/>
<path style="fill:#000000; stroke:none;" d="M160 60L160 70L170 70L170 60L160 60z"/>
<path style="fill:#ffffff; stroke:none;" d="M120 70L120 80L130 80L130 70L120 70M30 100L30 110L20 110L20 120L30 120L30 110L50 110L50 100L30 100M130 100L130 110L140 110L140 100L130 100M40 120L40 150L50 150L50 120L40 120M70 120L70 130L80 130L80 120L70 120M230 120L230 140L210 140L210 150L220 150L220 170L230 170L230 180L210 180L210 170L200 170L200 180L190 180L190 190L200 190L200 200L180 200L180 220L210 220L210 210L220 210L220 200L230 200L230 190L260 190L260 200L240 200L240 210L260 210L260 220L270 220L270 230L260 230L260 250L280 250L280 240L270 240L270 230L280 230L280 220L270 220L270 210L260 210L260 200L270 200L270 180L240 180L240 170L260 170L260 160L250 160L250 150L260 150L260 140L270 140L270 130L290 130L290 120L260 120L260 130L240 130L240 120L230 120M60 140L60 150L80 150L80 140L60 140M110 140L110 150L120 150L120 140L110 140z"/>
<path style="fill:#000000; stroke:none;" d="M180 140L180 150L190 150L190 140L180 140M230 140L230 170L240 170L240 150L250 150L250 140L230 140z"/>
<path style="fill:#ffffff; stroke:none;" d="M60 160L60 180L70 180L70 170L80 170L80 160L60 160M40 180L40 190L50 190L50 180L40 180z"/>
<path style="fill:#000000; stroke:none;" d="M10 190L10 200L20 200L20 190L10 190M210 190L210 200L220 200L220 190L210 190z"/>
<path style="fill:#ffffff; stroke:none;" d="M140 200L140 210L150 210L150 200L140 200z"/>
<path style="fill:#000000; stroke:none;" d="M20 210L20 220L30 220L30 210L20 210z"/>
<path style="fill:#ffffff; stroke:none;" d="M220 220L220 250L250 250L250 220L220 220z"/>
<path style="fill:#000000; stroke:none;" d="M10 230L10 300L80 300L80 230L10 230M230 230L230 240L240 240L240 230L230 230z"/>
<path style="fill:#ffffff; stroke:none;" d="M20 240L20 290L70 290L70 240L20 240M180 240L180 250L170 250L170 260L160 260L160 270L150 270L150 290L160 290L160 270L170 270L170 260L210 260L210 270L200 270L200 290L210 290L210 280L220 280L220 290L230 290L230 280L240 280L240 290L250 290L250 280L260 280L260 270L250 270L250 260L230 260L230 280L220 280L220 260L210 260L210 240L200 240L200 250L190 250L190 240L180 240z"/>
<path style="fill:#000000; stroke:none;" d="M30 250L30 280L60 280L60 250L30 250z"/>
<path style="fill:#ffffff; stroke:none;" d="M120 250L120 260L130 260L130 270L140 270L140 260L130 260L130 250L120 250M180 270L180 280L190 280L190 270L180 270z"/>
</svg>
