<?xml version="1.0" standalone="yes"?>
<svg version="1.1" xmlns="http://www.w3.org/2000/svg" xmlns:xlink="http://www.w3.org/1999/xlink" xmlns:ev="http://www.w3.org/2001/xml-events" width="310" height="310">
<path style="fill:#ffffff; stroke:none;" d="M0 0L0 310L310 310L310 0L0 0z"/>
<path style="fill:#000000; stroke:none;" d="M10 10L10 80L80 80L80 10L10 10M100 10L100 30L90 30L90 50L100 50L100 70L90 70L90 80L100 80L100 100L90 100L90 90L70 90L70 100L80 100L80 110L70 110L70 120L80 120L80 130L60 130L60 140L50 140L50 130L40 130L40 100L50 100L50 110L60 110L60 90L40 90L40 100L10 100L10 150L30 150L30 160L40 160L40 170L10 170L10 220L30 220L30 200L40 200L40 210L50 210L50 190L60 190L60 220L80 220L80 210L90 210L90 240L100 240L100 250L90 250L90 270L100 270L100 280L140 280L140 290L100 290L100 300L150 300L150 270L160 270L160 280L180 280L180 270L190 270L190 280L200 280L200 270L190 270L190 260L180 260L180 250L200 250L200 260L210 260L210 270L230 270L230 260L240 260L240 270L250 270L250 290L230 290L230 280L220 280L220 290L190 290L190 300L260 300L260 290L280 290L280 280L290 280L290 290L300 290L300 270L290 270L290 260L300 260L300 240L290 240L290 260L270 260L270 270L280 270L280 280L260 280L260 270L250 270L250 260L260 260L260 250L270 250L270 240L280 240L280 230L290 230L290 210L280 210L280 190L270 190L270 170L300 170L300 140L290 140L290 130L300 130L300 120L290 120L290 130L280 130L280 140L270 140L270 150L260 150L260 140L250 140L250 120L260 120L260 130L270 130L270 110L290 110L290 100L280 100L280 90L260 90L260 100L240 100L240 110L230 110L230 120L220 120L220 110L210 110L210 80L220 80L220 60L210 60L210 50L220 50L220 30L210 30L210 20L220 20L220 10L210 10L210 20L200 20L200 10L190 10L190 20L180 20L180 10L170 10L170 20L180 20L180 30L170 30L170 40L180 40L180 50L190 50L190 40L200 40L200 30L210 30L210 50L200 50L200 60L210 60L210 80L200 80L200 70L190 70L190 80L200 80L200 90L190 90L190 100L180 100L180 90L160 90L160 100L150 100L150 80L160 80L160 70L170 70L170 80L180 80L180 60L170 60L170 50L160 50L160 40L130 40L130 30L140 30L140 10L130 10L130 20L120 20L120 10L100 10M230 10L230 80L300 80L300 10L230 10z"/>
<path style="fill:#ffffff; stroke:none;" d="M20 20L20 70L70 70L70 20L20 20z"/>
<path style="fill:#000000; stroke:none;" d="M150 20L150 30L160 30L160 20L150 20z"/>
<path style="fill:#ffffff; stroke:none;" d="M190 20L190 30L180 30L180 40L190 40L190 30L200 30L200 20L190 20M240 20L240 70L290 70L290 20L240 20z"/>
<path style="fill:#000000; stroke:none;" d="M30 30L30 60L60 60L60 30L30 30M250 30L250 60L280 60L280 30L250 30z"/>
<path style="fill:#ffffff; stroke:none;" d="M110 40L110 70L100 70L100 80L110 80L110 100L100 100L100 110L80 110L80 120L90 120L90 140L60 140L60 160L70 160L70 170L60 170L60 180L70 180L70 190L80 190L80 200L70 200L70 210L80 210L80 200L90 200L90 210L100 210L100 200L110 200L110 210L120 210L120 220L100 220L100 230L120 230L120 250L100 250L100 270L110 270L110 260L130 260L130 270L140 270L140 260L160 260L160 270L180 270L180 260L160 260L160 250L180 250L180 240L200 240L200 230L210 230L210 210L220 210L220 200L240 200L240 190L250 190L250 180L260 180L260 150L250 150L250 140L240 140L240 150L230 150L230 140L220 140L220 120L210 120L210 110L200 110L200 120L210 120L210 140L200 140L200 130L190 130L190 110L180 110L180 100L160 100L160 110L180 110L180 120L150 120L150 100L140 100L140 80L150 80L150 70L160 70L160 60L150 60L150 70L140 70L140 50L130 50L130 40L110 40z"/>
<path style="fill:#000000; stroke:none;" d="M120 50L120 60L130 60L130 50L120 50M110 70L110 80L120 80L120 90L130 90L130 80L140 80L140 70L130 70L130 80L120 80L120 70L110 70M110 100L110 110L100 110L100 130L110 130L110 110L130 110L130 100L110 100z"/>
<path style="fill:#ffffff; stroke:none;" d="M260 100L260 110L270 110L270 100L260 100M240 110L240 120L230 120L230 130L240 130L240 120L250 120L250 110L240 110z"/>
<path style="fill:#000000; stroke:none;" d="M130 120L130 130L120 130L120 140L100 140L100 150L90 150L90 160L100 160L100 150L110 150L110 160L140 160L140 180L150 180L150 190L140 190L140 200L120 200L120 210L130 210L130 220L140 220L140 200L180 200L180 190L160 190L160 170L150 170L150 150L140 150L140 130L150 130L150 120L130 120z"/>
<path style="fill:#ffffff; stroke:none;" d="M20 130L20 140L30 140L30 150L40 150L40 130L20 130z"/>
<path style="fill:#000000; stroke:none;" d="M160 130L160 140L170 140L170 150L160 150L160 160L170 160L170 180L180 180L180 160L170 160L170 150L200 150L200 160L190 160L190 200L210 200L210 190L220 190L220 180L230 180L230 160L210 160L210 150L200 150L200 140L190 140L190 130L160 130M70 150L70 160L80 160L80 150L70 150z"/>
<path style="fill:#ffffff; stroke:none;" d="M270 150L270 160L290 160L290 150L270 150M40 170L40 180L30 180L30 190L50 190L50 170L40 170z"/>
<path style="fill:#000000; stroke:none;" d="M70 170L70 180L90 180L90 200L100 200L100 190L110 190L110 180L90 180L90 170L70 170M120 170L120 190L130 190L130 170L120 170z"/>
<path style="fill:#ffffff; stroke:none;" d="M200 170L200 180L220 180L220 170L200 170z"/>
<path style="fill:#000000; stroke:none;" d="M240 170L240 180L250 180L250 170L240 170M290 190L290 200L300 200L300 190L290 190z"/>
<path style="fill:#ffffff; stroke:none;" d="M260 200L260 220L270 220L270 200L260 200z"/>
<path style="fill:#000000; stroke:none;" d="M170 210L170 220L160 220L160 240L150 240L150 230L140 230L140 250L160 250L160 240L180 240L180 230L170 230L170 220L190 220L190 230L200 230L200 220L190 220L190 210L170 210z"/>
<path style="fill:#ffffff; stroke:none;" d="M220 220L220 250L250 250L250 220L220 220z"/>
<path style="fill:#000000; stroke:none;" d="M10 230L10 300L80 300L80 230L10 230M230 230L230 240L240 240L240 230L230 230z"/>
<path style="fill:#ffffff; stroke:none;" d="M260 230L260 240L270 240L270 230L260 230M20 240L20 290L70 290L70 240L20 240z"/>
<path style="fill:#000000; stroke:none;" d="M30 250L30 280L60 280L60 250L30 250z"/>
</svg>
