<?xml version="1.0" standalone="yes"?>
<svg version="1.1" xmlns="http://www.w3.org/2000/svg" xmlns:xlink="http://www.w3.org/1999/xlink" xmlns:ev="http://www.w3.org/2001/xml-events" width="310" height="310">
<path style="fill:#ffffff; stroke:none;" d="M0 0L0 310L310 310L310 0L0 0z"/>
<path style="fill:#000000; stroke:none;" d="M10 10L10 80L80 80L80 10L10 10M100 10L100 20L90 20L90 30L110 30L110 40L100 40L100 60L90 60L90 90L50 90L50 110L30 110L30 100L10 100L10 110L30 110L30 120L50 120L50 110L60 110L60 100L90 100L90 110L70 110L70 120L90 120L90 110L100 110L100 130L110 130L110 140L100 140L100 150L70 150L70 140L80 140L80 130L40 130L40 140L30 140L30 130L20 130L20 150L10 150L10 160L20 160L20 180L10 180L10 190L30 190L30 170L40 170L40 180L50 180L50 170L70 170L70 180L60 180L60 190L40 190L40 220L50 220L50 210L60 210L60 200L80 200L80 190L70 190L70 180L90 180L90 210L70 210L70 220L90 220L90 260L100 260L100 270L110 270L110 300L150 300L150 290L120 290L120 270L130 270L130 260L140 260L140 250L150 250L150 270L140 270L140 280L170 280L170 290L210 290L210 300L240 300L240 290L250 290L250 300L260 300L260 290L270 290L270 280L280 280L280 300L290 300L290 290L300 290L300 270L290 270L290 260L300 260L300 220L290 220L290 210L280 210L280 220L270 220L270 190L280 190L280 180L290 180L290 200L300 200L300 180L290 180L290 170L300 170L300 100L290 100L290 90L280 90L280 100L250 100L250 90L230 90L230 110L240 110L240 100L250 100L250 110L270 110L270 120L260 120L260 130L270 130L270 120L280 120L280 130L290 130L290 170L280 170L280 180L270 180L270 190L260 190L260 180L250 180L250 170L270 170L270 160L260 160L260 140L250 140L250 150L240 150L240 140L230 140L230 150L240 150L240 180L230 180L230 160L220 160L220 150L210 150L210 160L200 160L200 140L210 140L210 130L220 130L220 70L210 70L210 60L220 60L220 50L210 50L210 40L220 40L220 30L210 30L210 20L220 20L220 10L170 10L170 20L160 20L160 30L150 30L150 10L140 10L140 30L130 30L130 10L120 10L120 20L110 20L110 10L100 10M230 10L230 80L300 80L300 10L230 10z"/>
<path style="fill:#ffffff; stroke:none;" d="M20 20L20 70L70 70L70 20L20 20M190 20L190 40L180 40L180 50L160 50L160 40L170 40L170 30L160 30L160 40L150 40L150 30L140 30L140 40L130 40L130 30L120 30L120 50L140 50L140 60L150 60L150 50L160 50L160 80L150 80L150 70L140 70L140 80L130 80L130 70L120 70L120 80L110 80L110 60L100 60L100 90L90 90L90 100L100 100L100 110L130 110L130 100L100 100L100 90L140 90L140 120L110 120L110 130L150 130L150 140L160 140L160 120L150 120L150 110L160 110L160 100L170 100L170 120L180 120L180 140L170 140L170 150L150 150L150 160L110 160L110 190L100 190L100 210L90 210L90 220L120 220L120 230L110 230L110 240L100 240L100 250L110 250L110 260L130 260L130 250L140 250L140 240L130 240L130 190L140 190L140 200L150 200L150 190L170 190L170 180L150 180L150 160L160 160L160 170L190 170L190 180L180 180L180 190L200 190L200 200L210 200L210 210L260 210L260 190L250 190L250 200L240 200L240 190L230 190L230 180L200 180L200 170L190 170L190 160L170 160L170 150L190 150L190 130L200 130L200 120L210 120L210 100L200 100L200 80L210 80L210 70L200 70L200 60L210 60L210 50L190 50L190 40L200 40L200 20L190 20M240 20L240 70L290 70L290 20L240 20z"/>
<path style="fill:#000000; stroke:none;" d="M30 30L30 60L60 60L60 30L30 30M250 30L250 60L280 60L280 30L250 30M180 50L180 60L170 60L170 80L160 80L160 90L150 90L150 100L160 100L160 90L170 90L170 100L180 100L180 120L200 120L200 100L180 100L180 90L170 90L170 80L180 80L180 70L190 70L190 80L200 80L200 70L190 70L190 50L180 50z"/>
<path style="fill:#ffffff; stroke:none;" d="M280 110L280 120L290 120L290 110L280 110M40 140L40 150L30 150L30 160L50 160L50 140L40 140M110 140L110 150L130 150L130 140L110 140z"/>
<path style="fill:#000000; stroke:none;" d="M270 140L270 150L280 150L280 140L270 140z"/>
<path style="fill:#ffffff; stroke:none;" d="M70 160L70 170L100 170L100 160L70 160z"/>
<path style="fill:#000000; stroke:none;" d="M130 170L130 180L140 180L140 190L150 190L150 180L140 180L140 170L130 170M110 190L110 210L120 210L120 190L110 190z"/>
<path style="fill:#ffffff; stroke:none;" d="M160 200L160 220L170 220L170 200L160 200z"/>
<path style="fill:#000000; stroke:none;" d="M10 210L10 220L30 220L30 210L10 210z"/>
<path style="fill:#ffffff; stroke:none;" d="M140 210L140 230L150 230L150 210L140 210M180 220L180 230L190 230L190 220L180 220M200 220L200 230L210 230L210 220L200 220M220 220L220 250L250 250L250 220L220 220M260 220L260 240L270 240L270 250L260 250L260 260L250 260L250 290L260 290L260 280L270 280L270 270L280 270L280 260L290 260L290 250L280 250L280 240L290 240L290 230L270 230L270 220L260 220z"/>
<path style="fill:#000000; stroke:none;" d="M10 230L10 300L80 300L80 230L10 230M230 230L230 240L240 240L240 230L230 230z"/>
<path style="fill:#ffffff; stroke:none;" d="M20 240L20 290L70 290L70 240L20 240z"/>
<path style="fill:#000000; stroke:none;" d="M120 240L120 250L130 250L130 240L120 240z"/>
<path style="fill:#ffffff; stroke:none;" d="M160 240L160 250L180 250L180 270L170 270L170 260L160 260L160 270L170 270L170 280L180 280L180 270L210 270L210 280L220 280L220 290L240 290L240 260L230 260L230 270L220 270L220 260L190 260L190 250L200 250L200 240L160 240z"/>
<path style="fill:#000000; stroke:none;" d="M30 250L30 280L60 280L60 250L30 250z"/>
</svg>
