<?xml version="1.0" standalone="yes"?>
<svg version="1.1" xmlns="http://www.w3.org/2000/svg" xmlns:xlink="http://www.w3.org/1999/xlink" xmlns:ev="http://www.w3.org/2001/xml-events" width="310" height="310">
<path style="fill:#ffffff; stroke:none;" d="M0 0L0 310L310 310L310 0L0 0z"/>
<path style="fill:#000000; stroke:none;" d="M10 10L10 80L80 80L80 10L10 10M90 10L90 40L110 40L110 50L100 50L100 60L90 60L90 120L80 120L80 110L70 110L70 100L80 100L80 90L70 90L70 100L60 100L60 90L30 90L30 100L10 100L10 130L20 130L20 170L50 170L50 190L60 190L60 180L80 180L80 190L70 190L70 200L80 200L80 190L90 190L90 200L100 200L100 190L110 190L110 220L100 220L100 210L50 210L50 220L90 220L90 230L100 230L100 250L90 250L90 280L100 280L100 300L110 300L110 280L100 280L100 260L110 260L110 270L120 270L120 280L140 280L140 290L130 290L130 300L170 300L170 290L190 290L190 280L180 280L180 270L200 270L200 250L210 250L210 260L240 260L240 270L230 270L230 280L220 280L220 270L210 270L210 290L200 290L200 300L210 300L210 290L220 290L220 300L240 300L240 290L230 290L230 280L240 280L240 270L250 270L250 300L280 300L280 290L290 290L290 270L270 270L270 260L280 260L280 250L290 250L290 260L300 260L300 240L280 240L280 250L270 250L270 240L260 240L260 230L270 230L270 220L280 220L280 210L270 210L270 190L300 190L300 180L280 180L280 170L290 170L290 160L280 160L280 170L270 170L270 160L260 160L260 180L250 180L250 190L260 190L260 200L250 200L250 210L240 210L240 180L230 180L230 210L220 210L220 190L210 190L210 200L180 200L180 190L200 190L200 150L210 150L210 170L220 170L220 150L230 150L230 170L240 170L240 140L230 140L230 130L250 130L250 120L240 120L240 110L260 110L260 120L270 120L270 100L290 100L290 110L300 110L300 90L270 90L270 100L250 100L250 90L220 90L220 100L210 100L210 110L200 110L200 100L180 100L180 90L210 90L210 80L220 80L220 70L210 70L210 80L200 80L200 70L190 70L190 60L220 60L220 40L210 40L210 50L190 50L190 40L180 40L180 60L170 60L170 80L160 80L160 70L150 70L150 90L140 90L140 110L150 110L150 90L170 90L170 100L160 100L160 130L140 130L140 120L130 120L130 110L110 110L110 100L130 100L130 80L140 80L140 70L130 70L130 60L110 60L110 50L120 50L120 40L110 40L110 20L100 20L100 10L90 10M130 10L130 20L120 20L120 30L130 30L130 40L140 40L140 30L130 30L130 20L140 20L140 10L130 10M160 10L160 20L170 20L170 30L180 30L180 10L160 10M230 10L230 80L300 80L300 10L230 10z"/>
<path style="fill:#ffffff; stroke:none;" d="M20 20L20 70L70 70L70 20L20 20z"/>
<path style="fill:#000000; stroke:none;" d="M210 20L210 30L220 30L220 20L210 20z"/>
<path style="fill:#ffffff; stroke:none;" d="M240 20L240 70L290 70L290 20L240 20z"/>
<path style="fill:#000000; stroke:none;" d="M30 30L30 60L60 60L60 30L30 30M150 30L150 40L160 40L160 30L150 30M250 30L250 60L280 60L280 30L250 30M140 50L140 60L160 60L160 50L140 50z"/>
<path style="fill:#ffffff; stroke:none;" d="M100 60L100 80L110 80L110 90L100 90L100 100L110 100L110 90L120 90L120 80L130 80L130 70L120 70L120 80L110 80L110 60L100 60M180 70L180 80L170 80L170 90L180 90L180 80L190 80L190 70L180 70M40 100L40 110L30 110L30 130L40 130L40 140L30 140L30 150L50 150L50 120L60 120L60 170L80 170L80 180L90 180L90 170L100 170L100 180L120 180L120 230L110 230L110 240L120 240L120 250L140 250L140 240L130 240L130 220L140 220L140 200L130 200L130 190L140 190L140 180L130 180L130 160L120 160L120 150L130 150L130 140L140 140L140 130L130 130L130 120L110 120L110 110L100 110L100 130L80 130L80 120L60 120L60 110L50 110L50 100L40 100z"/>
<path style="fill:#000000; stroke:none;" d="M40 110L40 120L50 120L50 110L40 110z"/>
<path style="fill:#ffffff; stroke:none;" d="M170 110L170 120L180 120L180 130L190 130L190 140L200 140L200 120L190 120L190 110L170 110M210 110L210 120L220 120L220 130L210 130L210 140L220 140L220 130L230 130L230 110L210 110z"/>
<path style="fill:#000000; stroke:none;" d="M280 120L280 130L270 130L270 140L250 140L250 150L270 150L270 140L290 140L290 150L300 150L300 130L290 130L290 120L280 120M70 130L70 140L80 140L80 150L70 150L70 160L80 160L80 170L90 170L90 160L80 160L80 150L100 150L100 140L130 140L130 130L100 130L100 140L80 140L80 130L70 130z"/>
<path style="fill:#ffffff; stroke:none;" d="M150 140L150 150L140 150L140 160L160 160L160 150L170 150L170 160L190 160L190 150L170 150L170 140L150 140z"/>
<path style="fill:#000000; stroke:none;" d="M100 160L100 170L120 170L120 160L100 160z"/>
<path style="fill:#ffffff; stroke:none;" d="M150 170L150 220L160 220L160 240L180 240L180 260L170 260L170 270L150 270L150 260L160 260L160 250L150 250L150 260L140 260L140 270L150 270L150 290L170 290L170 270L180 270L180 260L190 260L190 250L200 250L200 230L170 230L170 200L160 200L160 190L180 190L180 180L190 180L190 170L180 170L180 180L170 180L170 170L150 170z"/>
<path style="fill:#000000; stroke:none;" d="M10 180L10 220L20 220L20 180L10 180M30 180L30 190L40 190L40 180L30 180M30 210L30 220L40 220L40 210L30 210z"/>
<path style="fill:#ffffff; stroke:none;" d="M190 210L190 220L210 220L210 210L190 210M260 210L260 220L270 220L270 210L260 210M220 220L220 250L250 250L250 220L220 220z"/>
<path style="fill:#000000; stroke:none;" d="M290 220L290 230L300 230L300 220L290 220M10 230L10 300L80 300L80 230L10 230M230 230L230 240L240 240L240 230L230 230z"/>
<path style="fill:#ffffff; stroke:none;" d="M20 240L20 290L70 290L70 240L20 240z"/>
<path style="fill:#000000; stroke:none;" d="M30 250L30 280L60 280L60 250L30 250z"/>
<path style="fill:#ffffff; stroke:none;" d="M120 260L120 270L130 270L130 260L120 260M250 260L250 270L260 270L260 280L270 280L270 290L280 290L280 280L270 280L270 270L260 270L260 260L250 260z"/>
</svg>
